SplineFontDB: 3.0
FontName: GoblinOne
FullName: Goblin One
FamilyName: Goblin One
Weight: Book
Copyright: Copyright (c) 2011, Sorkin Type Co (www.sorkintype.com)\nwith Reserved Font Name "Goblin".\n\nThis Font Software is licensed under the SIL Open Font License,\nVersion 1.1. This license is available with a FAQ at:\nhttp://scripts.sil.org/OFL
Version: 1.001
ItalicAngle: 0
UnderlinePosition: 39
UnderlineWidth: 222
Ascent: 1638
Descent: 410
sfntRevision: 0x00010041
LayerCount: 2
Layer: 0 1 "Back"  1
Layer: 1 1 "Fore"  0
XUID: [1021 288 713564382 7719014]
FSType: 0
OS2Version: 3
OS2_WeightWidthSlopeOnly: 0
OS2_UseTypoMetrics: 1
CreationTime: 1308139800
ModificationTime: 1308168899
PfmFamily: 17
TTFWeight: 400
TTFWidth: 5
LineGap: 0
VLineGap: 0
Panose: 2 10 9 2 7 4 0 6 7 4
OS2TypoAscent: 2012
OS2TypoAOffset: 0
OS2TypoDescent: -643
OS2TypoDOffset: 0
OS2TypoLinegap: 0
OS2WinAscent: 2012
OS2WinAOffset: 0
OS2WinDescent: 643
OS2WinDOffset: 0
HheadAscent: 2012
HheadAOffset: 0
HheadDescent: -643
HheadDOffset: 0
OS2SubXSize: 1434
OS2SubYSize: 1331
OS2SubXOff: 0
OS2SubYOff: 287
OS2SupXSize: 1434
OS2SupYSize: 1331
OS2SupXOff: 0
OS2SupYOff: 977
OS2StrikeYSize: 222
OS2StrikeYPos: 571
OS2Vendor: 'STC '
OS2CodePages: 20000111.40000000
OS2UnicodeRanges: 800000a7.00000002.00000000.00000000
MarkAttachClasses: 1
DEI: 91125
TtTable: prep
PUSHW_1
 511
SCANCTRL
PUSHB_1
 4
SCANTYPE
EndTTInstrs
ShortTable: maxp 16
  1
  0
  237
  126
  5
  0
  0
  1
  0
  0
  0
  0
  0
  0
  0
  0
EndShort

StartChar: exclam
Encoding: 33 33 4
Width: 739
Flags: W
LayerCount: 2
Fore
SplineSet
231 598 m 1,0,1
 223 640 223 640 214.5 702.5 c 128,-1,2
 206 765 206 765 196.5 840 c 128,-1,3
 187 915 187 915 177.5 1000.5 c 128,-1,4
 168 1086 168 1086 159.5 1174 c 128,-1,5
 151 1262 151 1262 143.5 1351 c 128,-1,6
 136 1440 136 1440 131 1522 c 1,7,-1
 608 1522 l 1,8,9
 603 1440 603 1440 595.5 1351.5 c 128,-1,10
 588 1263 588 1263 579.5 1174 c 128,-1,11
 571 1085 571 1085 561.5 1000 c 128,-1,12
 552 915 552 915 542.5 840 c 128,-1,13
 533 765 533 765 524 702.5 c 128,-1,14
 515 640 515 640 508 598 c 1,15,-1
 231 598 l 1,0,1
120 210 m 256,16,17
 120 262 120 262 139.5 307.5 c 128,-1,18
 159 353 159 353 192.5 387 c 128,-1,19
 226 421 226 421 271.5 440.5 c 128,-1,20
 317 460 317 460 369 460 c 256,21,22
 421 460 421 460 466.5 440.5 c 128,-1,23
 512 421 512 421 546 387 c 128,-1,24
 580 353 580 353 599.5 307.5 c 128,-1,25
 619 262 619 262 619 210 c 256,26,27
 619 158 619 158 599.5 112.5 c 128,-1,28
 580 67 580 67 546 33.5 c 128,-1,29
 512 0 512 0 466.5 -19.5 c 128,-1,30
 421 -39 421 -39 369 -39 c 256,31,32
 317 -39 317 -39 271.5 -19.5 c 128,-1,33
 226 0 226 0 192.5 33.5 c 128,-1,34
 159 67 159 67 139.5 112.5 c 128,-1,35
 120 158 120 158 120 210 c 256,16,17
EndSplineSet
EndChar

StartChar: quotedbl
Encoding: 34 34 5
Width: 1118
Flags: W
LayerCount: 2
Fore
SplineSet
753 1106 m 1,0,1
 743 1132 743 1132 729 1172 c 128,-1,2
 715 1212 715 1212 700.5 1259 c 128,-1,3
 686 1306 686 1306 671.5 1356 c 128,-1,4
 657 1406 657 1406 645.5 1452 c 128,-1,5
 634 1498 634 1498 627 1536 c 128,-1,6
 620 1574 620 1574 620 1596 c 0,7,8
 620 1640 620 1640 634 1671.5 c 128,-1,9
 648 1703 648 1703 673 1723.5 c 128,-1,10
 698 1744 698 1744 731.5 1753.5 c 128,-1,11
 765 1763 765 1763 804 1763 c 256,12,13
 843 1763 843 1763 876.5 1753.5 c 128,-1,14
 910 1744 910 1744 935 1723.5 c 128,-1,15
 960 1703 960 1703 974 1671.5 c 128,-1,16
 988 1640 988 1640 988 1596 c 0,17,18
 988 1574 988 1574 981 1536 c 128,-1,19
 974 1498 974 1498 962.5 1452 c 128,-1,20
 951 1406 951 1406 936.5 1356 c 128,-1,21
 922 1306 922 1306 907.5 1259 c 128,-1,22
 893 1212 893 1212 879 1172 c 128,-1,23
 865 1132 865 1132 855 1106 c 1,24,-1
 753 1106 l 1,0,1
263 1106 m 1,25,26
 253 1132 253 1132 239 1172 c 128,-1,27
 225 1212 225 1212 210.5 1259 c 128,-1,28
 196 1306 196 1306 181.5 1356 c 128,-1,29
 167 1406 167 1406 155.5 1452 c 128,-1,30
 144 1498 144 1498 137 1536 c 128,-1,31
 130 1574 130 1574 130 1596 c 0,32,33
 130 1640 130 1640 144 1671.5 c 128,-1,34
 158 1703 158 1703 183 1723.5 c 128,-1,35
 208 1744 208 1744 241.5 1753.5 c 128,-1,36
 275 1763 275 1763 314 1763 c 256,37,38
 353 1763 353 1763 386.5 1753.5 c 128,-1,39
 420 1744 420 1744 445 1723.5 c 128,-1,40
 470 1703 470 1703 484 1671.5 c 128,-1,41
 498 1640 498 1640 498 1596 c 0,42,43
 498 1574 498 1574 491 1536 c 128,-1,44
 484 1498 484 1498 472.5 1452 c 128,-1,45
 461 1406 461 1406 446.5 1356 c 128,-1,46
 432 1306 432 1306 417.5 1259 c 128,-1,47
 403 1212 403 1212 389 1172 c 128,-1,48
 375 1132 375 1132 365 1106 c 1,49,-1
 263 1106 l 1,25,26
EndSplineSet
EndChar

StartChar: numbersign
Encoding: 35 35 6
Width: 1908
Flags: W
LayerCount: 2
Fore
SplineSet
453 370 m 1,0,-1
 130 370 l 1,1,-1
 130 578 l 1,2,-1
 511 578 l 1,3,-1
 590 860 l 1,4,-1
 223 860 l 1,5,-1
 223 1068 l 1,6,-1
 649 1068 l 1,7,-1
 752 1434 l 1,8,-1
 973 1434 l 1,9,-1
 869 1068 l 1,10,-1
 1199 1068 l 1,11,-1
 1302 1434 l 1,12,-1
 1523 1434 l 1,13,-1
 1419 1068 l 1,14,-1
 1763 1068 l 1,15,-1
 1763 860 l 1,16,-1
 1360 860 l 1,17,-1
 1281 578 l 1,18,-1
 1670 578 l 1,19,-1
 1670 370 l 1,20,-1
 1222 370 l 1,21,-1
 1118 0 l 1,22,-1
 899 0 l 1,23,-1
 1003 370 l 1,24,-1
 672 370 l 1,25,-1
 568 0 l 1,26,-1
 349 0 l 1,27,-1
 453 370 l 1,0,-1
1061 578 m 1,28,-1
 1140 860 l 1,29,-1
 810 860 l 1,30,-1
 731 578 l 1,31,-1
 1061 578 l 1,28,-1
EndSplineSet
EndChar

StartChar: dollar
Encoding: 36 36 7
Width: 1944
Flags: W
LayerCount: 2
Fore
SplineSet
165 489 m 1,0,1
 262 425 262 425 369 369.5 c 128,-1,2
 476 314 476 314 590.5 273 c 128,-1,3
 705 232 705 232 825.5 208.5 c 128,-1,4
 946 185 946 185 1071 185 c 0,5,6
 1119 185 1119 185 1163.5 191 c 128,-1,7
 1208 197 1208 197 1241.5 210.5 c 128,-1,8
 1275 224 1275 224 1295.5 246.5 c 128,-1,9
 1316 269 1316 269 1316 301 c 0,10,11
 1316 330 1316 330 1299 359.5 c 128,-1,12
 1282 389 1282 389 1233.5 416 c 128,-1,13
 1185 443 1185 443 1098 466.5 c 128,-1,14
 1011 490 1011 490 872 508 c 0,15,16
 686 532 686 532 549 570 c 128,-1,17
 412 608 412 608 322 667 c 128,-1,18
 232 726 232 726 188 809 c 128,-1,19
 144 892 144 892 144 1006 c 0,20,21
 144 1115 144 1115 193.5 1201.5 c 128,-1,22
 243 1288 243 1288 336 1348 c 128,-1,23
 429 1408 429 1408 562 1440 c 128,-1,24
 695 1472 695 1472 862 1472 c 0,25,26
 879 1472 879 1472 901 1471 c 128,-1,27
 923 1470 923 1470 936 1468 c 1,28,-1
 958 1710 l 1,29,-1
 1178 1710 l 1,30,-1
 1153 1438 l 1,31,32
 1219 1426 1219 1426 1281 1410 c 128,-1,33
 1343 1394 1343 1394 1394 1377 c 1,34,-1
 1590 1485 l 1,35,-1
 1727 1485 l 1,36,-1
 1727 1005 l 1,37,38
 1620 1068 1620 1068 1511.5 1116 c 128,-1,39
 1403 1164 1403 1164 1296.5 1196.5 c 128,-1,40
 1190 1229 1190 1229 1088.5 1245.5 c 128,-1,41
 987 1262 987 1262 895 1262 c 0,42,43
 835 1262 835 1262 786.5 1253 c 128,-1,44
 738 1244 738 1244 704.5 1229 c 128,-1,45
 671 1214 671 1214 653 1193.5 c 128,-1,46
 635 1173 635 1173 635 1150 c 0,47,48
 635 1117 635 1117 653 1090.5 c 128,-1,49
 671 1064 671 1064 723 1041 c 128,-1,50
 775 1018 775 1018 869 996.5 c 128,-1,51
 963 975 963 975 1115 950 c 0,52,53
 1216 933 1216 933 1308 914 c 128,-1,54
 1400 895 1400 895 1479 868.5 c 128,-1,55
 1558 842 1558 842 1621.5 805 c 128,-1,56
 1685 768 1685 768 1730 716 c 128,-1,57
 1775 664 1775 664 1799.5 594 c 128,-1,58
 1824 524 1824 524 1824 431 c 0,59,60
 1824 307 1824 307 1764 218 c 128,-1,61
 1704 129 1704 129 1602 72 c 128,-1,62
 1500 15 1500 15 1364.5 -12 c 128,-1,63
 1229 -39 1229 -39 1079 -39 c 0,64,65
 1065 -39 1065 -39 1050.5 -39 c 128,-1,66
 1036 -39 1036 -39 1018 -37 c 1,67,-1
 996 -285 l 1,68,-1
 770 -285 l 1,69,-1
 799 -9 l 1,70,71
 727 6 727 6 657.5 29.5 c 128,-1,72
 588 53 588 53 522 86 c 1,73,-1
 362 -14 l 1,74,-1
 165 -14 l 1,75,-1
 165 489 l 1,0,1
EndSplineSet
EndChar

StartChar: percent
Encoding: 37 37 8
Width: 2029
Flags: W
LayerCount: 2
Fore
SplineSet
525 771 m 256,0,1
 453 771 453 771 380.5 791 c 128,-1,2
 308 811 308 811 250 853 c 128,-1,3
 192 895 192 895 156 961.5 c 128,-1,4
 120 1028 120 1028 120 1121 c 0,5,6
 120 1213 120 1213 156 1279.5 c 128,-1,7
 192 1346 192 1346 250 1388.5 c 128,-1,8
 308 1431 308 1431 380.5 1451.5 c 128,-1,9
 453 1472 453 1472 525 1472 c 256,10,11
 597 1472 597 1472 669.5 1451.5 c 128,-1,12
 742 1431 742 1431 800 1388.5 c 128,-1,13
 858 1346 858 1346 894.5 1279.5 c 128,-1,14
 931 1213 931 1213 931 1121 c 256,15,16
 931 1029 931 1029 894.5 963 c 128,-1,17
 858 897 858 897 800 854.5 c 128,-1,18
 742 812 742 812 669.5 791.5 c 128,-1,19
 597 771 597 771 525 771 c 256,0,1
1439 1434 m 1,20,-1
 1750 1434 l 1,21,-1
 585 0 l 1,22,-1
 276 0 l 1,23,-1
 1439 1434 l 1,20,-1
525 898 m 0,24,25
 597 898 597 898 631.5 956 c 128,-1,26
 666 1014 666 1014 666 1121 c 0,27,28
 666 1231 666 1231 633.5 1290.5 c 128,-1,29
 601 1350 601 1350 525 1350 c 0,30,31
 452 1350 452 1350 418 1290.5 c 128,-1,32
 384 1231 384 1231 384 1121 c 0,33,34
 384 1012 384 1012 418 955 c 128,-1,35
 452 898 452 898 525 898 c 0,24,25
1098 311 m 0,36,37
 1098 403 1098 403 1134 469.5 c 128,-1,38
 1170 536 1170 536 1228 578.5 c 128,-1,39
 1286 621 1286 621 1358.5 641.5 c 128,-1,40
 1431 662 1431 662 1503 662 c 256,41,42
 1575 662 1575 662 1647.5 641.5 c 128,-1,43
 1720 621 1720 621 1778 578.5 c 128,-1,44
 1836 536 1836 536 1872.5 469.5 c 128,-1,45
 1909 403 1909 403 1909 311 c 256,46,47
 1909 219 1909 219 1872.5 153 c 128,-1,48
 1836 87 1836 87 1778 44.5 c 128,-1,49
 1720 2 1720 2 1647.5 -18.5 c 128,-1,50
 1575 -39 1575 -39 1503 -39 c 256,51,52
 1431 -39 1431 -39 1358.5 -19 c 128,-1,53
 1286 1 1286 1 1228 43 c 128,-1,54
 1170 85 1170 85 1134 151.5 c 128,-1,55
 1098 218 1098 218 1098 311 c 0,36,37
1362 311 m 0,56,57
 1362 202 1362 202 1396 145 c 128,-1,58
 1430 88 1430 88 1503 88 c 0,59,60
 1575 88 1575 88 1609.5 146 c 128,-1,61
 1644 204 1644 204 1644 311 c 0,62,63
 1644 421 1644 421 1611.5 480.5 c 128,-1,64
 1579 540 1579 540 1503 540 c 0,65,66
 1430 540 1430 540 1396 480.5 c 128,-1,67
 1362 421 1362 421 1362 311 c 0,56,57
EndSplineSet
EndChar

StartChar: ampersand
Encoding: 38 38 9
Width: 2299
Flags: W
LayerCount: 2
Fore
SplineSet
110 345 m 256,0,1
 110 419 110 419 150.5 478 c 128,-1,2
 191 537 191 537 259 582 c 128,-1,3
 327 627 327 627 415.5 657.5 c 128,-1,4
 504 688 504 688 601 706 c 1,5,6
 491 791 491 791 434.5 876 c 128,-1,7
 378 961 378 961 378 1058 c 0,8,9
 378 1128 378 1128 404.5 1186 c 128,-1,10
 431 1244 431 1244 477.5 1290 c 128,-1,11
 524 1336 524 1336 589 1370 c 128,-1,12
 654 1404 654 1404 731 1427 c 128,-1,13
 808 1450 808 1450 894.5 1461 c 128,-1,14
 981 1472 981 1472 1072 1472 c 0,15,16
 1226 1472 1226 1472 1348.5 1445 c 128,-1,17
 1471 1418 1471 1418 1556 1368.5 c 128,-1,18
 1641 1319 1641 1319 1686 1250.5 c 128,-1,19
 1731 1182 1731 1182 1731 1098 c 0,20,21
 1731 1023 1731 1023 1696 959.5 c 128,-1,22
 1661 896 1661 896 1596.5 848 c 128,-1,23
 1532 800 1532 800 1441.5 770 c 128,-1,24
 1351 740 1351 740 1240 731 c 1,25,26
 1333 684 1333 684 1432 638.5 c 128,-1,27
 1531 593 1531 593 1632 549 c 1,28,29
 1637 584 1637 584 1639.5 620 c 128,-1,30
 1642 656 1642 656 1642 694 c 0,31,32
 1642 730 1642 730 1639 766 c 1,33,-1
 2043 630 l 1,34,35
 2043 501 2043 501 2011 399 c 1,36,37
 2086 371 2086 371 2153.5 349 c 128,-1,38
 2221 327 2221 327 2279 310 c 1,39,-1
 2007 -39 l 1,40,41
 1946 -19 1946 -19 1876 11 c 128,-1,42
 1806 41 1806 41 1728 78 c 1,43,44
 1599 15 1599 15 1423.5 -12 c 128,-1,45
 1248 -39 1248 -39 1027 -39 c 0,46,47
 902 -39 902 -39 785 -31 c 128,-1,48
 668 -23 668 -23 566.5 -5 c 128,-1,49
 465 13 465 13 381 42.5 c 128,-1,50
 297 72 297 72 236.5 114.5 c 128,-1,51
 176 157 176 157 143 214 c 128,-1,52
 110 271 110 271 110 345 c 256,0,1
1043 839 m 1,53,54
 1102 855 1102 855 1151 877 c 128,-1,55
 1200 899 1200 899 1235 929 c 128,-1,56
 1270 959 1270 959 1289.5 997.5 c 128,-1,57
 1309 1036 1309 1036 1309 1085 c 0,58,59
 1309 1127 1309 1127 1292.5 1159.5 c 128,-1,60
 1276 1192 1276 1192 1246 1215 c 128,-1,61
 1216 1238 1216 1238 1173 1250 c 128,-1,62
 1130 1262 1130 1262 1078 1262 c 0,63,64
 1019 1262 1019 1262 973.5 1247.5 c 128,-1,65
 928 1233 928 1233 896.5 1208.5 c 128,-1,66
 865 1184 865 1184 849 1150.5 c 128,-1,67
 833 1117 833 1117 833 1079 c 0,68,69
 833 1017 833 1017 889.5 958 c 128,-1,70
 946 899 946 899 1043 839 c 1,53,54
618 399 m 0,71,72
 618 355 618 355 637 321 c 128,-1,73
 656 287 656 287 689.5 262 c 128,-1,74
 723 237 723 237 768.5 220 c 128,-1,75
 814 203 814 203 866 192.5 c 128,-1,76
 918 182 918 182 974 177.5 c 128,-1,77
 1030 173 1030 173 1085 173 c 0,78,79
 1194 173 1194 173 1276.5 189.5 c 128,-1,80
 1359 206 1359 206 1420 236 c 1,81,82
 1299 300 1299 300 1179.5 365.5 c 128,-1,83
 1060 431 1060 431 947 492 c 0,84,85
 903 515 903 515 863 537.5 c 128,-1,86
 823 560 823 560 786 582 c 1,87,88
 749 567 749 567 718.5 547 c 128,-1,89
 688 527 688 527 665.5 504 c 128,-1,90
 643 481 643 481 630.5 454.5 c 128,-1,91
 618 428 618 428 618 399 c 0,71,72
EndSplineSet
EndChar

StartChar: quotesingle
Encoding: 39 39 10
Width: 628
Flags: W
LayerCount: 2
Fore
SplineSet
263 1106 m 1,0,1
 253 1132 253 1132 239 1172 c 128,-1,2
 225 1212 225 1212 210.5 1259 c 128,-1,3
 196 1306 196 1306 181.5 1356 c 128,-1,4
 167 1406 167 1406 155.5 1452 c 128,-1,5
 144 1498 144 1498 137 1536 c 128,-1,6
 130 1574 130 1574 130 1596 c 0,7,8
 130 1640 130 1640 144 1671.5 c 128,-1,9
 158 1703 158 1703 183 1723.5 c 128,-1,10
 208 1744 208 1744 241.5 1753.5 c 128,-1,11
 275 1763 275 1763 314 1763 c 256,12,13
 353 1763 353 1763 386.5 1753.5 c 128,-1,14
 420 1744 420 1744 445 1723.5 c 128,-1,15
 470 1703 470 1703 484 1671.5 c 128,-1,16
 498 1640 498 1640 498 1596 c 0,17,18
 498 1574 498 1574 491 1536 c 128,-1,19
 484 1498 484 1498 472.5 1452 c 128,-1,20
 461 1406 461 1406 446.5 1356 c 128,-1,21
 432 1306 432 1306 417.5 1259 c 128,-1,22
 403 1212 403 1212 389 1172 c 128,-1,23
 375 1132 375 1132 365 1106 c 1,24,-1
 263 1106 l 1,0,1
EndSplineSet
EndChar

StartChar: parenleft
Encoding: 40 40 11
Width: 912
Flags: W
LayerCount: 2
Fore
SplineSet
110 717 m 0,0,1
 110 855 110 855 137.5 976.5 c 128,-1,2
 165 1098 165 1098 213.5 1199.5 c 128,-1,3
 262 1301 262 1301 328 1382.5 c 128,-1,4
 394 1464 394 1464 471 1522.5 c 128,-1,5
 548 1581 548 1581 632.5 1616 c 128,-1,6
 717 1651 717 1651 803 1660 c 1,7,-1
 852 1527 l 1,8,9
 765 1494 765 1494 699.5 1414 c 128,-1,10
 634 1334 634 1334 590.5 1224.5 c 128,-1,11
 547 1115 547 1115 525.5 983.5 c 128,-1,12
 504 852 504 852 504 717 c 256,13,14
 504 582 504 582 525.5 450.5 c 128,-1,15
 547 319 547 319 590.5 209 c 128,-1,16
 634 99 634 99 699.5 19.5 c 128,-1,17
 765 -60 765 -60 852 -93 c 1,18,-1
 803 -226 l 1,19,20
 717 -217 717 -217 632.5 -182 c 128,-1,21
 548 -147 548 -147 471 -88.5 c 128,-1,22
 394 -30 394 -30 328 51.5 c 128,-1,23
 262 133 262 133 213.5 234.5 c 128,-1,24
 165 336 165 336 137.5 457 c 128,-1,25
 110 578 110 578 110 717 c 0,0,1
EndSplineSet
EndChar

StartChar: parenright
Encoding: 41 41 12
Width: 912
Flags: W
LayerCount: 2
Fore
SplineSet
60 -93 m 1,0,1
 147 -60 147 -60 212 19.5 c 128,-1,2
 277 99 277 99 320.5 209 c 128,-1,3
 364 319 364 319 386 450.5 c 128,-1,4
 408 582 408 582 408 717 c 256,5,6
 408 852 408 852 386 983.5 c 128,-1,7
 364 1115 364 1115 320.5 1224.5 c 128,-1,8
 277 1334 277 1334 212 1414 c 128,-1,9
 147 1494 147 1494 60 1527 c 1,10,-1
 109 1660 l 1,11,12
 194 1651 194 1651 279 1616 c 128,-1,13
 364 1581 364 1581 441 1522.5 c 128,-1,14
 518 1464 518 1464 584 1382.5 c 128,-1,15
 650 1301 650 1301 698.5 1199.5 c 128,-1,16
 747 1098 747 1098 774.5 976.5 c 128,-1,17
 802 855 802 855 802 717 c 256,18,19
 802 579 802 579 774.5 457.5 c 128,-1,20
 747 336 747 336 698.5 234.5 c 128,-1,21
 650 133 650 133 584 51.5 c 128,-1,22
 518 -30 518 -30 441 -88.5 c 128,-1,23
 364 -147 364 -147 279 -182 c 128,-1,24
 194 -217 194 -217 109 -226 c 1,25,-1
 60 -93 l 1,0,1
EndSplineSet
EndChar

StartChar: asterisk
Encoding: 42 42 13
Width: 938
Flags: W
LayerCount: 2
Fore
SplineSet
468 950 m 0,0,1
 442 950 442 950 418 958 c 128,-1,2
 394 966 394 966 375.5 981 c 128,-1,3
 357 996 357 996 345.5 1017 c 128,-1,4
 334 1038 334 1038 334 1065 c 0,5,6
 334 1076 334 1076 344 1111.5 c 128,-1,7
 354 1147 354 1147 368.5 1193 c 128,-1,8
 383 1239 383 1239 399.5 1288.5 c 128,-1,9
 416 1338 416 1338 430 1378 c 1,10,11
 402 1346 402 1346 367.5 1306.5 c 128,-1,12
 333 1267 333 1267 300.5 1231.5 c 128,-1,13
 268 1196 268 1196 243 1170 c 128,-1,14
 218 1144 218 1144 209 1139 c 0,15,16
 195 1131 195 1131 181.5 1127.5 c 128,-1,17
 168 1124 168 1124 154 1124 c 0,18,19
 119 1124 119 1124 89 1144.5 c 128,-1,20
 59 1165 59 1165 40 1197 c 0,21,22
 20 1231 20 1231 20 1273 c 0,23,24
 20 1302 20 1302 33 1328.5 c 128,-1,25
 46 1355 46 1355 74 1372 c 0,26,27
 83 1377 83 1377 118.5 1386 c 128,-1,28
 154 1395 154 1395 200.5 1405.5 c 128,-1,29
 247 1416 247 1416 298 1426 c 128,-1,30
 349 1436 349 1436 391 1444 c 1,31,32
 349 1452 349 1452 298 1462 c 128,-1,33
 247 1472 247 1472 200 1482.5 c 128,-1,34
 153 1493 153 1493 118 1502 c 128,-1,35
 83 1511 83 1511 74 1517 c 0,36,37
 45 1533 45 1533 32 1559 c 128,-1,38
 19 1585 19 1585 19 1614 c 0,39,40
 19 1655 19 1655 40 1691 c 0,41,42
 58 1723 58 1723 89 1744 c 128,-1,43
 120 1765 120 1765 155 1765 c 0,44,45
 182 1765 182 1765 208 1750 c 0,46,47
 217 1745 217 1745 242.5 1719 c 128,-1,48
 268 1693 268 1693 300.5 1657.5 c 128,-1,49
 333 1622 333 1622 367.5 1582.5 c 128,-1,50
 402 1543 402 1543 430 1511 c 1,51,52
 416 1551 416 1551 399 1600.5 c 128,-1,53
 382 1650 382 1650 367.5 1696 c 128,-1,54
 353 1742 353 1742 343.5 1777 c 128,-1,55
 334 1812 334 1812 334 1823 c 0,56,57
 334 1850 334 1850 345.5 1871.5 c 128,-1,58
 357 1893 357 1893 375.5 1908 c 128,-1,59
 394 1923 394 1923 418 1931 c 128,-1,60
 442 1939 442 1939 468 1939 c 0,61,62
 493 1939 493 1939 517.5 1931 c 128,-1,63
 542 1923 542 1923 561.5 1908 c 128,-1,64
 581 1893 581 1893 592.5 1871.5 c 128,-1,65
 604 1850 604 1850 604 1823 c 0,66,67
 604 1812 604 1812 594 1776.5 c 128,-1,68
 584 1741 584 1741 569.5 1695.5 c 128,-1,69
 555 1650 555 1650 538 1600.5 c 128,-1,70
 521 1551 521 1551 507 1511 c 1,71,72
 535 1543 535 1543 569.5 1582.5 c 128,-1,73
 604 1622 604 1622 636 1658 c 128,-1,74
 668 1694 668 1694 693.5 1720 c 128,-1,75
 719 1746 719 1746 729 1752 c 0,76,77
 742 1760 742 1760 755 1763 c 128,-1,78
 768 1766 768 1766 780 1766 c 0,79,80
 816 1766 816 1766 847 1745 c 128,-1,81
 878 1724 878 1724 896 1692 c 0,82,83
 917 1654 917 1654 917 1614 c 0,84,85
 917 1585 917 1585 904.5 1559 c 128,-1,86
 892 1533 892 1533 864 1518 c 0,87,88
 854 1512 854 1512 818.5 1503 c 128,-1,89
 783 1494 783 1494 736 1483.5 c 128,-1,90
 689 1473 689 1473 637.5 1462.5 c 128,-1,91
 586 1452 586 1452 545 1444 c 1,92,93
 586 1436 586 1436 637.5 1426 c 128,-1,94
 689 1416 689 1416 736 1405.5 c 128,-1,95
 783 1395 783 1395 818.5 1386 c 128,-1,96
 854 1377 854 1377 864 1372 c 0,97,98
 892 1356 892 1356 905 1330 c 128,-1,99
 918 1304 918 1304 918 1275 c 0,100,101
 918 1236 918 1236 896 1198 c 0,102,103
 877 1166 877 1166 847 1145 c 128,-1,104
 817 1124 817 1124 783 1124 c 0,105,106
 755 1124 755 1124 730 1139 c 0,107,108
 721 1145 721 1145 695 1171 c 128,-1,109
 669 1197 669 1197 636.5 1232.5 c 128,-1,110
 604 1268 604 1268 569.5 1307 c 128,-1,111
 535 1346 535 1346 507 1378 c 1,112,113
 521 1338 521 1338 538 1288.5 c 128,-1,114
 555 1239 555 1239 569.5 1193 c 128,-1,115
 584 1147 584 1147 594 1111.5 c 128,-1,116
 604 1076 604 1076 604 1065 c 0,117,118
 604 1038 604 1038 592.5 1017 c 128,-1,119
 581 996 581 996 561.5 981 c 128,-1,120
 542 966 542 966 517.5 958 c 128,-1,121
 493 950 493 950 468 950 c 0,0,1
EndSplineSet
EndChar

StartChar: plus
Encoding: 43 43 14
Width: 1294
Flags: W
LayerCount: 2
Fore
SplineSet
526 609 m 1,0,-1
 143 609 l 1,1,-1
 143 851 l 1,2,-1
 526 851 l 1,3,-1
 526 1234 l 1,4,-1
 768 1234 l 1,5,-1
 768 851 l 1,6,-1
 1151 851 l 1,7,-1
 1151 609 l 1,8,-1
 768 609 l 1,9,-1
 768 227 l 1,10,-1
 526 227 l 1,11,-1
 526 609 l 1,0,-1
EndSplineSet
EndChar

StartChar: comma
Encoding: 44 44 15
Width: 748
Flags: W
LayerCount: 2
Fore
SplineSet
120 203 m 0,0,1
 121 258 121 258 138.5 305 c 128,-1,2
 156 352 156 352 188.5 386.5 c 128,-1,3
 221 421 221 421 267 440.5 c 128,-1,4
 313 460 313 460 370 460 c 256,5,6
 427 460 427 460 474 440 c 128,-1,7
 521 420 521 420 555.5 383 c 128,-1,8
 590 346 590 346 609 294.5 c 128,-1,9
 628 243 628 243 628 180 c 0,10,11
 628 20 628 20 555 -110.5 c 128,-1,12
 482 -241 482 -241 339 -337 c 1,13,-1
 235 -278 l 1,14,15
 286 -217 286 -217 319.5 -154.5 c 128,-1,16
 353 -92 353 -92 371 -31 c 1,17,18
 366 -32 366 -32 351 -32 c 0,19,20
 303 -32 303 -32 260.5 -14.5 c 128,-1,21
 218 3 218 3 187 34.5 c 128,-1,22
 156 66 156 66 138 109 c 128,-1,23
 120 152 120 152 120 203 c 0,0,1
EndSplineSet
EndChar

StartChar: hyphen
Encoding: 45 45 16
Width: 1294
Flags: W
LayerCount: 2
Fore
SplineSet
143 851 m 1,0,-1
 1151 851 l 1,1,-1
 1151 609 l 1,2,-1
 143 609 l 1,3,-1
 143 851 l 1,0,-1
EndSplineSet
EndChar

StartChar: period
Encoding: 46 46 17
Width: 739
Flags: W
LayerCount: 2
Fore
SplineSet
120 210 m 256,0,1
 120 262 120 262 139.5 307.5 c 128,-1,2
 159 353 159 353 192.5 387 c 128,-1,3
 226 421 226 421 271.5 440.5 c 128,-1,4
 317 460 317 460 369 460 c 256,5,6
 421 460 421 460 466.5 440.5 c 128,-1,7
 512 421 512 421 546 387 c 128,-1,8
 580 353 580 353 599.5 307.5 c 128,-1,9
 619 262 619 262 619 210 c 256,10,11
 619 158 619 158 599.5 112.5 c 128,-1,12
 580 67 580 67 546 33.5 c 128,-1,13
 512 0 512 0 466.5 -19.5 c 128,-1,14
 421 -39 421 -39 369 -39 c 256,15,16
 317 -39 317 -39 271.5 -19.5 c 128,-1,17
 226 0 226 0 192.5 33.5 c 128,-1,18
 159 67 159 67 139.5 112.5 c 128,-1,19
 120 158 120 158 120 210 c 256,0,1
EndSplineSet
EndChar

StartChar: slash
Encoding: 47 47 18
Width: 910
Flags: W
LayerCount: 2
Fore
SplineSet
551 1569 m 1,0,-1
 822 1569 l 1,1,-1
 357 -151 l 1,2,-1
 88 -151 l 1,3,-1
 551 1569 l 1,0,-1
EndSplineSet
EndChar

StartChar: zero
Encoding: 48 48 19
Width: 2026
Flags: W
LayerCount: 2
Fore
SplineSet
140 717 m 0,0,1
 140 849 140 849 175.5 956 c 128,-1,2
 211 1063 211 1063 273.5 1147 c 128,-1,3
 336 1231 336 1231 420 1292 c 128,-1,4
 504 1353 504 1353 600.5 1393 c 128,-1,5
 697 1433 697 1433 802.5 1452.5 c 128,-1,6
 908 1472 908 1472 1012 1472 c 256,7,8
 1116 1472 1116 1472 1221.5 1452.5 c 128,-1,9
 1327 1433 1327 1433 1424 1393 c 128,-1,10
 1521 1353 1521 1353 1605.5 1292 c 128,-1,11
 1690 1231 1690 1231 1752.5 1147 c 128,-1,12
 1815 1063 1815 1063 1850.5 956 c 128,-1,13
 1886 849 1886 849 1886 717 c 256,14,15
 1886 585 1886 585 1850.5 478 c 128,-1,16
 1815 371 1815 371 1752.5 287 c 128,-1,17
 1690 203 1690 203 1605.5 141.5 c 128,-1,18
 1521 80 1521 80 1424 40 c 128,-1,19
 1327 0 1327 0 1221.5 -19.5 c 128,-1,20
 1116 -39 1116 -39 1012 -39 c 256,21,22
 908 -39 908 -39 802.5 -20 c 128,-1,23
 697 -1 697 -1 600.5 38 c 128,-1,24
 504 77 504 77 420 138 c 128,-1,25
 336 199 336 199 273.5 283 c 128,-1,26
 211 367 211 367 175.5 475 c 128,-1,27
 140 583 140 583 140 717 c 0,0,1
708 717 m 0,28,29
 708 599 708 599 726.5 498.5 c 128,-1,30
 745 398 745 398 782.5 324 c 128,-1,31
 820 250 820 250 877 208 c 128,-1,32
 934 166 934 166 1012 166 c 256,33,34
 1090 166 1090 166 1147.5 209 c 128,-1,35
 1205 252 1205 252 1243 326 c 128,-1,36
 1281 400 1281 400 1299.5 500.5 c 128,-1,37
 1318 601 1318 601 1318 717 c 0,38,39
 1318 834 1318 834 1300.5 936.5 c 128,-1,40
 1283 1039 1283 1039 1246 1114.5 c 128,-1,41
 1209 1190 1209 1190 1151 1233.5 c 128,-1,42
 1093 1277 1093 1277 1012 1277 c 0,43,44
 934 1277 934 1277 877 1233.5 c 128,-1,45
 820 1190 820 1190 782.5 1114.5 c 128,-1,46
 745 1039 745 1039 726.5 936.5 c 128,-1,47
 708 834 708 834 708 717 c 0,28,29
EndSplineSet
EndChar

StartChar: one
Encoding: 49 49 20
Width: 1135
Flags: W
LayerCount: 2
Fore
SplineSet
342 244 m 1,0,-1
 342 1080 l 1,1,-1
 60 1244 l 1,2,-1
 670 1434 l 1,3,-1
 849 1434 l 1,4,-1
 849 244 l 1,5,-1
 1120 0 l 1,6,-1
 71 0 l 1,7,-1
 342 244 l 1,0,-1
EndSplineSet
EndChar

StartChar: two
Encoding: 50 50 21
Width: 1906
Flags: W
LayerCount: 2
Fore
SplineSet
204 0 m 1,0,1
 181 55 181 55 165.5 113 c 128,-1,2
 150 171 150 171 150 241 c 0,3,4
 150 336 150 336 180 406 c 128,-1,5
 210 476 210 476 262 527.5 c 128,-1,6
 314 579 314 579 383 615.5 c 128,-1,7
 452 652 452 652 529.5 678 c 128,-1,8
 607 704 607 704 688.5 724 c 128,-1,9
 770 744 770 744 847.5 763 c 128,-1,10
 925 782 925 782 994 803 c 128,-1,11
 1063 824 1063 824 1115 853 c 128,-1,12
 1167 882 1167 882 1197 922 c 128,-1,13
 1227 962 1227 962 1227 1019 c 0,14,15
 1227 1080 1227 1080 1204 1125 c 128,-1,16
 1181 1170 1181 1170 1140.5 1199.5 c 128,-1,17
 1100 1229 1100 1229 1046 1243.5 c 128,-1,18
 992 1258 992 1258 929 1258 c 0,19,20
 858 1258 858 1258 800 1240 c 128,-1,21
 742 1222 742 1222 700.5 1184 c 128,-1,22
 659 1146 659 1146 636 1086.5 c 128,-1,23
 613 1027 613 1027 613 944 c 1,24,-1
 186 944 l 1,25,26
 182 968 182 968 180 991 c 128,-1,27
 178 1014 178 1014 178 1036 c 0,28,29
 178 1124 178 1124 209.5 1191 c 128,-1,30
 241 1258 241 1258 296.5 1306.5 c 128,-1,31
 352 1355 352 1355 427.5 1387 c 128,-1,32
 503 1419 503 1419 591.5 1438 c 128,-1,33
 680 1457 680 1457 777.5 1464.5 c 128,-1,34
 875 1472 875 1472 975 1472 c 0,35,36
 1178 1472 1178 1472 1326.5 1441 c 128,-1,37
 1475 1410 1475 1410 1571.5 1350.5 c 128,-1,38
 1668 1291 1668 1291 1714.5 1205.5 c 128,-1,39
 1761 1120 1761 1120 1761 1011 c 0,40,41
 1761 912 1761 912 1713.5 840.5 c 128,-1,42
 1666 769 1666 769 1587.5 717.5 c 128,-1,43
 1509 666 1509 666 1409.5 630 c 128,-1,44
 1310 594 1310 594 1205.5 566 c 128,-1,45
 1101 538 1101 538 1001.5 514 c 128,-1,46
 902 490 902 490 823.5 461.5 c 128,-1,47
 745 433 745 433 697.5 396 c 128,-1,48
 650 359 650 359 650 306 c 0,49,50
 650 296 650 296 651 285 c 128,-1,51
 652 274 652 274 654 264 c 1,52,-1
 1322 264 l 1,53,-1
 1727 619 l 1,54,-1
 1727 0 l 1,55,-1
 204 0 l 1,0,1
EndSplineSet
EndChar

StartChar: three
Encoding: 51 51 22
Width: 1983
Flags: W
LayerCount: 2
Fore
SplineSet
140 385 m 0,0,1
 140 409 140 409 141.5 435.5 c 128,-1,2
 143 462 143 462 148 489 c 1,3,-1
 614 489 l 1,4,5
 614 406 614 406 644.5 345 c 128,-1,6
 675 284 675 284 728.5 244 c 128,-1,7
 782 204 782 204 853.5 184 c 128,-1,8
 925 164 925 164 1006 164 c 0,9,10
 1072 164 1072 164 1128 176.5 c 128,-1,11
 1184 189 1184 189 1224.5 217 c 128,-1,12
 1265 245 1265 245 1287.5 288 c 128,-1,13
 1310 331 1310 331 1310 393 c 0,14,15
 1310 470 1310 470 1273 516.5 c 128,-1,16
 1236 563 1236 563 1170 588 c 128,-1,17
 1104 613 1104 613 1012.5 621 c 128,-1,18
 921 629 921 629 811 629 c 1,19,-1
 838 789 l 1,20,21
 922 789 922 789 992.5 800.5 c 128,-1,22
 1063 812 1063 812 1113 839 c 128,-1,23
 1163 866 1163 866 1191 910 c 128,-1,24
 1219 954 1219 954 1219 1019 c 0,25,26
 1219 1143 1219 1143 1147.5 1205.5 c 128,-1,27
 1076 1268 1076 1268 952 1268 c 0,28,29
 819 1268 819 1268 747 1192.5 c 128,-1,30
 675 1117 675 1117 675 954 c 1,31,-1
 214 954 l 1,32,33
 209 964 209 964 206.5 989 c 128,-1,34
 204 1014 204 1014 204 1036 c 0,35,36
 204 1120 204 1120 237.5 1185.5 c 128,-1,37
 271 1251 271 1251 328 1299.5 c 128,-1,38
 385 1348 385 1348 460.5 1381 c 128,-1,39
 536 1414 536 1414 619 1434 c 128,-1,40
 702 1454 702 1454 788.5 1463 c 128,-1,41
 875 1472 875 1472 954 1472 c 0,42,43
 1164 1472 1164 1472 1320 1442.5 c 128,-1,44
 1476 1413 1476 1413 1579 1356.5 c 128,-1,45
 1682 1300 1682 1300 1732.5 1217.5 c 128,-1,46
 1783 1135 1783 1135 1783 1028 c 0,47,48
 1783 977 1783 977 1764 936.5 c 128,-1,49
 1745 896 1745 896 1712 864.5 c 128,-1,50
 1679 833 1679 833 1635.5 809.5 c 128,-1,51
 1592 786 1592 786 1543 770 c 128,-1,52
 1494 754 1494 754 1442 744 c 128,-1,53
 1390 734 1390 734 1342 730 c 1,54,55
 1395 730 1395 730 1455 725 c 128,-1,56
 1515 720 1515 720 1574 707.5 c 128,-1,57
 1633 695 1633 695 1687 672 c 128,-1,58
 1741 649 1741 649 1782.5 613 c 128,-1,59
 1824 577 1824 577 1848.5 525.5 c 128,-1,60
 1873 474 1873 474 1873 405 c 0,61,62
 1873 301 1873 301 1808.5 218.5 c 128,-1,63
 1744 136 1744 136 1624 79 c 128,-1,64
 1504 22 1504 22 1334 -8.5 c 128,-1,65
 1164 -39 1164 -39 954 -39 c 0,66,67
 857 -39 857 -39 758.5 -30.5 c 128,-1,68
 660 -22 660 -22 569.5 -2 c 128,-1,69
 479 18 479 18 400.5 50 c 128,-1,70
 322 82 322 82 264 129 c 128,-1,71
 206 176 206 176 173 239.5 c 128,-1,72
 140 303 140 303 140 385 c 0,0,1
EndSplineSet
EndChar

StartChar: four
Encoding: 52 52 23
Width: 1959
Flags: W
LayerCount: 2
Fore
SplineSet
20 522 m 1,0,-1
 899 1434 l 1,1,-1
 1498 1434 l 1,2,-1
 1498 617 l 1,3,-1
 1889 617 l 1,4,-1
 1889 365 l 1,5,-1
 1498 365 l 1,6,-1
 1498 244 l 1,7,-1
 1769 0 l 1,8,-1
 720 0 l 1,9,-1
 991 244 l 1,10,-1
 991 365 l 1,11,-1
 20 365 l 1,12,-1
 20 522 l 1,0,-1
991 617 m 1,13,-1
 991 1108 l 1,14,-1
 443 617 l 1,15,-1
 991 617 l 1,13,-1
EndSplineSet
EndChar

StartChar: five
Encoding: 53 53 24
Width: 1962
Flags: W
LayerCount: 2
Fore
SplineSet
160 359 m 0,0,1
 160 371 160 371 161.5 383.5 c 128,-1,2
 163 396 163 396 165 408 c 1,3,-1
 654 465 l 1,4,5
 640 451 640 451 633 428 c 128,-1,6
 626 405 626 405 626 379 c 0,7,8
 626 341 626 341 643 298.5 c 128,-1,9
 660 256 660 256 697 220.5 c 128,-1,10
 734 185 734 185 793 162 c 128,-1,11
 852 139 852 139 937 139 c 0,12,13
 1014 139 1014 139 1077 156.5 c 128,-1,14
 1140 174 1140 174 1184.5 210 c 128,-1,15
 1229 246 1229 246 1253.5 300.5 c 128,-1,16
 1278 355 1278 355 1278 429 c 0,17,18
 1278 511 1278 511 1249.5 567 c 128,-1,19
 1221 623 1221 623 1171.5 657 c 128,-1,20
 1122 691 1122 691 1054 705.5 c 128,-1,21
 986 720 986 720 908 720 c 256,22,23
 830 720 830 720 756.5 705.5 c 128,-1,24
 683 691 683 691 618 669 c 128,-1,25
 553 647 553 647 499 620.5 c 128,-1,26
 445 594 445 594 405 570 c 1,27,-1
 202 655 l 1,28,-1
 282 1434 l 1,29,30
 358 1430 358 1430 463.5 1425.5 c 128,-1,31
 569 1421 569 1421 690.5 1417.5 c 128,-1,32
 812 1414 812 1414 944 1412 c 128,-1,33
 1076 1410 1076 1410 1205 1410 c 0,34,35
 1293 1410 1293 1410 1377 1411 c 128,-1,36
 1461 1412 1461 1412 1533.5 1415 c 128,-1,37
 1606 1418 1606 1418 1663.5 1422.5 c 128,-1,38
 1721 1427 1721 1427 1758 1434 c 1,39,40
 1763 1417 1763 1417 1765.5 1399 c 128,-1,41
 1768 1381 1768 1381 1768 1362 c 0,42,43
 1768 1271 1768 1271 1750 1211.5 c 128,-1,44
 1732 1152 1732 1152 1690.5 1116.5 c 128,-1,45
 1649 1081 1649 1081 1581.5 1067 c 128,-1,46
 1514 1053 1514 1053 1415 1053 c 0,47,48
 1277 1053 1277 1053 1159 1072 c 128,-1,49
 1041 1091 1041 1091 933.5 1113.5 c 128,-1,50
 826 1136 826 1136 724.5 1155 c 128,-1,51
 623 1174 623 1174 517 1174 c 1,52,53
 517 1173 517 1173 515 1155 c 128,-1,54
 513 1137 513 1137 510 1108 c 128,-1,55
 507 1079 507 1079 503 1041.5 c 128,-1,56
 499 1004 499 1004 494.5 963.5 c 128,-1,57
 490 923 490 923 486 883 c 128,-1,58
 482 843 482 843 478 809 c 1,59,60
 534 837 534 837 610 862 c 128,-1,61
 686 887 686 887 771 905.5 c 128,-1,62
 856 924 856 924 946 934.5 c 128,-1,63
 1036 945 1036 945 1121 945 c 0,64,65
 1203 945 1203 945 1289.5 937.5 c 128,-1,66
 1376 930 1376 930 1458 910 c 128,-1,67
 1540 890 1540 890 1612.5 856.5 c 128,-1,68
 1685 823 1685 823 1739.5 771.5 c 128,-1,69
 1794 720 1794 720 1825.5 648 c 128,-1,70
 1857 576 1857 576 1857 480 c 0,71,72
 1857 352 1857 352 1787.5 255 c 128,-1,73
 1718 158 1718 158 1595.5 93 c 128,-1,74
 1473 28 1473 28 1305 -5.5 c 128,-1,75
 1137 -39 1137 -39 941 -39 c 0,76,77
 773 -39 773 -39 630 -14 c 128,-1,78
 487 11 487 11 382.5 60.5 c 128,-1,79
 278 110 278 110 219 185 c 128,-1,80
 160 260 160 260 160 359 c 0,0,1
EndSplineSet
EndChar

StartChar: six
Encoding: 54 54 25
Width: 1935
Flags: W
LayerCount: 2
Fore
SplineSet
140 693 m 0,0,1
 140 859 140 859 196 1001.5 c 128,-1,2
 252 1144 252 1144 364.5 1248.5 c 128,-1,3
 477 1353 477 1353 646.5 1412.5 c 128,-1,4
 816 1472 816 1472 1044 1472 c 0,5,6
 1131 1472 1131 1472 1218 1464.5 c 128,-1,7
 1305 1457 1305 1457 1384.5 1441.5 c 128,-1,8
 1464 1426 1464 1426 1532.5 1400.5 c 128,-1,9
 1601 1375 1601 1375 1651 1339 c 128,-1,10
 1701 1303 1701 1303 1729.5 1255.5 c 128,-1,11
 1758 1208 1758 1208 1758 1148 c 0,12,13
 1758 1133 1758 1133 1755 1116.5 c 128,-1,14
 1752 1100 1752 1100 1747 1086 c 1,15,-1
 1351 1027 l 1,16,17
 1355 1045 1355 1045 1357.5 1061 c 128,-1,18
 1360 1077 1360 1077 1360 1097 c 0,19,20
 1360 1123 1360 1123 1342 1153 c 128,-1,21
 1324 1183 1324 1183 1285 1208 c 128,-1,22
 1246 1233 1246 1233 1185 1249.5 c 128,-1,23
 1124 1266 1124 1266 1037 1266 c 0,24,25
 936 1266 936 1266 866 1238.5 c 128,-1,26
 796 1211 796 1211 752 1156.5 c 128,-1,27
 708 1102 708 1102 688.5 1021 c 128,-1,28
 669 940 669 940 669 833 c 1,29,30
 716 854 716 854 772 870.5 c 128,-1,31
 828 887 828 887 890.5 898 c 128,-1,32
 953 909 953 909 1019 915 c 128,-1,33
 1085 921 1085 921 1153 921 c 0,34,35
 1234 921 1234 921 1315.5 910.5 c 128,-1,36
 1397 900 1397 900 1471.5 877 c 128,-1,37
 1546 854 1546 854 1611 819 c 128,-1,38
 1676 784 1676 784 1723.5 735.5 c 128,-1,39
 1771 687 1771 687 1798.5 624 c 128,-1,40
 1826 561 1826 561 1826 483 c 0,41,42
 1826 388 1826 388 1795 312 c 128,-1,43
 1764 236 1764 236 1708.5 178 c 128,-1,44
 1653 120 1653 120 1576.5 79 c 128,-1,45
 1500 38 1500 38 1409.5 11.5 c 128,-1,46
 1319 -15 1319 -15 1217.5 -27 c 128,-1,47
 1116 -39 1116 -39 1011 -39 c 0,48,49
 569 -39 569 -39 354.5 143.5 c 128,-1,50
 140 326 140 326 140 693 c 0,0,1
673 629 m 1,51,52
 676 526 676 526 696.5 441 c 128,-1,53
 717 356 717 356 757.5 295 c 128,-1,54
 798 234 798 234 860.5 200 c 128,-1,55
 923 166 923 166 1011 166 c 0,56,57
 1158 166 1158 166 1228 240 c 128,-1,58
 1298 314 1298 314 1298 443 c 0,59,60
 1298 504 1298 504 1278.5 552.5 c 128,-1,61
 1259 601 1259 601 1222 634.5 c 128,-1,62
 1185 668 1185 668 1131.5 686 c 128,-1,63
 1078 704 1078 704 1011 704 c 0,64,65
 931 704 931 704 844 684 c 128,-1,66
 757 664 757 664 673 629 c 1,51,52
EndSplineSet
EndChar

StartChar: seven
Encoding: 55 55 26
Width: 1791
Flags: W
LayerCount: 2
Fore
SplineSet
435 98 m 0,0,1
 435 189 435 189 472 272.5 c 128,-1,2
 509 356 509 356 569 433.5 c 128,-1,3
 629 511 629 511 706.5 582.5 c 128,-1,4
 784 654 784 654 865 721.5 c 128,-1,5
 946 789 946 789 1024.5 853.5 c 128,-1,6
 1103 918 1103 918 1165 980.5 c 128,-1,7
 1227 1043 1227 1043 1266.5 1104 c 128,-1,8
 1306 1165 1306 1165 1309 1227 c 1,9,-1
 595 1171 l 1,10,-1
 170 791 l 1,11,-1
 200 1479 l 1,12,-1
 434 1434 l 1,13,-1
 1666 1434 l 1,14,15
 1681 1380 1681 1380 1681 1325 c 0,16,17
 1681 1250 1681 1250 1656 1174.5 c 128,-1,18
 1631 1099 1631 1099 1590.5 1023.5 c 128,-1,19
 1550 948 1550 948 1498.5 872.5 c 128,-1,20
 1447 797 1447 797 1393 722.5 c 128,-1,21
 1339 648 1339 648 1287 573.5 c 128,-1,22
 1235 499 1235 499 1194.5 426 c 128,-1,23
 1154 353 1154 353 1129.5 282 c 128,-1,24
 1105 211 1105 211 1105 141 c 0,25,26
 1105 88 1105 88 1122 57 c 128,-1,27
 1139 26 1139 26 1177 0 c 1,28,-1
 459 0 l 1,29,30
 446 24 446 24 440.5 44.5 c 128,-1,31
 435 65 435 65 435 98 c 0,0,1
EndSplineSet
EndChar

StartChar: eight
Encoding: 56 56 27
Width: 1878
Flags: W
LayerCount: 2
Fore
SplineSet
100 351 m 0,0,1
 100 421 100 421 134 474 c 128,-1,2
 168 527 168 527 224.5 565.5 c 128,-1,3
 281 604 281 604 354.5 629 c 128,-1,4
 428 654 428 654 507 668 c 1,5,6
 437 697 437 697 376.5 733 c 128,-1,7
 316 769 316 769 271.5 815 c 128,-1,8
 227 861 227 861 201.5 918 c 128,-1,9
 176 975 176 975 176 1046 c 0,10,11
 176 1126 176 1126 208 1188.5 c 128,-1,12
 240 1251 240 1251 295 1298.5 c 128,-1,13
 350 1346 350 1346 424 1379 c 128,-1,14
 498 1412 498 1412 582 1432.5 c 128,-1,15
 666 1453 666 1453 756 1462.5 c 128,-1,16
 846 1472 846 1472 933 1472 c 0,17,18
 1089 1472 1089 1472 1225 1449.5 c 128,-1,19
 1361 1427 1361 1427 1461.5 1382 c 128,-1,20
 1562 1337 1562 1337 1620 1268 c 128,-1,21
 1678 1199 1678 1199 1678 1106 c 0,22,23
 1678 1051 1678 1051 1655 1006 c 128,-1,24
 1632 961 1632 961 1591.5 925.5 c 128,-1,25
 1551 890 1551 890 1495.5 864 c 128,-1,26
 1440 838 1440 838 1374 821 c 1,27,28
 1456 799 1456 799 1529 767.5 c 128,-1,29
 1602 736 1602 736 1657.5 689 c 128,-1,30
 1713 642 1713 642 1745.5 577 c 128,-1,31
 1778 512 1778 512 1778 422 c 0,32,33
 1778 300 1778 300 1716.5 213 c 128,-1,34
 1655 126 1655 126 1543.5 69.5 c 128,-1,35
 1432 13 1432 13 1275.5 -13.5 c 128,-1,36
 1119 -40 1119 -40 929 -40 c 0,37,38
 735 -40 735 -40 581.5 -11 c 128,-1,39
 428 18 428 18 321 70 c 128,-1,40
 214 122 214 122 157 194 c 128,-1,41
 100 266 100 266 100 351 c 0,0,1
691 1079 m 0,42,43
 691 1030 691 1030 726 997.5 c 128,-1,44
 761 965 761 965 820 942.5 c 128,-1,45
 879 920 879 920 957 904.5 c 128,-1,46
 1035 889 1035 889 1121 874 c 1,47,48
 1293 921 1293 921 1293 1075 c 0,49,50
 1293 1129 1293 1129 1262.5 1165 c 128,-1,51
 1232 1201 1232 1201 1185.5 1222.5 c 128,-1,52
 1139 1244 1139 1244 1084 1252.5 c 128,-1,53
 1029 1261 1029 1261 979 1261 c 0,54,55
 916 1261 916 1261 863 1247.5 c 128,-1,56
 810 1234 810 1234 771.5 1209.5 c 128,-1,57
 733 1185 733 1185 712 1151.5 c 128,-1,58
 691 1118 691 1118 691 1079 c 0,42,43
528 420 m 0,59,60
 528 365 528 365 564 320.5 c 128,-1,61
 600 276 600 276 660 244.5 c 128,-1,62
 720 213 720 213 798.5 196 c 128,-1,63
 877 179 877 179 962 179 c 0,64,65
 1045 179 1045 179 1112 187.5 c 128,-1,66
 1179 196 1179 196 1226 216.5 c 128,-1,67
 1273 237 1273 237 1298 269.5 c 128,-1,68
 1323 302 1323 302 1323 350 c 0,69,70
 1323 381 1323 381 1298.5 406 c 128,-1,71
 1274 431 1274 431 1230.5 452 c 128,-1,72
 1187 473 1187 473 1128.5 490.5 c 128,-1,73
 1070 508 1070 508 1002 525 c 128,-1,74
 934 542 934 542 859.5 560 c 128,-1,75
 785 578 785 578 710 599 c 1,76,77
 670 587 670 587 636.5 569 c 128,-1,78
 603 551 603 551 579 528.5 c 128,-1,79
 555 506 555 506 541.5 478.5 c 128,-1,80
 528 451 528 451 528 420 c 0,59,60
EndSplineSet
EndChar

StartChar: nine
Encoding: 57 57 28
Width: 1935
Flags: W
LayerCount: 2
Fore
SplineSet
177 285 m 0,0,1
 177 300 177 300 180 316.5 c 128,-1,2
 183 333 183 333 188 347 c 1,3,-1
 584 406 l 1,4,5
 580 388 580 388 577.5 372 c 128,-1,6
 575 356 575 356 575 336 c 0,7,8
 575 310 575 310 593 280 c 128,-1,9
 611 250 611 250 650 225 c 128,-1,10
 689 200 689 200 750 183.5 c 128,-1,11
 811 167 811 167 898 167 c 0,12,13
 999 167 999 167 1069 194.5 c 128,-1,14
 1139 222 1139 222 1183 276.5 c 128,-1,15
 1227 331 1227 331 1246.5 412 c 128,-1,16
 1266 493 1266 493 1266 600 c 1,17,18
 1219 579 1219 579 1163 562.5 c 128,-1,19
 1107 546 1107 546 1044.5 535 c 128,-1,20
 982 524 982 524 915.5 518 c 128,-1,21
 849 512 849 512 782 512 c 0,22,23
 701 512 701 512 619.5 522.5 c 128,-1,24
 538 533 538 533 463.5 556 c 128,-1,25
 389 579 389 579 324 614 c 128,-1,26
 259 649 259 649 211.5 697.5 c 128,-1,27
 164 746 164 746 136.5 809 c 128,-1,28
 109 872 109 872 109 950 c 0,29,30
 109 1045 109 1045 140 1121 c 128,-1,31
 171 1197 171 1197 226.5 1255 c 128,-1,32
 282 1313 282 1313 358.5 1354 c 128,-1,33
 435 1395 435 1395 525.5 1421.5 c 128,-1,34
 616 1448 616 1448 717.5 1460 c 128,-1,35
 819 1472 819 1472 924 1472 c 0,36,37
 1366 1472 1366 1472 1580.5 1289.5 c 128,-1,38
 1795 1107 1795 1107 1795 740 c 0,39,40
 1795 574 1795 574 1739 431.5 c 128,-1,41
 1683 289 1683 289 1570.5 184.5 c 128,-1,42
 1458 80 1458 80 1288.5 20.5 c 128,-1,43
 1119 -39 1119 -39 891 -39 c 0,44,45
 803 -39 803 -39 716.5 -31.5 c 128,-1,46
 630 -24 630 -24 550.5 -8.5 c 128,-1,47
 471 7 471 7 402.5 32.5 c 128,-1,48
 334 58 334 58 284 94 c 128,-1,49
 234 130 234 130 205.5 177.5 c 128,-1,50
 177 225 177 225 177 285 c 0,0,1
924 729 m 0,51,52
 1004 729 1004 729 1091 749 c 128,-1,53
 1178 769 1178 769 1262 804 c 1,54,55
 1259 907 1259 907 1238.5 992 c 128,-1,56
 1218 1077 1218 1077 1177.5 1138 c 128,-1,57
 1137 1199 1137 1199 1074.5 1233 c 128,-1,58
 1012 1267 1012 1267 924 1267 c 0,59,60
 777 1267 777 1267 707 1193 c 128,-1,61
 637 1119 637 1119 637 990 c 0,62,63
 637 929 637 929 656.5 880.5 c 128,-1,64
 676 832 676 832 713 798.5 c 128,-1,65
 750 765 750 765 803.5 747 c 128,-1,66
 857 729 857 729 924 729 c 0,51,52
EndSplineSet
EndChar

StartChar: colon
Encoding: 58 58 29
Width: 739
Flags: W
LayerCount: 2
Fore
SplineSet
369 647 m 256,0,1
 317 647 317 647 271.5 666.5 c 128,-1,2
 226 686 226 686 192.5 719.5 c 128,-1,3
 159 753 159 753 139.5 798.5 c 128,-1,4
 120 844 120 844 120 896 c 256,5,6
 120 948 120 948 139.5 993.5 c 128,-1,7
 159 1039 159 1039 192.5 1073 c 128,-1,8
 226 1107 226 1107 271.5 1126.5 c 128,-1,9
 317 1146 317 1146 369 1146 c 256,10,11
 421 1146 421 1146 466.5 1126.5 c 128,-1,12
 512 1107 512 1107 546 1073 c 128,-1,13
 580 1039 580 1039 599.5 993.5 c 128,-1,14
 619 948 619 948 619 896 c 256,15,16
 619 844 619 844 599.5 798.5 c 128,-1,17
 580 753 580 753 546 719.5 c 128,-1,18
 512 686 512 686 466.5 666.5 c 128,-1,19
 421 647 421 647 369 647 c 256,0,1
120 210 m 256,20,21
 120 262 120 262 139.5 307.5 c 128,-1,22
 159 353 159 353 192.5 387 c 128,-1,23
 226 421 226 421 271.5 440.5 c 128,-1,24
 317 460 317 460 369 460 c 256,25,26
 421 460 421 460 466.5 440.5 c 128,-1,27
 512 421 512 421 546 387 c 128,-1,28
 580 353 580 353 599.5 307.5 c 128,-1,29
 619 262 619 262 619 210 c 256,30,31
 619 158 619 158 599.5 112.5 c 128,-1,32
 580 67 580 67 546 33.5 c 128,-1,33
 512 0 512 0 466.5 -19.5 c 128,-1,34
 421 -39 421 -39 369 -39 c 256,35,36
 317 -39 317 -39 271.5 -19.5 c 128,-1,37
 226 0 226 0 192.5 33.5 c 128,-1,38
 159 67 159 67 139.5 112.5 c 128,-1,39
 120 158 120 158 120 210 c 256,20,21
EndSplineSet
EndChar

StartChar: semicolon
Encoding: 59 59 30
Width: 748
Flags: W
LayerCount: 2
Fore
SplineSet
369 647 m 256,0,1
 317 647 317 647 271.5 666.5 c 128,-1,2
 226 686 226 686 192.5 719.5 c 128,-1,3
 159 753 159 753 139.5 798.5 c 128,-1,4
 120 844 120 844 120 896 c 256,5,6
 120 948 120 948 139.5 993.5 c 128,-1,7
 159 1039 159 1039 192.5 1073 c 128,-1,8
 226 1107 226 1107 271.5 1126.5 c 128,-1,9
 317 1146 317 1146 369 1146 c 256,10,11
 421 1146 421 1146 466.5 1126.5 c 128,-1,12
 512 1107 512 1107 546 1073 c 128,-1,13
 580 1039 580 1039 599.5 993.5 c 128,-1,14
 619 948 619 948 619 896 c 256,15,16
 619 844 619 844 599.5 798.5 c 128,-1,17
 580 753 580 753 546 719.5 c 128,-1,18
 512 686 512 686 466.5 666.5 c 128,-1,19
 421 647 421 647 369 647 c 256,0,1
120 203 m 0,20,21
 121 258 121 258 138.5 305 c 128,-1,22
 156 352 156 352 188.5 386.5 c 128,-1,23
 221 421 221 421 267 440.5 c 128,-1,24
 313 460 313 460 370 460 c 256,25,26
 427 460 427 460 474 440 c 128,-1,27
 521 420 521 420 555.5 383 c 128,-1,28
 590 346 590 346 609 294.5 c 128,-1,29
 628 243 628 243 628 180 c 0,30,31
 628 20 628 20 555 -110.5 c 128,-1,32
 482 -241 482 -241 339 -337 c 1,33,-1
 235 -278 l 1,34,35
 286 -217 286 -217 319.5 -154.5 c 128,-1,36
 353 -92 353 -92 371 -31 c 1,37,38
 366 -32 366 -32 351 -32 c 0,39,40
 303 -32 303 -32 260.5 -14.5 c 128,-1,41
 218 3 218 3 187 34.5 c 128,-1,42
 156 66 156 66 138 109 c 128,-1,43
 120 152 120 152 120 203 c 0,20,21
EndSplineSet
EndChar

StartChar: less
Encoding: 60 60 31
Width: 982
Flags: W
LayerCount: 2
Fore
SplineSet
132 730 m 1,0,-1
 668 1266 l 1,1,-1
 839 1094 l 1,2,-1
 475 730 l 1,3,-1
 839 366 l 1,4,-1
 668 195 l 1,5,-1
 132 730 l 1,0,-1
EndSplineSet
EndChar

StartChar: equal
Encoding: 61 61 32
Width: 1294
Flags: W
LayerCount: 2
Fore
SplineSet
143 1071 m 1,0,-1
 1151 1071 l 1,1,-1
 1151 829 l 1,2,-1
 143 829 l 1,3,-1
 143 1071 l 1,0,-1
143 521 m 1,4,-1
 1151 521 l 1,5,-1
 1151 279 l 1,6,-1
 143 279 l 1,7,-1
 143 521 l 1,4,-1
EndSplineSet
EndChar

StartChar: greater
Encoding: 62 62 33
Width: 982
Flags: W
LayerCount: 2
Fore
SplineSet
143 366 m 1,0,-1
 507 730 l 1,1,-1
 143 1094 l 1,2,-1
 314 1266 l 1,3,-1
 850 730 l 1,4,-1
 314 195 l 1,5,-1
 143 366 l 1,0,-1
EndSplineSet
EndChar

StartChar: question
Encoding: 63 63 34
Width: 1766
Flags: W
LayerCount: 2
Fore
SplineSet
690 597 m 1,0,1
 681 620 681 620 677 641.5 c 128,-1,2
 673 663 673 663 673 682 c 0,3,4
 673 728 673 728 695 762.5 c 128,-1,5
 717 797 717 797 752.5 823.5 c 128,-1,6
 788 850 788 850 833.5 871 c 128,-1,7
 879 892 879 892 926.5 910 c 128,-1,8
 974 928 974 928 1019.5 946 c 128,-1,9
 1065 964 1065 964 1100.5 985.5 c 128,-1,10
 1136 1007 1136 1007 1158 1033.5 c 128,-1,11
 1180 1060 1180 1060 1180 1096 c 0,12,13
 1180 1143 1180 1143 1154.5 1178.5 c 128,-1,14
 1129 1214 1129 1214 1087 1238 c 128,-1,15
 1045 1262 1045 1262 990.5 1274 c 128,-1,16
 936 1286 936 1286 878 1286 c 0,17,18
 808 1286 808 1286 743.5 1269.5 c 128,-1,19
 679 1253 679 1253 629.5 1217 c 128,-1,20
 580 1181 580 1181 550.5 1123 c 128,-1,21
 521 1065 521 1065 521 982 c 0,22,23
 521 962 521 962 523.5 940 c 128,-1,24
 526 918 526 918 532 895 c 1,25,-1
 134 972 l 1,26,27
 130 996 130 996 128 1019 c 128,-1,28
 126 1042 126 1042 126 1064 c 0,29,30
 126 1148 126 1148 154 1212.5 c 128,-1,31
 182 1277 182 1277 232.5 1325.5 c 128,-1,32
 283 1374 283 1374 351.5 1407.5 c 128,-1,33
 420 1441 420 1441 501.5 1461.5 c 128,-1,34
 583 1482 583 1482 673.5 1491 c 128,-1,35
 764 1500 764 1500 858 1500 c 0,36,37
 1033 1500 1033 1500 1179.5 1478 c 128,-1,38
 1326 1456 1326 1456 1431.5 1410 c 128,-1,39
 1537 1364 1537 1364 1596 1292 c 128,-1,40
 1655 1220 1655 1220 1655 1121 c 0,41,42
 1655 1051 1655 1051 1628 1000.5 c 128,-1,43
 1601 950 1601 950 1557 913.5 c 128,-1,44
 1513 877 1513 877 1456.5 851.5 c 128,-1,45
 1400 826 1400 826 1341 806 c 128,-1,46
 1282 786 1282 786 1225.5 769.5 c 128,-1,47
 1169 753 1169 753 1125 734 c 128,-1,48
 1081 715 1081 715 1054 691.5 c 128,-1,49
 1027 668 1027 668 1027 634 c 0,50,51
 1027 615 1027 615 1034 597 c 1,52,-1
 690 597 l 1,0,1
621 210 m 256,53,54
 621 262 621 262 640.5 307.5 c 128,-1,55
 660 353 660 353 693.5 387 c 128,-1,56
 727 421 727 421 772.5 440.5 c 128,-1,57
 818 460 818 460 870 460 c 256,58,59
 922 460 922 460 967.5 440.5 c 128,-1,60
 1013 421 1013 421 1047 387 c 128,-1,61
 1081 353 1081 353 1100.5 307.5 c 128,-1,62
 1120 262 1120 262 1120 210 c 256,63,64
 1120 158 1120 158 1100.5 112.5 c 128,-1,65
 1081 67 1081 67 1047 33.5 c 128,-1,66
 1013 0 1013 0 967.5 -19.5 c 128,-1,67
 922 -39 922 -39 870 -39 c 256,68,69
 818 -39 818 -39 772.5 -19.5 c 128,-1,70
 727 0 727 0 693.5 33.5 c 128,-1,71
 660 67 660 67 640.5 112.5 c 128,-1,72
 621 158 621 158 621 210 c 256,53,54
EndSplineSet
EndChar

StartChar: at
Encoding: 64 64 35
Width: 2911
Flags: W
LayerCount: 2
Fore
SplineSet
126 381 m 0,0,1
 126 532 126 532 169.5 669 c 128,-1,2
 213 806 213 806 297.5 923 c 128,-1,3
 382 1040 382 1040 505 1134.5 c 128,-1,4
 628 1229 628 1229 786.5 1296 c 128,-1,5
 945 1363 945 1363 1138.5 1399 c 128,-1,6
 1332 1435 1332 1435 1556 1435 c 0,7,8
 1861 1435 1861 1435 2091.5 1377 c 128,-1,9
 2322 1319 2322 1319 2476 1218 c 128,-1,10
 2630 1117 2630 1117 2707.5 980 c 128,-1,11
 2785 843 2785 843 2785 685 c 0,12,13
 2785 533 2785 533 2732.5 409 c 128,-1,14
 2680 285 2680 285 2585.5 197 c 128,-1,15
 2491 109 2491 109 2359.5 60.5 c 128,-1,16
 2228 12 2228 12 2069 12 c 0,17,18
 1884 12 1884 12 1785 51 c 128,-1,19
 1686 90 1686 90 1656 176 c 1,20,21
 1581 93 1581 93 1453.5 48.5 c 128,-1,22
 1326 4 1326 4 1127 4 c 0,23,24
 1026 4 1026 4 936.5 29.5 c 128,-1,25
 847 55 847 55 780.5 106 c 128,-1,26
 714 157 714 157 675 234 c 128,-1,27
 636 311 636 311 636 414 c 0,28,29
 636 522 636 522 675 612.5 c 128,-1,30
 714 703 714 703 781 774.5 c 128,-1,31
 848 846 848 846 938 899.5 c 128,-1,32
 1028 953 1028 953 1130 989 c 128,-1,33
 1232 1025 1232 1025 1340.5 1042.5 c 128,-1,34
 1449 1060 1449 1060 1554 1060 c 0,35,36
 1650 1060 1650 1060 1741.5 1050 c 128,-1,37
 1833 1040 1833 1040 1919.5 1015.5 c 128,-1,38
 2006 991 2006 991 2086.5 950 c 128,-1,39
 2167 909 2167 909 2241 846 c 1,40,-1
 2124 283 l 2,41,42
 2123 278 2123 278 2123 273 c 128,-1,43
 2123 268 2123 268 2123 263 c 0,44,45
 2123 221 2123 221 2150 200 c 128,-1,46
 2177 179 2177 179 2234 179 c 0,47,48
 2321 179 2321 179 2389.5 223.5 c 128,-1,49
 2458 268 2458 268 2505.5 338.5 c 128,-1,50
 2553 409 2553 409 2578 496 c 128,-1,51
 2603 583 2603 583 2603 668 c 0,52,53
 2603 821 2603 821 2525 936.5 c 128,-1,54
 2447 1052 2447 1052 2306.5 1129.5 c 128,-1,55
 2166 1207 2166 1207 1971.5 1246 c 128,-1,56
 1777 1285 1777 1285 1544 1285 c 0,57,58
 1342 1285 1342 1285 1173.5 1252 c 128,-1,59
 1005 1219 1005 1219 870.5 1160 c 128,-1,60
 736 1101 736 1101 635 1019 c 128,-1,61
 534 937 534 937 466.5 838.5 c 128,-1,62
 399 740 399 740 365.5 628.5 c 128,-1,63
 332 517 332 517 332 399 c 0,64,65
 332 245 332 245 391 125.5 c 128,-1,66
 450 6 450 6 581.5 -76 c 128,-1,67
 713 -158 713 -158 922.5 -200.5 c 128,-1,68
 1132 -243 1132 -243 1434 -243 c 0,69,70
 1511 -243 1511 -243 1600.5 -239 c 128,-1,71
 1690 -235 1690 -235 1783 -227 c 128,-1,72
 1876 -219 1876 -219 1969 -207.5 c 128,-1,73
 2062 -196 2062 -196 2146 -181 c 128,-1,74
 2230 -166 2230 -166 2301 -147.5 c 128,-1,75
 2372 -129 2372 -129 2422 -108 c 1,76,-1
 2478 -214 l 1,77,78
 2432 -243 2432 -243 2331 -274.5 c 128,-1,79
 2230 -306 2230 -306 2087 -332 c 128,-1,80
 1944 -358 1944 -358 1766.5 -375 c 128,-1,81
 1589 -392 1589 -392 1390 -392 c 0,82,83
 1049 -392 1049 -392 809 -336.5 c 128,-1,84
 569 -281 569 -281 417 -180 c 128,-1,85
 265 -79 265 -79 195.5 64 c 128,-1,86
 126 207 126 207 126 381 c 0,0,1
1136 409 m 0,87,88
 1136 368 1136 368 1149.5 331 c 128,-1,89
 1163 294 1163 294 1190 266 c 128,-1,90
 1217 238 1217 238 1256.5 221.5 c 128,-1,91
 1296 205 1296 205 1348 205 c 0,92,93
 1391 205 1391 205 1432 216 c 128,-1,94
 1473 227 1473 227 1507.5 247.5 c 128,-1,95
 1542 268 1542 268 1568.5 297.5 c 128,-1,96
 1595 327 1595 327 1609 365 c 0,97,98
 1667 523 1667 523 1691 618.5 c 128,-1,99
 1715 714 1715 714 1715 742 c 0,100,101
 1715 766 1715 766 1702 791 c 128,-1,102
 1689 816 1689 816 1662.5 836.5 c 128,-1,103
 1636 857 1636 857 1596.5 870.5 c 128,-1,104
 1557 884 1557 884 1503 884 c 0,105,106
 1424 884 1424 884 1357 847.5 c 128,-1,107
 1290 811 1290 811 1241 747.5 c 128,-1,108
 1192 684 1192 684 1164 597 c 128,-1,109
 1136 510 1136 510 1136 409 c 0,87,88
EndSplineSet
EndChar

StartChar: A
Encoding: 65 65 36
Width: 2126
Flags: W
LayerCount: 2
Fore
SplineSet
234 251 m 1,0,-1
 705 1189 l 1,1,-1
 495 1434 l 1,2,-1
 1662 1434 l 1,3,-1
 1481 1180 l 1,4,-1
 1903 253 l 1,5,-1
 2166 0 l 1,6,-1
 1116 0 l 1,7,-1
 1334 251 l 1,8,-1
 1291 356 l 1,9,-1
 631 356 l 1,10,-1
 584 251 l 1,11,-1
 871 0 l 1,12,-1
 -60 0 l 1,13,-1
 234 251 l 1,0,-1
1207 565 m 1,14,-1
 978 1129 l 1,15,-1
 725 565 l 1,16,-1
 1207 565 l 1,14,-1
EndSplineSet
EndChar

StartChar: B
Encoding: 66 66 37
Width: 2108
Flags: W
LayerCount: 2
Fore
SplineSet
341 254 m 1,0,-1
 341 1180 l 1,1,-1
 31 1434 l 1,2,3
 104 1435 104 1435 195 1435.5 c 128,-1,4
 286 1436 286 1436 383 1437 c 128,-1,5
 480 1438 480 1438 577 1438.5 c 128,-1,6
 674 1439 674 1439 760 1439.5 c 128,-1,7
 846 1440 846 1440 915 1440.5 c 128,-1,8
 984 1441 984 1441 1025 1441 c 0,9,10
 1120 1441 1120 1441 1224 1437 c 128,-1,11
 1328 1433 1328 1433 1428.5 1419.5 c 128,-1,12
 1529 1406 1529 1406 1619.5 1379.5 c 128,-1,13
 1710 1353 1710 1353 1778.5 1308.5 c 128,-1,14
 1847 1264 1847 1264 1887.5 1198.5 c 128,-1,15
 1928 1133 1928 1133 1928 1041 c 0,16,17
 1928 962 1928 962 1901 907 c 128,-1,18
 1874 852 1874 852 1823 815 c 128,-1,19
 1772 778 1772 778 1698.5 757.5 c 128,-1,20
 1625 737 1625 737 1531 727 c 1,21,22
 1641 716 1641 716 1731 694 c 128,-1,23
 1821 672 1821 672 1884.5 633.5 c 128,-1,24
 1948 595 1948 595 1983 536 c 128,-1,25
 2018 477 2018 477 2018 393 c 0,26,27
 2018 301 2018 301 1977.5 235.5 c 128,-1,28
 1937 170 1937 170 1868.5 125.5 c 128,-1,29
 1800 81 1800 81 1709.5 54.5 c 128,-1,30
 1619 28 1619 28 1518.5 14.5 c 128,-1,31
 1418 1 1418 1 1314 -3 c 128,-1,32
 1210 -7 1210 -7 1115 -7 c 0,33,34
 1070 -7 1070 -7 994.5 -6.5 c 128,-1,35
 919 -6 919 -6 825 -5.5 c 128,-1,36
 731 -5 731 -5 625.5 -4.5 c 128,-1,37
 520 -4 520 -4 414.5 -3 c 128,-1,38
 309 -2 309 -2 209.5 -1.5 c 128,-1,39
 110 -1 110 -1 30 0 c 1,40,-1
 341 254 l 1,0,-1
994 819 m 2,41,42
 1025 819 1025 819 1066 820 c 128,-1,43
 1107 821 1107 821 1151 826.5 c 128,-1,44
 1195 832 1195 832 1237.5 843.5 c 128,-1,45
 1280 855 1280 855 1313.5 876.5 c 128,-1,46
 1347 898 1347 898 1367.5 931 c 128,-1,47
 1388 964 1388 964 1388 1012 c 0,48,49
 1388 1082 1388 1082 1351.5 1124 c 128,-1,50
 1315 1166 1315 1166 1257.5 1188.5 c 128,-1,51
 1200 1211 1200 1211 1130 1218 c 128,-1,52
 1060 1225 1060 1225 994 1225 c 2,53,-1
 868 1225 l 1,54,-1
 868 819 l 1,55,-1
 994 819 l 2,41,42
1064 209 m 2,56,57
 1109 209 1109 209 1157 210.5 c 128,-1,58
 1205 212 1205 212 1251 219 c 128,-1,59
 1297 226 1297 226 1338.5 239.5 c 128,-1,60
 1380 253 1380 253 1411 278 c 128,-1,61
 1442 303 1442 303 1460 340 c 128,-1,62
 1478 377 1478 377 1478 430 c 0,63,64
 1478 487 1478 487 1453 526 c 128,-1,65
 1428 565 1428 565 1376.5 589.5 c 128,-1,66
 1325 614 1325 614 1247 624.5 c 128,-1,67
 1169 635 1169 635 1064 635 c 2,68,-1
 868 635 l 1,69,-1
 868 209 l 1,70,-1
 1064 209 l 2,56,57
EndSplineSet
EndChar

StartChar: C
Encoding: 67 67 38
Width: 2057
Flags: W
LayerCount: 2
Fore
SplineSet
90 717 m 0,0,1
 90 850 90 850 129 958 c 128,-1,2
 168 1066 168 1066 237 1150 c 128,-1,3
 306 1234 306 1234 400 1294.5 c 128,-1,4
 494 1355 494 1355 604.5 1394.5 c 128,-1,5
 715 1434 715 1434 837 1453 c 128,-1,6
 959 1472 959 1472 1084 1472 c 0,7,8
 1176 1472 1176 1472 1258 1461 c 128,-1,9
 1340 1450 1340 1450 1411.5 1431.5 c 128,-1,10
 1483 1413 1483 1413 1543 1389 c 128,-1,11
 1603 1365 1603 1365 1651 1339 c 1,12,-1
 1724 1434 l 1,13,-1
 1933 1434 l 1,14,-1
 1933 926 l 1,15,-1
 1668 876 l 1,16,17
 1644 957 1644 957 1597 1027 c 128,-1,18
 1550 1097 1550 1097 1484 1148 c 128,-1,19
 1418 1199 1418 1199 1334.5 1228.5 c 128,-1,20
 1251 1258 1251 1258 1153 1258 c 0,21,22
 1027 1258 1027 1258 937 1213.5 c 128,-1,23
 847 1169 847 1169 789.5 1094.5 c 128,-1,24
 732 1020 732 1020 705 922 c 128,-1,25
 678 824 678 824 678 717 c 0,26,27
 678 586 678 586 716.5 485 c 128,-1,28
 755 384 755 384 824 315.5 c 128,-1,29
 893 247 893 247 987.5 212 c 128,-1,30
 1082 177 1082 177 1195 177 c 0,31,32
 1283 177 1283 177 1361 199.5 c 128,-1,33
 1439 222 1439 222 1498.5 268.5 c 128,-1,34
 1558 315 1558 315 1595.5 386 c 128,-1,35
 1633 457 1633 457 1641 554 c 1,36,-1
 1947 554 l 1,37,38
 1947 459 1947 459 1916.5 378 c 128,-1,39
 1886 297 1886 297 1830.5 231 c 128,-1,40
 1775 165 1775 165 1697 114.5 c 128,-1,41
 1619 64 1619 64 1523 30 c 128,-1,42
 1427 -4 1427 -4 1316.5 -21.5 c 128,-1,43
 1206 -39 1206 -39 1085 -39 c 0,44,45
 971 -39 971 -39 852.5 -23.5 c 128,-1,46
 734 -8 734 -8 623.5 27 c 128,-1,47
 513 62 513 62 416 119.5 c 128,-1,48
 319 177 319 177 246.5 261 c 128,-1,49
 174 345 174 345 132 458 c 128,-1,50
 90 571 90 571 90 717 c 0,0,1
EndSplineSet
EndChar

StartChar: D
Encoding: 68 68 39
Width: 2154
Flags: W
LayerCount: 2
Fore
SplineSet
341 254 m 1,0,-1
 341 1180 l 1,1,-1
 31 1434 l 1,2,3
 108 1435 108 1435 207 1435.5 c 128,-1,4
 306 1436 306 1436 413.5 1437 c 128,-1,5
 521 1438 521 1438 630.5 1438.5 c 128,-1,6
 740 1439 740 1439 837 1439.5 c 128,-1,7
 934 1440 934 1440 1012 1440.5 c 128,-1,8
 1090 1441 1090 1441 1135 1441 c 0,9,10
 1311 1441 1311 1441 1452 1423 c 128,-1,11
 1593 1405 1593 1405 1700 1362 c 0,12,13
 1795 1324 1795 1324 1864 1263.5 c 128,-1,14
 1933 1203 1933 1203 1977.5 1126 c 128,-1,15
 2022 1049 2022 1049 2043 958 c 128,-1,16
 2064 867 2064 867 2064 767 c 0,17,18
 2064 582 2064 582 1994.5 438 c 128,-1,19
 1925 294 1925 294 1797.5 195 c 128,-1,20
 1670 96 1670 96 1491.5 44.5 c 128,-1,21
 1313 -7 1313 -7 1095 -7 c 0,22,23
 1066 -7 1066 -7 1000.5 -7 c 128,-1,24
 935 -7 935 -7 846.5 -6.5 c 128,-1,25
 758 -6 758 -6 653 -5 c 128,-1,26
 548 -4 548 -4 439 -3.5 c 128,-1,27
 330 -3 330 -3 224.5 -2 c 128,-1,28
 119 -1 119 -1 30 0 c 1,29,-1
 341 254 l 1,0,-1
1064 209 m 2,30,31
 1188 209 1188 209 1271 249 c 128,-1,32
 1354 289 1354 289 1404 361.5 c 128,-1,33
 1454 434 1454 434 1475 534.5 c 128,-1,34
 1496 635 1496 635 1496 757 c 0,35,36
 1496 869 1496 869 1468 956 c 128,-1,37
 1440 1043 1440 1043 1387 1103 c 128,-1,38
 1334 1163 1334 1163 1257.5 1194 c 128,-1,39
 1181 1225 1181 1225 1084 1225 c 2,40,-1
 868 1225 l 1,41,-1
 868 209 l 1,42,-1
 1064 209 l 2,30,31
EndSplineSet
EndChar

StartChar: E
Encoding: 69 69 40
Width: 1987
Flags: W
LayerCount: 2
Fore
SplineSet
311 254 m 1,0,-1
 311 1180 l 1,1,-1
 30 1434 l 1,2,-1
 1847 1434 l 1,3,-1
 1827 938 l 1,4,-1
 1428 1205 l 1,5,-1
 838 1205 l 1,6,-1
 838 874 l 1,7,-1
 1440 874 l 1,8,-1
 1440 654 l 1,9,-1
 838 654 l 1,10,-1
 838 229 l 1,11,-1
 1428 229 l 1,12,-1
 1837 473 l 1,13,-1
 1837 0 l 1,14,-1
 30 0 l 1,15,-1
 311 254 l 1,0,-1
EndSplineSet
EndChar

StartChar: F
Encoding: 70 70 41
Width: 1967
Flags: W
LayerCount: 2
Fore
SplineSet
311 254 m 1,0,-1
 311 1180 l 1,1,-1
 30 1434 l 1,2,-1
 1887 1434 l 1,3,-1
 1867 938 l 1,4,-1
 1468 1205 l 1,5,-1
 838 1205 l 1,6,-1
 838 774 l 1,7,-1
 1480 774 l 1,8,-1
 1480 554 l 1,9,-1
 838 554 l 1,10,-1
 838 254 l 1,11,-1
 1249 0 l 1,12,-1
 30 0 l 1,13,-1
 311 254 l 1,0,-1
EndSplineSet
EndChar

StartChar: G
Encoding: 71 71 42
Width: 2162
Flags: W
LayerCount: 2
Fore
SplineSet
90 689 m 0,0,1
 90 819 90 819 127 928 c 128,-1,2
 164 1037 164 1037 230 1124 c 128,-1,3
 296 1211 296 1211 387.5 1276 c 128,-1,4
 479 1341 479 1341 588.5 1385 c 128,-1,5
 698 1429 698 1429 821 1450.5 c 128,-1,6
 944 1472 944 1472 1074 1472 c 0,7,8
 1152 1472 1152 1472 1230.5 1462 c 128,-1,9
 1309 1452 1309 1452 1383 1434 c 128,-1,10
 1457 1416 1457 1416 1524.5 1391 c 128,-1,11
 1592 1366 1592 1366 1649 1336 c 1,12,-1
 1725 1434 l 1,13,-1
 1949 1434 l 1,14,-1
 1949 946 l 1,15,-1
 1705 946 l 1,16,17
 1659 1012 1659 1012 1597.5 1069 c 128,-1,18
 1536 1126 1536 1126 1463.5 1168 c 128,-1,19
 1391 1210 1391 1210 1310.5 1234 c 128,-1,20
 1230 1258 1230 1258 1145 1258 c 0,21,22
 1052 1258 1052 1258 968 1226 c 128,-1,23
 884 1194 884 1194 821 1128 c 128,-1,24
 758 1062 758 1062 721 960.5 c 128,-1,25
 684 859 684 859 684 720 c 0,26,27
 684 587 684 587 724.5 485.5 c 128,-1,28
 765 384 765 384 833 315.5 c 128,-1,29
 901 247 901 247 991.5 212 c 128,-1,30
 1082 177 1082 177 1182 177 c 0,31,32
 1270 177 1270 177 1334 189.5 c 128,-1,33
 1398 202 1398 202 1450 234 c 1,34,-1
 1450 484 l 1,35,-1
 1159 764 l 1,36,-1
 1962 764 l 1,37,-1
 1962 0 l 1,38,-1
 1725 0 l 1,39,-1
 1670 100 l 1,40,41
 1611 62 1611 62 1544 35.5 c 128,-1,42
 1477 9 1477 9 1404 -7.5 c 128,-1,43
 1331 -24 1331 -24 1254 -31.5 c 128,-1,44
 1177 -39 1177 -39 1098 -39 c 0,45,46
 963 -39 963 -39 835.5 -23 c 128,-1,47
 708 -7 708 -7 596 28.5 c 128,-1,48
 484 64 484 64 391 120.5 c 128,-1,49
 298 177 298 177 231 257.5 c 128,-1,50
 164 338 164 338 127 445 c 128,-1,51
 90 552 90 552 90 689 c 0,0,1
EndSplineSet
EndChar

StartChar: H
Encoding: 72 72 43
Width: 2186
Flags: W
LayerCount: 2
Fore
SplineSet
301 254 m 1,0,-1
 301 1181 l 1,1,-1
 20 1434 l 1,2,-1
 818 1434 l 1,3,-1
 818 886 l 1,4,-1
 1368 886 l 1,5,-1
 1368 1434 l 1,6,-1
 2147 1434 l 1,7,-1
 1885 1180 l 1,8,-1
 1885 254 l 1,9,-1
 2166 0 l 1,10,-1
 1368 0 l 1,11,-1
 1368 677 l 1,12,-1
 818 677 l 1,13,-1
 818 0 l 1,14,-1
 20 0 l 1,15,-1
 301 254 l 1,0,-1
EndSplineSet
EndChar

StartChar: I
Encoding: 73 73 44
Width: 1101
Flags: W
LayerCount: 2
Fore
SplineSet
292 1180 m 1,0,-1
 60 1434 l 1,1,-1
 809 1434 l 1,2,-1
 809 254 l 1,3,-1
 1041 0 l 1,4,-1
 292 0 l 1,5,-1
 292 1180 l 1,0,-1
EndSplineSet
EndChar

StartChar: J
Encoding: 74 74 45
Width: 1209
Flags: W
LayerCount: 2
Fore
SplineSet
130 168 m 1,0,1
 172 156 172 156 206.5 151 c 128,-1,2
 241 146 241 146 282 146 c 0,3,4
 332 146 332 146 377.5 152.5 c 128,-1,5
 423 159 423 159 457 183.5 c 128,-1,6
 491 208 491 208 511 256 c 128,-1,7
 531 304 531 304 531 387 c 2,8,-1
 531 1180 l 1,9,-1
 279 1434 l 1,10,-1
 1038 1434 l 1,11,-1
 1038 347 l 2,12,13
 1038 237 1038 237 1009 157.5 c 128,-1,14
 980 78 980 78 922 26.5 c 128,-1,15
 864 -25 864 -25 778.5 -49.5 c 128,-1,16
 693 -74 693 -74 580 -74 c 0,17,18
 499 -74 499 -74 427.5 -64.5 c 128,-1,19
 356 -55 356 -55 297 -39.5 c 128,-1,20
 238 -24 238 -24 194 -3.5 c 128,-1,21
 150 17 150 17 125 38 c 1,22,-1
 130 168 l 1,0,1
EndSplineSet
EndChar

StartChar: K
Encoding: 75 75 46
Width: 2060
Flags: W
LayerCount: 2
Fore
SplineSet
311 254 m 1,0,-1
 311 1181 l 1,1,-1
 30 1434 l 1,2,-1
 1000 1434 l 1,3,-1
 828 1181 l 1,4,-1
 828 750 l 1,5,-1
 1393 1180 l 1,6,-1
 1240 1434 l 1,7,-1
 2090 1434 l 1,8,-1
 1375 873 l 1,9,-1
 1880 177 l 1,10,-1
 2110 0 l 1,11,-1
 1208 0 l 1,12,-1
 1284 138 l 1,13,-1
 991 572 l 1,14,-1
 828 443 l 1,15,-1
 828 254 l 1,16,-1
 1040 0 l 1,17,-1
 30 0 l 1,18,-1
 311 254 l 1,0,-1
EndSplineSet
EndChar

StartChar: L
Encoding: 76 76 47
Width: 1837
Flags: W
LayerCount: 2
Fore
SplineSet
311 254 m 1,0,-1
 311 1180 l 1,1,-1
 30 1434 l 1,2,-1
 1219 1434 l 1,3,-1
 838 1180 l 1,4,-1
 838 229 l 1,5,-1
 1368 229 l 1,6,-1
 1777 573 l 1,7,-1
 1777 0 l 1,8,-1
 30 0 l 1,9,-1
 311 254 l 1,0,-1
EndSplineSet
EndChar

StartChar: M
Encoding: 77 77 48
Width: 2465
Flags: W
LayerCount: 2
Fore
SplineSet
313 253 m 1,0,-1
 313 1144 l 1,1,-1
 5 1434 l 1,2,-1
 729 1434 l 1,3,-1
 1230 662 l 1,4,-1
 1681 1434 l 1,5,-1
 2450 1434 l 1,6,-1
 2128 1190 l 1,7,-1
 2128 254 l 1,8,-1
 2429 0 l 1,9,-1
 1341 0 l 1,10,-1
 1621 254 l 1,11,-1
 1621 771 l 1,12,-1
 1201 0 l 1,13,-1
 1056 0 l 1,14,-1
 585 763 l 1,15,-1
 585 253 l 1,16,-1
 886 0 l 1,17,-1
 42 0 l 1,18,-1
 313 253 l 1,0,-1
EndSplineSet
EndChar

StartChar: N
Encoding: 78 78 49
Width: 2113
Flags: W
LayerCount: 2
Fore
SplineSet
313 253 m 1,0,-1
 313 1152 l 1,1,-1
 5 1434 l 1,2,-1
 769 1434 l 1,3,-1
 1575 714 l 1,4,-1
 1575 1180 l 1,5,-1
 1295 1434 l 1,6,-1
 2098 1434 l 1,7,-1
 1847 1180 l 1,8,-1
 1847 0 l 1,9,-1
 1575 0 l 1,10,-1
 585 904 l 1,11,-1
 585 253 l 1,12,-1
 886 0 l 1,13,-1
 42 0 l 1,14,-1
 313 253 l 1,0,-1
EndSplineSet
EndChar

StartChar: O
Encoding: 79 79 50
Width: 2066
Flags: W
LayerCount: 2
Fore
SplineSet
90 717 m 0,0,1
 90 855 90 855 130.5 965 c 128,-1,2
 171 1075 171 1075 240 1159 c 128,-1,3
 309 1243 309 1243 402 1302.5 c 128,-1,4
 495 1362 495 1362 599.5 1399.5 c 128,-1,5
 704 1437 704 1437 815 1454.5 c 128,-1,6
 926 1472 926 1472 1032 1472 c 0,7,8
 1148 1472 1148 1472 1263.5 1454.5 c 128,-1,9
 1379 1437 1379 1437 1483.5 1399.5 c 128,-1,10
 1588 1362 1588 1362 1678 1302.5 c 128,-1,11
 1768 1243 1768 1243 1834.5 1159 c 128,-1,12
 1901 1075 1901 1075 1938.5 965 c 128,-1,13
 1976 855 1976 855 1976 717 c 0,14,15
 1976 581 1976 581 1937 472 c 128,-1,16
 1898 363 1898 363 1830 279 c 128,-1,17
 1762 195 1762 195 1670.5 135 c 128,-1,18
 1579 75 1579 75 1474.5 36 c 128,-1,19
 1370 -3 1370 -3 1256.5 -21 c 128,-1,20
 1143 -39 1143 -39 1032 -39 c 256,21,22
 921 -39 921 -39 808 -22 c 128,-1,23
 695 -5 695 -5 590.5 32 c 128,-1,24
 486 69 486 69 394.5 128 c 128,-1,25
 303 187 303 187 235.5 271 c 128,-1,26
 168 355 168 355 129 465.5 c 128,-1,27
 90 576 90 576 90 717 c 0,0,1
678 717 m 0,28,29
 678 599 678 599 704 498.5 c 128,-1,30
 730 398 730 398 777 324 c 128,-1,31
 824 250 824 250 889 208 c 128,-1,32
 954 166 954 166 1032 166 c 256,33,34
 1110 166 1110 166 1175 209 c 128,-1,35
 1240 252 1240 252 1287.5 326 c 128,-1,36
 1335 400 1335 400 1361.5 500.5 c 128,-1,37
 1388 601 1388 601 1388 717 c 0,38,39
 1388 834 1388 834 1363 936.5 c 128,-1,40
 1338 1039 1338 1039 1291.5 1114.5 c 128,-1,41
 1245 1190 1245 1190 1179 1233.5 c 128,-1,42
 1113 1277 1113 1277 1032 1277 c 0,43,44
 954 1277 954 1277 889 1233.5 c 128,-1,45
 824 1190 824 1190 777 1114.5 c 128,-1,46
 730 1039 730 1039 704 936.5 c 128,-1,47
 678 834 678 834 678 717 c 0,28,29
EndSplineSet
EndChar

StartChar: P
Encoding: 80 80 51
Width: 2065
Flags: W
LayerCount: 2
Fore
SplineSet
341 254 m 1,0,-1
 341 1180 l 1,1,-1
 31 1434 l 1,2,3
 127 1435 127 1435 235 1436 c 128,-1,4
 343 1437 343 1437 452.5 1437.5 c 128,-1,5
 562 1438 562 1438 668 1439 c 128,-1,6
 774 1440 774 1440 865 1440.5 c 128,-1,7
 956 1441 956 1441 1027 1441 c 128,-1,8
 1098 1441 1098 1441 1139 1441 c 0,9,10
 1240 1441 1240 1441 1343 1434.5 c 128,-1,11
 1446 1428 1446 1428 1541 1410 c 128,-1,12
 1636 1392 1636 1392 1719 1360.5 c 128,-1,13
 1802 1329 1802 1329 1863 1278 c 128,-1,14
 1924 1227 1924 1227 1959.5 1155 c 128,-1,15
 1995 1083 1995 1083 1995 985 c 0,16,17
 1995 879 1995 879 1964.5 800.5 c 128,-1,18
 1934 722 1934 722 1876 666.5 c 128,-1,19
 1818 611 1818 611 1735.5 576 c 128,-1,20
 1653 541 1653 541 1548 521 c 128,-1,21
 1443 501 1443 501 1318.5 493.5 c 128,-1,22
 1194 486 1194 486 1053 486 c 0,23,24
 1015 486 1015 486 967 487 c 128,-1,25
 919 488 919 488 868 490 c 1,26,-1
 868 254 l 1,27,-1
 1279 0 l 1,28,-1
 30 0 l 1,29,-1
 341 254 l 1,0,-1
994 709 m 2,30,31
 1118 709 1118 709 1201 720.5 c 128,-1,32
 1284 732 1284 732 1334 762 c 128,-1,33
 1384 792 1384 792 1405 844 c 128,-1,34
 1426 896 1426 896 1426 977 c 256,35,36
 1426 1058 1426 1058 1398 1107 c 128,-1,37
 1370 1156 1370 1156 1317 1182.5 c 128,-1,38
 1264 1209 1264 1209 1187.5 1217 c 128,-1,39
 1111 1225 1111 1225 1014 1225 c 2,40,-1
 868 1225 l 1,41,-1
 868 709 l 1,42,-1
 994 709 l 2,30,31
EndSplineSet
EndChar

StartChar: Q
Encoding: 81 81 52
Width: 2066
Flags: W
LayerCount: 2
Fore
SplineSet
90 717 m 0,0,1
 90 855 90 855 129 965 c 128,-1,2
 168 1075 168 1075 235.5 1159 c 128,-1,3
 303 1243 303 1243 394.5 1302.5 c 128,-1,4
 486 1362 486 1362 590.5 1399.5 c 128,-1,5
 695 1437 695 1437 808 1454.5 c 128,-1,6
 921 1472 921 1472 1032 1472 c 256,7,8
 1143 1472 1143 1472 1256.5 1454.5 c 128,-1,9
 1370 1437 1370 1437 1474.5 1399.5 c 128,-1,10
 1579 1362 1579 1362 1670.5 1302.5 c 128,-1,11
 1762 1243 1762 1243 1830 1159 c 128,-1,12
 1898 1075 1898 1075 1937 965 c 128,-1,13
 1976 855 1976 855 1976 717 c 0,14,15
 1976 583 1976 583 1939.5 476.5 c 128,-1,16
 1903 370 1903 370 1839.5 287 c 128,-1,17
 1776 204 1776 204 1690 144 c 128,-1,18
 1604 84 1604 84 1504 45 c 1,19,20
 1506 10 1506 10 1513.5 -19 c 128,-1,21
 1521 -48 1521 -48 1538.5 -70 c 128,-1,22
 1556 -92 1556 -92 1585.5 -104 c 128,-1,23
 1615 -116 1615 -116 1662 -116 c 0,24,25
 1676 -116 1676 -116 1698 -115 c 128,-1,26
 1720 -114 1720 -114 1744.5 -111.5 c 128,-1,27
 1769 -109 1769 -109 1794.5 -105 c 128,-1,28
 1820 -101 1820 -101 1841 -96 c 1,29,-1
 1806 -404 l 1,30,31
 1777 -410 1777 -410 1745.5 -415 c 128,-1,32
 1714 -420 1714 -420 1682.5 -423 c 128,-1,33
 1651 -426 1651 -426 1622 -427.5 c 128,-1,34
 1593 -429 1593 -429 1571 -429 c 0,35,36
 1473 -429 1473 -429 1401 -400 c 128,-1,37
 1329 -371 1329 -371 1281 -318.5 c 128,-1,38
 1233 -266 1233 -266 1208.5 -192.5 c 128,-1,39
 1184 -119 1184 -119 1183 -31 c 1,40,41
 1145 -35 1145 -35 1107.5 -37 c 128,-1,42
 1070 -39 1070 -39 1032 -39 c 0,43,44
 921 -39 921 -39 808 -22 c 128,-1,45
 695 -5 695 -5 590.5 32 c 128,-1,46
 486 69 486 69 394.5 128 c 128,-1,47
 303 187 303 187 235.5 271 c 128,-1,48
 168 355 168 355 129 465.5 c 128,-1,49
 90 576 90 576 90 717 c 0,0,1
743 387 m 1,50,51
 800 433 800 433 881 459.5 c 128,-1,52
 962 486 962 486 1060 486 c 0,53,54
 1145 486 1145 486 1210.5 462.5 c 128,-1,55
 1276 439 1276 439 1327 401 c 1,56,57
 1356 468 1356 468 1372 548 c 128,-1,58
 1388 628 1388 628 1388 717 c 0,59,60
 1388 834 1388 834 1363 936.5 c 128,-1,61
 1338 1039 1338 1039 1291.5 1114.5 c 128,-1,62
 1245 1190 1245 1190 1179 1233.5 c 128,-1,63
 1113 1277 1113 1277 1032 1277 c 0,64,65
 954 1277 954 1277 889 1233.5 c 128,-1,66
 824 1190 824 1190 777 1114.5 c 128,-1,67
 730 1039 730 1039 704 936.5 c 128,-1,68
 678 834 678 834 678 717 c 0,69,70
 678 622 678 622 694.5 539 c 128,-1,71
 711 456 711 456 743 387 c 1,50,51
827 259 m 1,72,73
 869 214 869 214 920.5 190 c 128,-1,74
 972 166 972 166 1032 166 c 0,75,76
 1108 166 1108 166 1173 208 c 1,77,78
 1153 262 1153 262 1102.5 290 c 128,-1,79
 1052 318 1052 318 993 318 c 0,80,81
 948 318 948 318 904 303.5 c 128,-1,82
 860 289 860 289 827 259 c 1,72,73
EndSplineSet
EndChar

StartChar: R
Encoding: 82 82 53
Width: 2186
Flags: W
LayerCount: 2
Fore
SplineSet
341 254 m 1,0,-1
 341 1180 l 1,1,-1
 31 1434 l 1,2,3
 125 1435 125 1435 226 1436 c 128,-1,4
 327 1437 327 1437 427 1437.5 c 128,-1,5
 527 1438 527 1438 622 1439 c 128,-1,6
 717 1440 717 1440 800.5 1440.5 c 128,-1,7
 884 1441 884 1441 952 1441 c 128,-1,8
 1020 1441 1020 1441 1065 1441 c 0,9,10
 1160 1441 1160 1441 1264 1437 c 128,-1,11
 1368 1433 1368 1433 1468.5 1419.5 c 128,-1,12
 1569 1406 1569 1406 1659.5 1379.5 c 128,-1,13
 1750 1353 1750 1353 1818.5 1308.5 c 128,-1,14
 1887 1264 1887 1264 1927.5 1198.5 c 128,-1,15
 1968 1133 1968 1133 1968 1041 c 0,16,17
 1968 971 1968 971 1943 915 c 128,-1,18
 1918 859 1918 859 1871.5 815 c 128,-1,19
 1825 771 1825 771 1759 738 c 128,-1,20
 1693 705 1693 705 1612 681 c 1,21,22
 1675 672 1675 672 1730.5 638.5 c 128,-1,23
 1786 605 1786 605 1827 554 c 128,-1,24
 1868 503 1868 503 1891.5 436 c 128,-1,25
 1915 369 1915 369 1915 292 c 2,26,-1
 1915 234 l 1,27,-1
 2196 0 l 1,28,-1
 1212 0 l 1,29,-1
 1364 213 l 1,30,-1
 1364 336 l 2,31,32
 1364 388 1364 388 1349 431.5 c 128,-1,33
 1334 475 1334 475 1308 506.5 c 128,-1,34
 1282 538 1282 538 1247.5 555.5 c 128,-1,35
 1213 573 1213 573 1175 573 c 2,36,-1
 868 573 l 1,37,-1
 868 254 l 1,38,-1
 1049 0 l 1,39,-1
 30 0 l 1,40,-1
 341 254 l 1,0,-1
1014 769 m 2,41,42
 1119 769 1119 769 1197 778 c 128,-1,43
 1275 787 1275 787 1326.5 812 c 128,-1,44
 1378 837 1378 837 1403 881 c 128,-1,45
 1428 925 1428 925 1428 994 c 0,46,47
 1428 1047 1428 1047 1410 1085 c 128,-1,48
 1392 1123 1392 1123 1361 1148.5 c 128,-1,49
 1330 1174 1330 1174 1288.5 1189.5 c 128,-1,50
 1247 1205 1247 1205 1201 1212.5 c 128,-1,51
 1155 1220 1155 1220 1107 1222.5 c 128,-1,52
 1059 1225 1059 1225 1014 1225 c 2,53,-1
 868 1225 l 1,54,-1
 868 769 l 1,55,-1
 1014 769 l 2,41,42
EndSplineSet
EndChar

StartChar: S
Encoding: 83 83 54
Width: 1944
Flags: W
LayerCount: 2
Fore
SplineSet
165 489 m 1,0,1
 262 425 262 425 369 369.5 c 128,-1,2
 476 314 476 314 590.5 273 c 128,-1,3
 705 232 705 232 825.5 208.5 c 128,-1,4
 946 185 946 185 1071 185 c 0,5,6
 1119 185 1119 185 1163.5 191 c 128,-1,7
 1208 197 1208 197 1241.5 210.5 c 128,-1,8
 1275 224 1275 224 1295.5 246.5 c 128,-1,9
 1316 269 1316 269 1316 301 c 0,10,11
 1316 330 1316 330 1299 359.5 c 128,-1,12
 1282 389 1282 389 1233.5 416 c 128,-1,13
 1185 443 1185 443 1098 466.5 c 128,-1,14
 1011 490 1011 490 872 508 c 0,15,16
 686 532 686 532 549 570 c 128,-1,17
 412 608 412 608 322 667 c 128,-1,18
 232 726 232 726 188 809 c 128,-1,19
 144 892 144 892 144 1006 c 0,20,21
 144 1115 144 1115 193.5 1201.5 c 128,-1,22
 243 1288 243 1288 336 1348 c 128,-1,23
 429 1408 429 1408 562 1440 c 128,-1,24
 695 1472 695 1472 862 1472 c 0,25,26
 912 1472 912 1472 980 1464.5 c 128,-1,27
 1048 1457 1048 1457 1121 1444 c 128,-1,28
 1194 1431 1194 1431 1265.5 1413.5 c 128,-1,29
 1337 1396 1337 1396 1394 1377 c 1,30,-1
 1590 1485 l 1,31,-1
 1727 1485 l 1,32,-1
 1727 1005 l 1,33,34
 1620 1068 1620 1068 1511.5 1116 c 128,-1,35
 1403 1164 1403 1164 1296.5 1196.5 c 128,-1,36
 1190 1229 1190 1229 1088.5 1245.5 c 128,-1,37
 987 1262 987 1262 895 1262 c 0,38,39
 835 1262 835 1262 786.5 1253 c 128,-1,40
 738 1244 738 1244 704.5 1229 c 128,-1,41
 671 1214 671 1214 653 1193.5 c 128,-1,42
 635 1173 635 1173 635 1150 c 0,43,44
 635 1117 635 1117 653 1090.5 c 128,-1,45
 671 1064 671 1064 723 1041 c 128,-1,46
 775 1018 775 1018 869 996.5 c 128,-1,47
 963 975 963 975 1115 950 c 0,48,49
 1216 933 1216 933 1308 914 c 128,-1,50
 1400 895 1400 895 1479 868.5 c 128,-1,51
 1558 842 1558 842 1621.5 805 c 128,-1,52
 1685 768 1685 768 1730 716 c 128,-1,53
 1775 664 1775 664 1799.5 594 c 128,-1,54
 1824 524 1824 524 1824 431 c 0,55,56
 1824 307 1824 307 1764 218 c 128,-1,57
 1704 129 1704 129 1602 72 c 128,-1,58
 1500 15 1500 15 1364.5 -12 c 128,-1,59
 1229 -39 1229 -39 1079 -39 c 0,60,61
 939 -39 939 -39 796 -9.5 c 128,-1,62
 653 20 653 20 522 86 c 1,63,-1
 362 -14 l 1,64,-1
 165 -14 l 1,65,-1
 165 489 l 1,0,1
EndSplineSet
EndChar

StartChar: T
Encoding: 84 84 55
Width: 1835
Flags: W
LayerCount: 2
Fore
SplineSet
654 253 m 1,0,-1
 654 1234 l 1,1,-1
 459 1234 l 1,2,-1
 81 814 l 1,3,-1
 60 1434 l 1,4,-1
 649 1434 l 1,5,-1
 654 1430 l 1,6,-1
 654 1434 l 1,7,-1
 1775 1434 l 1,8,-1
 1754 814 l 1,9,-1
 1366 1234 l 1,10,-1
 1181 1234 l 1,11,-1
 1181 253 l 1,12,-1
 1528 0 l 1,13,-1
 312 0 l 1,14,-1
 654 253 l 1,0,-1
EndSplineSet
EndChar

StartChar: U
Encoding: 85 85 56
Width: 2037
Flags: W
LayerCount: 2
Fore
SplineSet
291 1181 m 1,0,-1
 10 1434 l 1,1,-1
 1062 1434 l 1,2,-1
 808 1181 l 1,3,-1
 808 727 l 2,4,5
 808 583 808 583 829.5 483.5 c 128,-1,6
 851 384 851 384 894 321.5 c 128,-1,7
 937 259 937 259 1002 231.5 c 128,-1,8
 1067 204 1067 204 1154 204 c 0,9,10
 1207 204 1207 204 1253 212.5 c 128,-1,11
 1299 221 1299 221 1337.5 243 c 128,-1,12
 1376 265 1376 265 1405.5 303 c 128,-1,13
 1435 341 1435 341 1455.5 399 c 128,-1,14
 1476 457 1476 457 1487 538 c 128,-1,15
 1498 619 1498 619 1498 727 c 2,16,-1
 1498 1180 l 1,17,-1
 1280 1434 l 1,18,-1
 2037 1434 l 1,19,-1
 1781 1180 l 1,20,-1
 1781 667 l 2,21,22
 1781 526 1781 526 1758 418.5 c 128,-1,23
 1735 311 1735 311 1692 232.5 c 128,-1,24
 1649 154 1649 154 1587 102 c 128,-1,25
 1525 50 1525 50 1447 18.5 c 128,-1,26
 1369 -13 1369 -13 1277 -26 c 128,-1,27
 1185 -39 1185 -39 1081 -39 c 0,28,29
 863 -39 863 -39 712 5 c 128,-1,30
 561 49 561 49 467.5 137.5 c 128,-1,31
 374 226 374 226 332.5 358.5 c 128,-1,32
 291 491 291 491 291 667 c 2,33,-1
 291 1181 l 1,0,-1
EndSplineSet
EndChar

StartChar: V
Encoding: 86 86 57
Width: 1979
Flags: W
LayerCount: 2
Fore
SplineSet
287 1181 m 1,0,-1
 -40 1434 l 1,1,-1
 989 1434 l 1,2,-1
 833 1212 l 1,3,-1
 1142 413 l 1,4,-1
 1411 1204 l 1,5,-1
 1250 1434 l 1,6,-1
 2039 1434 l 1,7,-1
 1730 1201 l 1,8,-1
 1290 0 l 1,9,-1
 781 0 l 1,10,-1
 287 1181 l 1,0,-1
EndSplineSet
EndChar

StartChar: W
Encoding: 87 87 58
Width: 2669
Flags: W
LayerCount: 2
Fore
SplineSet
210 1207 m 1,0,-1
 -40 1434 l 1,1,-1
 889 1434 l 1,2,-1
 762 1198 l 1,3,-1
 992 363 l 1,4,-1
 1185 1200 l 1,5,-1
 1050 1434 l 1,6,-1
 1889 1434 l 1,7,-1
 1759 1192 l 1,8,-1
 1972 353 l 1,9,-1
 2179 1193 l 1,10,-1
 2050 1434 l 1,11,-1
 2729 1434 l 1,12,-1
 2504 1230 l 1,13,-1
 2140 0 l 1,14,-1
 1581 0 l 1,15,-1
 1386 783 l 1,16,-1
 1220 0 l 1,17,-1
 631 0 l 1,18,-1
 210 1207 l 1,0,-1
EndSplineSet
EndChar

StartChar: X
Encoding: 88 88 59
Width: 2091
Flags: W
LayerCount: 2
Fore
SplineSet
434 322 m 1,0,-1
 751 694 l 1,1,-1
 392 1150 l 1,2,-1
 14 1434 l 1,3,-1
 1022 1434 l 1,4,-1
 926 1298 l 1,5,-1
 1166 991 l 1,6,-1
 1366 1256 l 1,7,-1
 1183 1434 l 1,8,-1
 2078 1434 l 1,9,-1
 1636 1119 l 1,10,-1
 1345 762 l 1,11,-1
 1719 286 l 1,12,-1
 2101 0 l 1,13,-1
 1095 0 l 1,14,-1
 1190 136 l 1,15,-1
 930 466 l 1,16,-1
 703 178 l 1,17,-1
 885 0 l 1,18,-1
 -10 0 l 1,19,-1
 434 322 l 1,0,-1
EndSplineSet
EndChar

StartChar: Y
Encoding: 89 89 60
Width: 1939
Flags: W
LayerCount: 2
Fore
SplineSet
731 224 m 1,0,-1
 731 440 l 1,1,-1
 262 1191 l 1,2,-1
 -40 1434 l 1,3,-1
 949 1434 l 1,4,-1
 814 1242 l 1,5,-1
 1092 743 l 1,6,-1
 1324 1233 l 1,7,-1
 1160 1434 l 1,8,-1
 1999 1434 l 1,9,-1
 1641 1184 l 1,10,-1
 1238 440 l 1,11,-1
 1238 224 l 1,12,-1
 1488 0 l 1,13,-1
 499 0 l 1,14,-1
 731 224 l 1,0,-1
EndSplineSet
EndChar

StartChar: Z
Encoding: 90 90 61
Width: 1838
Flags: W
LayerCount: 2
Fore
SplineSet
914 1205 m 1,0,-1
 466 1205 l 1,1,-1
 159 787 l 1,2,-1
 159 1434 l 1,3,-1
 1738 1434 l 1,4,-1
 889 229 l 1,5,-1
 1422 229 l 1,6,-1
 1729 647 l 1,7,-1
 1729 0 l 1,8,-1
 50 0 l 1,9,-1
 914 1205 l 1,0,-1
EndSplineSet
EndChar

StartChar: bracketleft
Encoding: 91 91 62
Width: 974
Flags: W
LayerCount: 2
Fore
SplineSet
230 1658 m 1,0,-1
 894 1658 l 1,1,-1
 894 1465 l 1,2,-1
 578 1465 l 1,3,-1
 578 -32 l 1,4,-1
 894 -32 l 1,5,-1
 894 -225 l 1,6,-1
 230 -225 l 1,7,-1
 230 1658 l 1,0,-1
EndSplineSet
EndChar

StartChar: backslash
Encoding: 92 92 63
Width: 910
Flags: W
LayerCount: 2
Fore
SplineSet
88 1569 m 1,0,-1
 359 1569 l 1,1,-1
 822 -151 l 1,2,-1
 553 -151 l 1,3,-1
 88 1569 l 1,0,-1
EndSplineSet
EndChar

StartChar: bracketright
Encoding: 93 93 64
Width: 974
Flags: W
LayerCount: 2
Fore
SplineSet
396 -32 m 1,0,-1
 396 1465 l 1,1,-1
 80 1465 l 1,2,-1
 80 1658 l 1,3,-1
 744 1658 l 1,4,-1
 744 -225 l 1,5,-1
 80 -225 l 1,6,-1
 80 -32 l 1,7,-1
 396 -32 l 1,0,-1
EndSplineSet
EndChar

StartChar: asciicircum
Encoding: 94 94 65
Width: 1443
Flags: W
LayerCount: 2
Fore
SplineSet
81 460 m 1,0,-1
 722 1472 l 1,1,-1
 1362 460 l 1,2,-1
 1153 329 l 1,3,-1
 723 1059 l 1,4,-1
 291 329 l 1,5,-1
 81 460 l 1,0,-1
EndSplineSet
EndChar

StartChar: underscore
Encoding: 95 95 66
Width: 1508
Flags: W
LayerCount: 2
Fore
SplineSet
1528 -72 m 1,0,-1
 1528 -294 l 1,1,-1
 -20 -294 l 1,2,-1
 -20 -72 l 1,3,-1
 1528 -72 l 1,0,-1
EndSplineSet
EndChar

StartChar: grave
Encoding: 96 96 67
Width: 835
Flags: W
LayerCount: 2
Fore
SplineSet
-202 1624 m 1,0,-1
 299 1624 l 1,1,-1
 609 1208 l 1,2,-1
 398 1208 l 1,3,-1
 -202 1624 l 1,0,-1
EndSplineSet
EndChar

StartChar: a
Encoding: 97 97 68
Width: 1747
Flags: W
LayerCount: 2
Fore
SplineSet
71 258 m 0,0,1
 71 338 71 338 104 396.5 c 128,-1,2
 137 455 137 455 193 496.5 c 128,-1,3
 249 538 249 538 324 564 c 128,-1,4
 399 590 399 590 483 604.5 c 128,-1,5
 567 619 567 619 655.5 624.5 c 128,-1,6
 744 630 744 630 828 630 c 0,7,8
 875 630 875 630 927.5 628.5 c 128,-1,9
 980 627 980 627 1033 625 c 1,10,11
 1031 697 1031 697 1020.5 753.5 c 128,-1,12
 1010 810 1010 810 985.5 848.5 c 128,-1,13
 961 887 961 887 917.5 907.5 c 128,-1,14
 874 928 874 928 806 928 c 0,15,16
 762 928 762 928 719 917 c 128,-1,17
 676 906 676 906 641 882 c 128,-1,18
 606 858 606 858 581.5 820.5 c 128,-1,19
 557 783 557 783 550 729 c 1,20,-1
 149 784 l 1,21,22
 149 854 149 854 179 908 c 128,-1,23
 209 962 209 962 260.5 1002 c 128,-1,24
 312 1042 312 1042 381 1069.5 c 128,-1,25
 450 1097 450 1097 527.5 1114 c 128,-1,26
 605 1131 605 1131 686.5 1138.5 c 128,-1,27
 768 1146 768 1146 846 1146 c 0,28,29
 944 1146 944 1146 1032.5 1137 c 128,-1,30
 1121 1128 1121 1128 1197 1105.5 c 128,-1,31
 1273 1083 1273 1083 1335 1045.5 c 128,-1,32
 1397 1008 1397 1008 1440.5 951 c 128,-1,33
 1484 894 1484 894 1507.5 816 c 128,-1,34
 1531 738 1531 738 1531 634 c 2,35,-1
 1531 282 l 2,36,37
 1531 202 1531 202 1570.5 170 c 128,-1,38
 1610 138 1610 138 1678 138 c 1,39,-1
 1678 23 l 1,40,41
 1669 14 1669 14 1647.5 3.5 c 128,-1,42
 1626 -7 1626 -7 1591.5 -16.5 c 128,-1,43
 1557 -26 1557 -26 1510 -32.5 c 128,-1,44
 1463 -39 1463 -39 1402 -39 c 0,45,46
 1328 -39 1328 -39 1269 -31.5 c 128,-1,47
 1210 -24 1210 -24 1166.5 -5.5 c 128,-1,48
 1123 13 1123 13 1094 45 c 128,-1,49
 1065 77 1065 77 1050 126 c 1,50,51
 1000 82 1000 82 937 51 c 128,-1,52
 874 20 874 20 803.5 0 c 128,-1,53
 733 -20 733 -20 658.5 -29.5 c 128,-1,54
 584 -39 584 -39 512 -39 c 0,55,56
 464 -39 464 -39 413 -34 c 128,-1,57
 362 -29 362 -29 313 -16.5 c 128,-1,58
 264 -4 264 -4 220 17.5 c 128,-1,59
 176 39 176 39 143 72 c 128,-1,60
 110 105 110 105 90.5 151 c 128,-1,61
 71 197 71 197 71 258 c 0,0,1
588 302 m 0,62,63
 588 275 588 275 602 253 c 128,-1,64
 616 231 616 231 640 216 c 128,-1,65
 664 201 664 201 696 193 c 128,-1,66
 728 185 728 185 764 185 c 0,67,68
 801 185 801 185 846 193.5 c 128,-1,69
 891 202 891 202 931.5 222 c 128,-1,70
 972 242 972 242 1001 274.5 c 128,-1,71
 1030 307 1030 307 1034 354 c 1,72,-1
 1034 456 l 1,73,74
 1020 457 1020 457 1007.5 457 c 128,-1,75
 995 457 995 457 984 457 c 0,76,77
 877 457 877 457 802 446.5 c 128,-1,78
 727 436 727 436 679.5 416 c 128,-1,79
 632 396 632 396 610 367 c 128,-1,80
 588 338 588 338 588 302 c 0,62,63
EndSplineSet
EndChar

StartChar: b
Encoding: 98 98 69
Width: 1970
Flags: W
LayerCount: 2
Fore
SplineSet
311 244 m 1,0,-1
 311 1330 l 1,1,-1
 49 1554 l 1,2,-1
 788 1584 l 1,3,-1
 788 922 l 1,4,5
 859 1036 859 1036 974.5 1091 c 128,-1,6
 1090 1146 1090 1146 1236 1146 c 0,7,8
 1391 1146 1391 1146 1509.5 1098.5 c 128,-1,9
 1628 1051 1628 1051 1708 968.5 c 128,-1,10
 1788 886 1788 886 1829 776 c 128,-1,11
 1870 666 1870 666 1870 540 c 0,12,13
 1870 428 1870 428 1834 323.5 c 128,-1,14
 1798 219 1798 219 1722 138.5 c 128,-1,15
 1646 58 1646 58 1527.5 9.5 c 128,-1,16
 1409 -39 1409 -39 1243 -39 c 0,17,18
 1091 -39 1091 -39 975 13.5 c 128,-1,19
 859 66 859 66 788 177 c 1,20,-1
 788 0 l 1,21,-1
 40 0 l 1,22,-1
 311 244 l 1,0,-1
788 553 m 0,23,24
 788 463 788 463 812.5 400 c 128,-1,25
 837 337 837 337 876.5 297.5 c 128,-1,26
 916 258 916 258 965.5 240 c 128,-1,27
 1015 222 1015 222 1066 222 c 0,28,29
 1127 222 1127 222 1178 243 c 128,-1,30
 1229 264 1229 264 1266 305.5 c 128,-1,31
 1303 347 1303 347 1323.5 409 c 128,-1,32
 1344 471 1344 471 1344 553 c 256,33,34
 1344 635 1344 635 1323.5 698.5 c 128,-1,35
 1303 762 1303 762 1266 805.5 c 128,-1,36
 1229 849 1229 849 1178 871 c 128,-1,37
 1127 893 1127 893 1066 893 c 0,38,39
 1012 893 1012 893 962 874.5 c 128,-1,40
 912 856 912 856 873.5 815.5 c 128,-1,41
 835 775 835 775 811.5 710.5 c 128,-1,42
 788 646 788 646 788 553 c 0,23,24
EndSplineSet
EndChar

StartChar: c
Encoding: 99 99 70
Width: 1754
Flags: W
LayerCount: 2
Fore
SplineSet
100 562 m 0,0,1
 100 704 100 704 161.5 813 c 128,-1,2
 223 922 223 922 331 996 c 128,-1,3
 439 1070 439 1070 586 1108 c 128,-1,4
 733 1146 733 1146 904 1146 c 0,5,6
 1068 1146 1068 1146 1188.5 1113.5 c 128,-1,7
 1309 1081 1309 1081 1388 1033 c 1,8,-1
 1597 1154 l 1,9,-1
 1597 670 l 1,10,-1
 1347 640 l 1,11,12
 1328 704 1328 704 1295 759 c 128,-1,13
 1262 814 1262 814 1215.5 854 c 128,-1,14
 1169 894 1169 894 1110 916.5 c 128,-1,15
 1051 939 1051 939 981 939 c 0,16,17
 917 939 917 939 853.5 921 c 128,-1,18
 790 903 790 903 739.5 859.5 c 128,-1,19
 689 816 689 816 657.5 743.5 c 128,-1,20
 626 671 626 671 626 562 c 0,21,22
 626 470 626 470 658.5 401 c 128,-1,23
 691 332 691 332 744.5 285.5 c 128,-1,24
 798 239 798 239 867 216 c 128,-1,25
 936 193 936 193 1010 193 c 0,26,27
 1073 193 1073 193 1143.5 200.5 c 128,-1,28
 1214 208 1214 208 1282.5 229 c 128,-1,29
 1351 250 1351 250 1413 287 c 128,-1,30
 1475 324 1475 324 1521 383 c 1,31,-1
 1623 303 l 1,32,33
 1593 227 1593 227 1530.5 164 c 128,-1,34
 1468 101 1468 101 1379.5 56 c 128,-1,35
 1291 11 1291 11 1179.5 -14 c 128,-1,36
 1068 -39 1068 -39 941 -39 c 0,37,38
 741 -39 741 -39 585 0 c 128,-1,39
 429 39 429 39 321 115 c 128,-1,40
 213 191 213 191 156.5 303.5 c 128,-1,41
 100 416 100 416 100 562 c 0,0,1
EndSplineSet
EndChar

StartChar: d
Encoding: 100 100 71
Width: 1950
Flags: W
LayerCount: 2
Fore
SplineSet
100 540 m 0,0,1
 100 670 100 670 143.5 780.5 c 128,-1,2
 187 891 187 891 267.5 972 c 128,-1,3
 348 1053 348 1053 461 1099.5 c 128,-1,4
 574 1146 574 1146 714 1146 c 0,5,6
 786 1146 786 1146 854 1133.5 c 128,-1,7
 922 1121 922 1121 982.5 1094.5 c 128,-1,8
 1043 1068 1043 1068 1093.5 1026 c 128,-1,9
 1144 984 1144 984 1182 924 c 1,10,-1
 1182 1330 l 1,11,-1
 920 1554 l 1,12,-1
 1659 1584 l 1,13,-1
 1659 244 l 1,14,-1
 1930 0 l 1,15,-1
 1182 0 l 1,16,-1
 1182 183 l 1,17,18
 1111 70 1111 70 997.5 15.5 c 128,-1,19
 884 -39 884 -39 744 -39 c 0,20,21
 574 -39 574 -39 452 8 c 128,-1,22
 330 55 330 55 252 134.5 c 128,-1,23
 174 214 174 214 137 319 c 128,-1,24
 100 424 100 424 100 540 c 0,0,1
626 553 m 256,25,26
 626 471 626 471 646.5 409 c 128,-1,27
 667 347 667 347 704 305.5 c 128,-1,28
 741 264 741 264 792 243 c 128,-1,29
 843 222 843 222 904 222 c 0,30,31
 955 222 955 222 1004.5 240 c 128,-1,32
 1054 258 1054 258 1093.5 297.5 c 128,-1,33
 1133 337 1133 337 1157.5 400 c 128,-1,34
 1182 463 1182 463 1182 553 c 0,35,36
 1182 646 1182 646 1158.5 710.5 c 128,-1,37
 1135 775 1135 775 1096.5 815.5 c 128,-1,38
 1058 856 1058 856 1008 874.5 c 128,-1,39
 958 893 958 893 904 893 c 0,40,41
 843 893 843 893 792 871 c 128,-1,42
 741 849 741 849 704 805.5 c 128,-1,43
 667 762 667 762 646.5 698.5 c 128,-1,44
 626 635 626 635 626 553 c 256,25,26
EndSplineSet
EndChar

StartChar: e
Encoding: 101 101 72
Width: 1714
Flags: W
LayerCount: 2
Fore
SplineSet
100 537 m 0,0,1
 100 659 100 659 135.5 752 c 128,-1,2
 171 845 171 845 231.5 912.5 c 128,-1,3
 292 980 292 980 372.5 1025 c 128,-1,4
 453 1070 453 1070 544 1097 c 128,-1,5
 635 1124 635 1124 731.5 1135 c 128,-1,6
 828 1146 828 1146 919 1146 c 0,7,8
 1064 1146 1064 1146 1189.5 1114 c 128,-1,9
 1315 1082 1315 1082 1407 1011 c 128,-1,10
 1499 940 1499 940 1551.5 824.5 c 128,-1,11
 1604 709 1604 709 1604 543 c 1,12,-1
 627 543 l 1,13,14
 631 439 631 439 662.5 371.5 c 128,-1,15
 694 304 694 304 744 264.5 c 128,-1,16
 794 225 794 225 858 209 c 128,-1,17
 922 193 922 193 990 193 c 0,18,19
 1051 193 1051 193 1122 200 c 128,-1,20
 1193 207 1193 207 1264 226.5 c 128,-1,21
 1335 246 1335 246 1400 280 c 128,-1,22
 1465 314 1465 314 1513 369 c 1,23,-1
 1615 289 l 1,24,25
 1587 216 1587 216 1521.5 156 c 128,-1,26
 1456 96 1456 96 1363.5 52.5 c 128,-1,27
 1271 9 1271 9 1157.5 -15 c 128,-1,28
 1044 -39 1044 -39 921 -39 c 0,29,30
 742 -39 742 -39 591.5 -1.5 c 128,-1,31
 441 36 441 36 332 109 c 128,-1,32
 223 182 223 182 161.5 289.5 c 128,-1,33
 100 397 100 397 100 537 c 0,0,1
1120 699 m 1,34,35
 1120 773 1120 773 1106.5 823.5 c 128,-1,36
 1093 874 1093 874 1066 905 c 128,-1,37
 1039 936 1039 936 998.5 949.5 c 128,-1,38
 958 963 958 963 904 963 c 0,39,40
 790 963 790 963 723 894 c 128,-1,41
 656 825 656 825 635 699 c 1,42,-1
 1120 699 l 1,34,35
EndSplineSet
EndChar

StartChar: f
Encoding: 102 102 73
Width: 1303
Flags: W
LayerCount: 2
Fore
SplineSet
311 244 m 1,0,-1
 311 894 l 1,1,-1
 49 894 l 1,2,-1
 49 1098 l 1,3,-1
 311 1098 l 1,4,-1
 311 1238 l 2,5,6
 311 1366 311 1366 364.5 1462.5 c 128,-1,7
 418 1559 418 1559 509 1623 c 128,-1,8
 600 1687 600 1687 718.5 1719 c 128,-1,9
 837 1751 837 1751 968 1751 c 0,10,11
 1017 1751 1017 1751 1076 1747 c 128,-1,12
 1135 1743 1135 1743 1194.5 1731.5 c 128,-1,13
 1254 1720 1254 1720 1309.5 1699 c 128,-1,14
 1365 1678 1365 1678 1408 1644.5 c 128,-1,15
 1451 1611 1451 1611 1477 1563 c 128,-1,16
 1503 1515 1503 1515 1503 1449 c 0,17,18
 1503 1441 1503 1441 1502.5 1432 c 128,-1,19
 1502 1423 1502 1423 1501 1415 c 1,20,-1
 1134 1320 l 1,21,22
 1136 1334 1136 1334 1137 1347 c 128,-1,23
 1138 1360 1138 1360 1138 1373 c 0,24,25
 1138 1412 1138 1412 1126.5 1444.5 c 128,-1,26
 1115 1477 1115 1477 1093.5 1501 c 128,-1,27
 1072 1525 1072 1525 1040.5 1538.5 c 128,-1,28
 1009 1552 1009 1552 970 1552 c 0,29,30
 908 1552 908 1552 872 1521.5 c 128,-1,31
 836 1491 836 1491 817 1438 c 128,-1,32
 798 1385 798 1385 793 1314 c 128,-1,33
 788 1243 788 1243 788 1161 c 2,34,-1
 788 1098 l 1,35,-1
 1159 1098 l 1,36,-1
 1159 894 l 1,37,-1
 788 894 l 1,38,-1
 788 244 l 1,39,-1
 1159 0 l 1,40,-1
 40 0 l 1,41,-1
 311 244 l 1,0,-1
EndSplineSet
EndChar

StartChar: g
Encoding: 103 103 74
Width: 1764
Flags: W
LayerCount: 2
Fore
SplineSet
40 -212 m 0,0,1
 40 -168 40 -168 67 -132 c 128,-1,2
 94 -96 94 -96 140 -67 c 128,-1,3
 186 -38 186 -38 247 -16 c 128,-1,4
 308 6 308 6 376 21 c 1,5,6
 318 33 318 33 271 50 c 128,-1,7
 224 67 224 67 190.5 90 c 128,-1,8
 157 113 157 113 138.5 142 c 128,-1,9
 120 171 120 171 120 206 c 0,10,11
 120 247 120 247 145.5 279.5 c 128,-1,12
 171 312 171 312 211.5 336 c 128,-1,13
 252 360 252 360 303 375 c 128,-1,14
 354 390 354 390 405 396 c 1,15,16
 351 421 351 421 307 455 c 128,-1,17
 263 489 263 489 231 530.5 c 128,-1,18
 199 572 199 572 181.5 621.5 c 128,-1,19
 164 671 164 671 164 729 c 0,20,21
 164 833 164 833 220 911.5 c 128,-1,22
 276 990 276 990 368 1042 c 128,-1,23
 460 1094 460 1094 577 1120 c 128,-1,24
 694 1146 694 1146 817 1146 c 0,25,26
 930 1146 930 1146 1038.5 1124 c 128,-1,27
 1147 1102 1147 1102 1236 1057 c 1,28,29
 1247 1115 1247 1115 1278 1157 c 128,-1,30
 1309 1199 1309 1199 1351.5 1226 c 128,-1,31
 1394 1253 1394 1253 1444.5 1266 c 128,-1,32
 1495 1279 1495 1279 1545 1279 c 0,33,34
 1609 1279 1609 1279 1660 1265 c 128,-1,35
 1711 1251 1711 1251 1747 1222.5 c 128,-1,36
 1783 1194 1783 1194 1802.5 1151 c 128,-1,37
 1822 1108 1822 1108 1822 1051 c 0,38,39
 1822 1030 1822 1030 1818 1006.5 c 128,-1,40
 1814 983 1814 983 1805 957 c 1,41,-1
 1550 899 l 1,42,43
 1553 920 1553 920 1553 939 c 0,44,45
 1553 973 1553 973 1544 996.5 c 128,-1,46
 1535 1020 1535 1020 1521 1035 c 128,-1,47
 1507 1050 1507 1050 1489 1056.5 c 128,-1,48
 1471 1063 1471 1063 1453 1063 c 0,49,50
 1413 1063 1413 1063 1388 1039.5 c 128,-1,51
 1363 1016 1363 1016 1352 981 c 1,52,53
 1408 932 1408 932 1439.5 869.5 c 128,-1,54
 1471 807 1471 807 1471 729 c 0,55,56
 1471 625 1471 625 1414.5 547 c 128,-1,57
 1358 469 1358 469 1265.5 416.5 c 128,-1,58
 1173 364 1173 364 1055 338 c 128,-1,59
 937 312 937 312 814 312 c 0,60,61
 657 312 657 312 517 353 c 1,62,63
 506 345 506 345 499.5 336 c 128,-1,64
 493 327 493 327 493 316 c 0,65,66
 493 291 493 291 516.5 272.5 c 128,-1,67
 540 254 540 254 598 241.5 c 128,-1,68
 656 229 656 229 755 223 c 128,-1,69
 854 217 854 217 1004 217 c 0,70,71
 1210 217 1210 217 1349.5 197.5 c 128,-1,72
 1489 178 1489 178 1574 138.5 c 128,-1,73
 1659 99 1659 99 1695.5 40 c 128,-1,74
 1732 -19 1732 -19 1732 -98 c 0,75,76
 1732 -202 1732 -202 1670.5 -273.5 c 128,-1,77
 1609 -345 1609 -345 1492.5 -390 c 128,-1,78
 1376 -435 1376 -435 1208.5 -455 c 128,-1,79
 1041 -475 1041 -475 829 -475 c 0,80,81
 649 -475 649 -475 503.5 -459 c 128,-1,82
 358 -443 358 -443 255 -410.5 c 128,-1,83
 152 -378 152 -378 96 -328.5 c 128,-1,84
 40 -279 40 -279 40 -212 c 0,0,1
590 729 m 0,85,86
 590 670 590 670 608 627 c 128,-1,87
 626 584 626 584 657 556 c 128,-1,88
 688 528 688 528 729.5 515 c 128,-1,89
 771 502 771 502 817 502 c 256,90,91
 863 502 863 502 904.5 516 c 128,-1,92
 946 530 946 530 977 558 c 128,-1,93
 1008 586 1008 586 1026 628.5 c 128,-1,94
 1044 671 1044 671 1044 729 c 0,95,96
 1044 789 1044 789 1027 833 c 128,-1,97
 1010 877 1010 877 979.5 906 c 128,-1,98
 949 935 949 935 907.5 949 c 128,-1,99
 866 963 866 963 817 963 c 0,100,101
 771 963 771 963 729.5 949 c 128,-1,102
 688 935 688 935 657 906 c 128,-1,103
 626 877 626 877 608 833 c 128,-1,104
 590 789 590 789 590 729 c 0,85,86
530 -127 m 0,105,106
 530 -161 530 -161 543.5 -191 c 128,-1,107
 557 -221 557 -221 593 -243 c 128,-1,108
 629 -265 629 -265 691.5 -277.5 c 128,-1,109
 754 -290 754 -290 853 -290 c 0,110,111
 927 -290 927 -290 1003.5 -285.5 c 128,-1,112
 1080 -281 1080 -281 1142 -267.5 c 128,-1,113
 1204 -254 1204 -254 1243 -228.5 c 128,-1,114
 1282 -203 1282 -203 1282 -161 c 256,115,116
 1282 -119 1282 -119 1259 -90 c 128,-1,117
 1236 -61 1236 -61 1176.5 -43.5 c 128,-1,118
 1117 -26 1117 -26 1015 -18 c 128,-1,119
 913 -10 913 -10 755 -10 c 0,120,121
 717 -10 717 -10 679.5 -9 c 128,-1,122
 642 -8 642 -8 606 -6 c 1,123,124
 571 -27 571 -27 550.5 -58 c 128,-1,125
 530 -89 530 -89 530 -127 c 0,105,106
EndSplineSet
EndChar

StartChar: h
Encoding: 104 104 75
Width: 2012
Flags: W
LayerCount: 2
Fore
SplineSet
311 244 m 1,0,-1
 311 1330 l 1,1,-1
 49 1554 l 1,2,-1
 788 1584 l 1,3,-1
 788 901 l 1,4,5
 863 1019 863 1019 980.5 1082.5 c 128,-1,6
 1098 1146 1098 1146 1247 1146 c 0,7,8
 1363 1146 1363 1146 1453.5 1110.5 c 128,-1,9
 1544 1075 1544 1075 1605.5 1004.5 c 128,-1,10
 1667 934 1667 934 1699 828.5 c 128,-1,11
 1731 723 1731 723 1731 584 c 2,12,-1
 1731 244 l 1,13,-1
 2002 0 l 1,14,-1
 1070 0 l 1,15,-1
 1254 244 l 1,16,-1
 1254 563 l 2,17,18
 1254 627 1254 627 1242 684 c 128,-1,19
 1230 741 1230 741 1204.5 784 c 128,-1,20
 1179 827 1179 827 1139 852 c 128,-1,21
 1099 877 1099 877 1043 877 c 256,22,23
 987 877 987 877 940 852.5 c 128,-1,24
 893 828 893 828 859 781.5 c 128,-1,25
 825 735 825 735 806.5 667.5 c 128,-1,26
 788 600 788 600 788 513 c 2,27,-1
 788 244 l 1,28,-1
 972 0 l 1,29,-1
 40 0 l 1,30,-1
 311 244 l 1,0,-1
EndSplineSet
EndChar

StartChar: i
Encoding: 105 105 76
Width: 1069
Flags: W
LayerCount: 2
Fore
SplineSet
522 1235 m 256,0,1
 468 1235 468 1235 420.5 1255.5 c 128,-1,2
 373 1276 373 1276 338 1311 c 128,-1,3
 303 1346 303 1346 282.5 1393.5 c 128,-1,4
 262 1441 262 1441 262 1495 c 256,5,6
 262 1549 262 1549 282.5 1596.5 c 128,-1,7
 303 1644 303 1644 338 1679.5 c 128,-1,8
 373 1715 373 1715 420.5 1735.5 c 128,-1,9
 468 1756 468 1756 522 1756 c 256,10,11
 576 1756 576 1756 623.5 1735.5 c 128,-1,12
 671 1715 671 1715 706.5 1679.5 c 128,-1,13
 742 1644 742 1644 762.5 1596.5 c 128,-1,14
 783 1549 783 1549 783 1495 c 256,15,16
 783 1441 783 1441 762.5 1393.5 c 128,-1,17
 742 1346 742 1346 706.5 1311 c 128,-1,18
 671 1276 671 1276 623.5 1255.5 c 128,-1,19
 576 1235 576 1235 522 1235 c 256,0,1
311 244 m 1,20,-1
 311 853 l 1,21,-1
 49 1077 l 1,22,-1
 778 1107 l 1,23,-1
 778 244 l 1,24,-1
 1049 0 l 1,25,-1
 40 0 l 1,26,-1
 311 244 l 1,20,-1
EndSplineSet
EndChar

StartChar: j
Encoding: 106 106 77
Width: 1058
Flags: W
LayerCount: 2
Fore
SplineSet
582 1235 m 256,0,1
 528 1235 528 1235 480.5 1255.5 c 128,-1,2
 433 1276 433 1276 398 1311 c 128,-1,3
 363 1346 363 1346 342.5 1393.5 c 128,-1,4
 322 1441 322 1441 322 1495 c 256,5,6
 322 1549 322 1549 342.5 1596.5 c 128,-1,7
 363 1644 363 1644 398 1679.5 c 128,-1,8
 433 1715 433 1715 480.5 1735.5 c 128,-1,9
 528 1756 528 1756 582 1756 c 256,10,11
 636 1756 636 1756 683.5 1735.5 c 128,-1,12
 731 1715 731 1715 766.5 1679.5 c 128,-1,13
 802 1644 802 1644 822.5 1596.5 c 128,-1,14
 843 1549 843 1549 843 1495 c 256,15,16
 843 1441 843 1441 822.5 1393.5 c 128,-1,17
 802 1346 802 1346 766.5 1311 c 128,-1,18
 731 1276 731 1276 683.5 1255.5 c 128,-1,19
 636 1235 636 1235 582 1235 c 256,0,1
115 -59 m 1,20,21
 103 -101 103 -101 103 -137 c 0,22,23
 103 -175 103 -175 112.5 -209.5 c 128,-1,24
 122 -244 122 -244 140 -270 c 128,-1,25
 158 -296 158 -296 183.5 -311.5 c 128,-1,26
 209 -327 209 -327 241 -327 c 0,27,28
 284 -327 284 -327 311.5 -302 c 128,-1,29
 339 -277 339 -277 354.5 -235 c 128,-1,30
 370 -193 370 -193 375.5 -137.5 c 128,-1,31
 381 -82 381 -82 381 -20 c 2,32,-1
 381 853 l 1,33,-1
 119 1077 l 1,34,-1
 848 1107 l 1,35,-1
 848 -66 l 2,36,37
 848 -191 848 -191 803.5 -281 c 128,-1,38
 759 -371 759 -371 683.5 -428.5 c 128,-1,39
 608 -486 608 -486 508.5 -513 c 128,-1,40
 409 -540 409 -540 298 -540 c 0,41,42
 218 -540 218 -540 140 -517.5 c 128,-1,43
 62 -495 62 -495 -0.5 -451.5 c 128,-1,44
 -63 -408 -63 -408 -101.5 -344.5 c 128,-1,45
 -140 -281 -140 -281 -140 -198 c 0,46,47
 -140 -188 -140 -188 -140 -179 c 128,-1,48
 -140 -170 -140 -170 -138 -159 c 1,49,-1
 115 -59 l 1,20,21
EndSplineSet
EndChar

StartChar: k
Encoding: 107 107 78
Width: 1872
Flags: W
LayerCount: 2
Fore
SplineSet
311 244 m 1,0,-1
 311 1330 l 1,1,-1
 49 1554 l 1,2,-1
 778 1584 l 1,3,-1
 778 596 l 1,4,-1
 1153 885 l 1,5,-1
 986 1107 l 1,6,-1
 1768 1107 l 1,7,-1
 1209 679 l 1,8,-1
 1698 144 l 1,9,-1
 1882 0 l 1,10,-1
 1010 0 l 1,11,-1
 1114 146 l 1,12,-1
 877 424 l 1,13,-1
 778 348 l 1,14,-1
 778 214 l 1,15,-1
 942 0 l 1,16,-1
 40 0 l 1,17,-1
 311 244 l 1,0,-1
EndSplineSet
EndChar

StartChar: l
Encoding: 108 108 79
Width: 1069
Flags: W
LayerCount: 2
Fore
SplineSet
311 244 m 1,0,-1
 311 1330 l 1,1,-1
 49 1554 l 1,2,-1
 778 1584 l 1,3,-1
 778 244 l 1,4,-1
 1049 0 l 1,5,-1
 40 0 l 1,6,-1
 311 244 l 1,0,-1
EndSplineSet
EndChar

StartChar: m
Encoding: 109 109 80
Width: 2815
Flags: W
LayerCount: 2
Fore
SplineSet
311 244 m 1,0,-1
 311 853 l 1,1,-1
 49 1077 l 1,2,-1
 768 1107 l 1,3,-1
 768 901 l 1,4,5
 843 1019 843 1019 960.5 1082.5 c 128,-1,6
 1078 1146 1078 1146 1227 1146 c 0,7,8
 1393 1146 1393 1146 1492.5 1074.5 c 128,-1,9
 1592 1003 1592 1003 1636 860 c 1,10,11
 1708 997 1708 997 1833 1071.5 c 128,-1,12
 1958 1146 1958 1146 2119 1146 c 0,13,14
 2235 1146 2235 1146 2317.5 1110.5 c 128,-1,15
 2400 1075 2400 1075 2452.5 1004.5 c 128,-1,16
 2505 934 2505 934 2529 828.5 c 128,-1,17
 2553 723 2553 723 2553 584 c 2,18,-1
 2553 240 l 1,19,-1
 2554 244 l 1,20,-1
 2805 0 l 1,21,-1
 1923 0 l 1,22,-1
 2096 242 l 1,23,-1
 2096 563 l 2,24,25
 2096 627 2096 627 2089 684 c 128,-1,26
 2082 741 2082 741 2062 784 c 128,-1,27
 2042 827 2042 827 2006.5 852 c 128,-1,28
 1971 877 1971 877 1915 877 c 0,29,30
 1822 877 1822 877 1757 813 c 128,-1,31
 1692 749 1692 749 1670 629 c 1,32,33
 1670 618 1670 618 1670.5 606.5 c 128,-1,34
 1671 595 1671 595 1671 584 c 2,35,-1
 1671 244 l 1,36,-1
 1855 0 l 1,37,-1
 1020 0 l 1,38,-1
 1204 244 l 1,39,-1
 1204 563 l 2,40,41
 1204 627 1204 627 1197 684 c 128,-1,42
 1190 741 1190 741 1170 784 c 128,-1,43
 1150 827 1150 827 1114.5 852 c 128,-1,44
 1079 877 1079 877 1023 877 c 256,45,46
 967 877 967 877 920 852.5 c 128,-1,47
 873 828 873 828 839 781.5 c 128,-1,48
 805 735 805 735 786.5 667.5 c 128,-1,49
 768 600 768 600 768 513 c 2,50,-1
 768 244 l 1,51,-1
 952 0 l 1,52,-1
 40 0 l 1,53,-1
 311 244 l 1,0,-1
EndSplineSet
EndChar

StartChar: n
Encoding: 110 110 81
Width: 2012
Flags: W
LayerCount: 2
Fore
SplineSet
311 244 m 1,0,-1
 311 853 l 1,1,-1
 49 1077 l 1,2,-1
 788 1107 l 1,3,-1
 788 890 l 1,4,5
 860 1013 860 1013 977.5 1079.5 c 128,-1,6
 1095 1146 1095 1146 1247 1146 c 0,7,8
 1363 1146 1363 1146 1453.5 1110.5 c 128,-1,9
 1544 1075 1544 1075 1605.5 1004.5 c 128,-1,10
 1667 934 1667 934 1699 828.5 c 128,-1,11
 1731 723 1731 723 1731 584 c 2,12,-1
 1731 244 l 1,13,-1
 2002 0 l 1,14,-1
 1070 0 l 1,15,-1
 1254 244 l 1,16,-1
 1254 563 l 2,17,18
 1254 627 1254 627 1242 684 c 128,-1,19
 1230 741 1230 741 1204.5 784 c 128,-1,20
 1179 827 1179 827 1139 852 c 128,-1,21
 1099 877 1099 877 1043 877 c 256,22,23
 987 877 987 877 940 852.5 c 128,-1,24
 893 828 893 828 859 781.5 c 128,-1,25
 825 735 825 735 806.5 667.5 c 128,-1,26
 788 600 788 600 788 513 c 2,27,-1
 788 244 l 1,28,-1
 972 0 l 1,29,-1
 40 0 l 1,30,-1
 311 244 l 1,0,-1
EndSplineSet
EndChar

StartChar: o
Encoding: 111 111 82
Width: 1848
Flags: W
LayerCount: 2
Fore
SplineSet
100 553 m 0,0,1
 100 704 100 704 161.5 815.5 c 128,-1,2
 223 927 223 927 333 1000.5 c 128,-1,3
 443 1074 443 1074 594 1110 c 128,-1,4
 745 1146 745 1146 924 1146 c 256,5,6
 1103 1146 1103 1146 1254 1110 c 128,-1,7
 1405 1074 1405 1074 1515 1000.5 c 128,-1,8
 1625 927 1625 927 1686.5 815.5 c 128,-1,9
 1748 704 1748 704 1748 553 c 0,10,11
 1748 396 1748 396 1686.5 284 c 128,-1,12
 1625 172 1625 172 1515 100 c 128,-1,13
 1405 28 1405 28 1254 -5.5 c 128,-1,14
 1103 -39 1103 -39 924 -39 c 256,15,16
 745 -39 745 -39 594 -5.5 c 128,-1,17
 443 28 443 28 333 100 c 128,-1,18
 223 172 223 172 161.5 284 c 128,-1,19
 100 396 100 396 100 553 c 0,0,1
626 553 m 0,20,21
 626 461 626 461 649.5 386 c 128,-1,22
 673 311 673 311 713.5 258.5 c 128,-1,23
 754 206 754 206 808.5 177.5 c 128,-1,24
 863 149 863 149 924 149 c 256,25,26
 985 149 985 149 1039.5 177.5 c 128,-1,27
 1094 206 1094 206 1134.5 258.5 c 128,-1,28
 1175 311 1175 311 1198.5 386 c 128,-1,29
 1222 461 1222 461 1222 553 c 0,30,31
 1222 646 1222 646 1198.5 722 c 128,-1,32
 1175 798 1175 798 1134.5 852 c 128,-1,33
 1094 906 1094 906 1039.5 936 c 128,-1,34
 985 966 985 966 924 966 c 256,35,36
 863 966 863 966 808.5 936 c 128,-1,37
 754 906 754 906 713.5 852 c 128,-1,38
 673 798 673 798 649.5 722 c 128,-1,39
 626 646 626 646 626 553 c 0,20,21
EndSplineSet
EndChar

StartChar: p
Encoding: 112 112 83
Width: 1970
Flags: W
LayerCount: 2
Fore
SplineSet
311 833 m 1,0,-1
 40 1077 l 1,1,-1
 788 1107 l 1,2,-1
 788 922 l 1,3,4
 859 1036 859 1036 974.5 1091 c 128,-1,5
 1090 1146 1090 1146 1236 1146 c 0,6,7
 1391 1146 1391 1146 1509.5 1098.5 c 128,-1,8
 1628 1051 1628 1051 1708 968.5 c 128,-1,9
 1788 886 1788 886 1829 776 c 128,-1,10
 1870 666 1870 666 1870 540 c 0,11,12
 1870 428 1870 428 1834 323.5 c 128,-1,13
 1798 219 1798 219 1722 138.5 c 128,-1,14
 1646 58 1646 58 1527.5 9.5 c 128,-1,15
 1409 -39 1409 -39 1243 -39 c 0,16,17
 1091 -39 1091 -39 975 13.5 c 128,-1,18
 859 66 859 66 788 177 c 1,19,-1
 788 -192 l 1,20,-1
 1159 -436 l 1,21,-1
 40 -436 l 1,22,-1
 311 -192 l 1,23,-1
 311 833 l 1,0,-1
788 553 m 0,24,25
 788 463 788 463 812.5 400 c 128,-1,26
 837 337 837 337 876.5 297.5 c 128,-1,27
 916 258 916 258 965.5 240 c 128,-1,28
 1015 222 1015 222 1066 222 c 0,29,30
 1127 222 1127 222 1178 243 c 128,-1,31
 1229 264 1229 264 1266 305.5 c 128,-1,32
 1303 347 1303 347 1323.5 409 c 128,-1,33
 1344 471 1344 471 1344 553 c 256,34,35
 1344 635 1344 635 1323.5 698.5 c 128,-1,36
 1303 762 1303 762 1266 805.5 c 128,-1,37
 1229 849 1229 849 1178 871 c 128,-1,38
 1127 893 1127 893 1066 893 c 0,39,40
 1012 893 1012 893 962 874.5 c 128,-1,41
 912 856 912 856 873.5 815.5 c 128,-1,42
 835 775 835 775 811.5 710.5 c 128,-1,43
 788 646 788 646 788 553 c 0,24,25
EndSplineSet
EndChar

StartChar: q
Encoding: 113 113 84
Width: 1930
Flags: W
LayerCount: 2
Fore
SplineSet
100 544 m 0,0,1
 100 692 100 692 150.5 804.5 c 128,-1,2
 201 917 201 917 288.5 993 c 128,-1,3
 376 1069 376 1069 495 1107.5 c 128,-1,4
 614 1146 614 1146 751 1146 c 0,5,6
 831 1146 831 1146 910 1132 c 128,-1,7
 989 1118 989 1118 1061 1086 c 128,-1,8
 1133 1054 1133 1054 1193.5 1003 c 128,-1,9
 1254 952 1254 952 1296 879 c 1,10,-1
 1659 1107 l 1,11,-1
 1659 -192 l 1,12,-1
 1930 -436 l 1,13,-1
 811 -436 l 1,14,-1
 1182 -192 l 1,15,-1
 1182 171 l 1,16,17
 1144 119 1144 119 1095.5 80 c 128,-1,18
 1047 41 1047 41 991 14.5 c 128,-1,19
 935 -12 935 -12 872.5 -25.5 c 128,-1,20
 810 -39 810 -39 744 -39 c 0,21,22
 573 -39 573 -39 451 8 c 128,-1,23
 329 55 329 55 251 135.5 c 128,-1,24
 173 216 173 216 136.5 321.5 c 128,-1,25
 100 427 100 427 100 544 c 0,0,1
626 553 m 256,26,27
 626 471 626 471 646.5 409 c 128,-1,28
 667 347 667 347 704 305.5 c 128,-1,29
 741 264 741 264 792 243 c 128,-1,30
 843 222 843 222 904 222 c 0,31,32
 955 222 955 222 1004.5 240 c 128,-1,33
 1054 258 1054 258 1093.5 297.5 c 128,-1,34
 1133 337 1133 337 1157.5 400 c 128,-1,35
 1182 463 1182 463 1182 553 c 0,36,37
 1182 646 1182 646 1158.5 710.5 c 128,-1,38
 1135 775 1135 775 1096.5 815.5 c 128,-1,39
 1058 856 1058 856 1008 874.5 c 128,-1,40
 958 893 958 893 904 893 c 0,41,42
 843 893 843 893 792 871 c 128,-1,43
 741 849 741 849 704 805.5 c 128,-1,44
 667 762 667 762 646.5 698.5 c 128,-1,45
 626 635 626 635 626 553 c 256,26,27
EndSplineSet
EndChar

StartChar: r
Encoding: 114 114 85
Width: 1543
Flags: W
LayerCount: 2
Fore
SplineSet
311 244 m 1,0,-1
 311 853 l 1,1,-1
 49 1107 l 1,2,-1
 788 1107 l 1,3,-1
 788 895 l 1,4,5
 827 957 827 957 877.5 1004 c 128,-1,6
 928 1051 928 1051 985.5 1082.5 c 128,-1,7
 1043 1114 1043 1114 1105.5 1130 c 128,-1,8
 1168 1146 1168 1146 1231 1146 c 0,9,10
 1314 1146 1314 1146 1374.5 1118 c 128,-1,11
 1435 1090 1435 1090 1474 1039.5 c 128,-1,12
 1513 989 1513 989 1532 920 c 128,-1,13
 1551 851 1551 851 1551 770 c 0,14,15
 1551 744 1551 744 1549 717 c 128,-1,16
 1547 690 1547 690 1541 664 c 1,17,-1
 1176 631 l 1,18,19
 1180 647 1180 647 1180.5 661.5 c 128,-1,20
 1181 676 1181 676 1181 690 c 0,21,22
 1181 731 1181 731 1171.5 765 c 128,-1,23
 1162 799 1162 799 1143.5 823.5 c 128,-1,24
 1125 848 1125 848 1096.5 861.5 c 128,-1,25
 1068 875 1068 875 1030 875 c 0,26,27
 990 875 990 875 957 859 c 128,-1,28
 924 843 924 843 897 816 c 128,-1,29
 870 789 870 789 849.5 753.5 c 128,-1,30
 829 718 829 718 815.5 679.5 c 128,-1,31
 802 641 802 641 795 602 c 128,-1,32
 788 563 788 563 788 529 c 2,33,-1
 788 254 l 1,34,-1
 1136 0 l 1,35,-1
 50 0 l 1,36,-1
 311 244 l 1,0,-1
EndSplineSet
EndChar

StartChar: s
Encoding: 115 115 86
Width: 1661
Flags: W
LayerCount: 2
Fore
SplineSet
180 425 m 1,0,1
 256 375 256 375 343.5 329.5 c 128,-1,2
 431 284 431 284 525 249.5 c 128,-1,3
 619 215 619 215 717 194.5 c 128,-1,4
 815 174 815 174 913 174 c 0,5,6
 950 174 950 174 986.5 179 c 128,-1,7
 1023 184 1023 184 1051.5 194.5 c 128,-1,8
 1080 205 1080 205 1097.5 222.5 c 128,-1,9
 1115 240 1115 240 1115 265 c 0,10,11
 1115 286 1115 286 1101.5 302.5 c 128,-1,12
 1088 319 1088 319 1050 333 c 128,-1,13
 1012 347 1012 347 943.5 358 c 128,-1,14
 875 369 875 369 765 378 c 0,15,16
 691 384 691 384 616 393.5 c 128,-1,17
 541 403 541 403 471.5 420 c 128,-1,18
 402 437 402 437 341.5 464 c 128,-1,19
 281 491 281 491 236.5 530.5 c 128,-1,20
 192 570 192 570 166 625 c 128,-1,21
 140 680 140 680 140 754 c 0,22,23
 140 850 140 850 186 923 c 128,-1,24
 232 996 232 996 310.5 1045.5 c 128,-1,25
 389 1095 389 1095 493 1120.5 c 128,-1,26
 597 1146 597 1146 713 1146 c 0,27,28
 838 1146 838 1146 960.5 1109.5 c 128,-1,29
 1083 1073 1083 1073 1203 1018 c 1,30,-1
 1465 1126 l 1,31,-1
 1465 720 l 1,32,33
 1382 769 1382 769 1293.5 810 c 128,-1,34
 1205 851 1205 851 1117.5 880.5 c 128,-1,35
 1030 910 1030 910 946.5 926.5 c 128,-1,36
 863 943 863 943 791 943 c 0,37,38
 743 943 743 943 704 936 c 128,-1,39
 665 929 665 929 636.5 917 c 128,-1,40
 608 905 608 905 592.5 889 c 128,-1,41
 577 873 577 873 577 855 c 256,42,43
 577 837 577 837 590.5 823 c 128,-1,44
 604 809 604 809 644.5 796.5 c 128,-1,45
 685 784 685 784 759.5 772.5 c 128,-1,46
 834 761 834 761 955 749 c 0,47,48
 1074 737 1074 737 1183.5 713.5 c 128,-1,49
 1293 690 1293 690 1377 647.5 c 128,-1,50
 1461 605 1461 605 1511 537.5 c 128,-1,51
 1561 470 1561 470 1561 369 c 0,52,53
 1561 296 1561 296 1534.5 237 c 128,-1,54
 1508 178 1508 178 1463 133 c 128,-1,55
 1418 88 1418 88 1358 55.5 c 128,-1,56
 1298 23 1298 23 1230.5 2 c 128,-1,57
 1163 -19 1163 -19 1092 -29 c 128,-1,58
 1021 -39 1021 -39 954 -39 c 0,59,60
 822 -39 822 -39 693 -2.5 c 128,-1,61
 564 34 564 34 442 98 c 1,62,-1
 180 -19 l 1,63,-1
 180 425 l 1,0,1
EndSplineSet
EndChar

StartChar: t
Encoding: 116 116 87
Width: 1399
Flags: W
LayerCount: 2
Fore
SplineSet
232 903 m 1,0,-1
 60 903 l 1,1,-1
 60 1058 l 1,2,3
 131 1058 131 1058 193 1078.5 c 128,-1,4
 255 1099 255 1099 307.5 1134 c 128,-1,5
 360 1169 360 1169 401.5 1215.5 c 128,-1,6
 443 1262 443 1262 472 1313.5 c 128,-1,7
 501 1365 501 1365 516.5 1418.5 c 128,-1,8
 532 1472 532 1472 532 1522 c 1,9,-1
 729 1522 l 1,10,-1
 729 1107 l 1,11,-1
 1220 1107 l 1,12,-1
 1220 903 l 1,13,-1
 729 903 l 1,14,-1
 729 454 l 2,15,16
 729 361 729 361 751.5 306 c 128,-1,17
 774 251 774 251 809.5 223 c 128,-1,18
 845 195 845 195 887.5 187 c 128,-1,19
 930 179 930 179 970 179 c 0,20,21
 1072 179 1072 179 1131.5 237.5 c 128,-1,22
 1191 296 1191 296 1191 417 c 0,23,24
 1191 426 1191 426 1191 436 c 128,-1,25
 1191 446 1191 446 1189 457 c 1,26,-1
 1361 406 l 1,27,28
 1364 379 1364 379 1364 355 c 0,29,30
 1364 282 1364 282 1341 224 c 128,-1,31
 1318 166 1318 166 1278 122.5 c 128,-1,32
 1238 79 1238 79 1183.5 48 c 128,-1,33
 1129 17 1129 17 1067 -2 c 128,-1,34
 1005 -21 1005 -21 938 -30 c 128,-1,35
 871 -39 871 -39 805 -39 c 0,36,37
 674 -39 674 -39 568 -13 c 128,-1,38
 462 13 462 13 387.5 70 c 128,-1,39
 313 127 313 127 272.5 217.5 c 128,-1,40
 232 308 232 308 232 437 c 2,41,-1
 232 903 l 1,0,-1
EndSplineSet
EndChar

StartChar: u
Encoding: 117 117 88
Width: 1984
Flags: W
LayerCount: 2
Fore
SplineSet
281 833 m 1,0,-1
 10 1077 l 1,1,-1
 758 1107 l 1,2,-1
 758 544 l 2,3,4
 758 480 758 480 770 423 c 128,-1,5
 782 366 782 366 807.5 323 c 128,-1,6
 833 280 833 280 873 255 c 128,-1,7
 913 230 913 230 969 230 c 256,8,9
 1025 230 1025 230 1072 254 c 128,-1,10
 1119 278 1119 278 1152.5 324.5 c 128,-1,11
 1186 371 1186 371 1205 439 c 128,-1,12
 1224 507 1224 507 1224 594 c 2,13,-1
 1224 833 l 1,14,-1
 960 1077 l 1,15,-1
 1701 1107 l 1,16,-1
 1701 237 l 1,17,-1
 1963 13 l 1,18,-1
 1224 -17 l 1,19,-1
 1224 205 l 1,20,21
 1149 87 1149 87 1031.5 24 c 128,-1,22
 914 -39 914 -39 765 -39 c 0,23,24
 532 -39 532 -39 406.5 102.5 c 128,-1,25
 281 244 281 244 281 523 c 2,26,-1
 281 833 l 1,0,-1
EndSplineSet
EndChar

StartChar: v
Encoding: 118 118 89
Width: 1829
Flags: W
LayerCount: 2
Fore
SplineSet
229 852 m 1,0,-1
 -70 1107 l 1,1,-1
 859 1107 l 1,2,-1
 748 949 l 1,3,-1
 1017 252 l 1,4,-1
 1226 908 l 1,5,-1
 1070 1107 l 1,6,-1
 1859 1107 l 1,7,-1
 1600 900 l 1,8,-1
 1230 0 l 1,9,-1
 661 0 l 1,10,-1
 229 852 l 1,0,-1
EndSplineSet
EndChar

StartChar: w
Encoding: 119 119 90
Width: 2749
Flags: W
LayerCount: 2
Fore
SplineSet
222 851 m 1,0,-1
 -60 1107 l 1,1,-1
 839 1107 l 1,2,-1
 722 941 l 1,3,-1
 962 213 l 1,4,-1
 1161 934 l 1,5,-1
 1040 1107 l 1,6,-1
 1849 1107 l 1,7,-1
 1732 941 l 1,8,-1
 1972 213 l 1,9,-1
 2171 934 l 1,10,-1
 2050 1107 l 1,11,-1
 2769 1107 l 1,12,-1
 2529 874 l 1,13,-1
 2210 0 l 1,14,-1
 1601 0 l 1,15,-1
 1391 524 l 1,16,-1
 1200 0 l 1,17,-1
 591 0 l 1,18,-1
 222 851 l 1,0,-1
EndSplineSet
EndChar

StartChar: x
Encoding: 120 120 91
Width: 1759
Flags: W
LayerCount: 2
Fore
SplineSet
334 237 m 1,0,-1
 596 575 l 1,1,-1
 357 859 l 1,2,-1
 0 1107 l 1,3,-1
 869 1107 l 1,4,-1
 791 995 l 1,5,-1
 986 761 l 1,6,-1
 1127 982 l 1,7,-1
 1040 1107 l 1,8,-1
 1759 1107 l 1,9,-1
 1422 873 l 1,10,-1
 1166 544 l 1,11,-1
 1414 245 l 1,12,-1
 1759 0 l 1,13,-1
 910 0 l 1,14,-1
 987 111 l 1,15,-1
 781 355 l 1,16,-1
 622 123 l 1,17,-1
 709 0 l 1,18,-1
 0 0 l 1,19,-1
 334 237 l 1,0,-1
EndSplineSet
EndChar

StartChar: y
Encoding: 121 121 92
Width: 1752
Flags: W
LayerCount: 2
Fore
SplineSet
471 67 m 1,0,1
 459 23 459 23 459 -19 c 0,2,3
 459 -67 459 -67 472 -110.5 c 128,-1,4
 485 -154 485 -154 514 -187 c 128,-1,5
 543 -220 543 -220 588.5 -239.5 c 128,-1,6
 634 -259 634 -259 700 -259 c 0,7,8
 755 -259 755 -259 797 -237.5 c 128,-1,9
 839 -216 839 -216 870.5 -180.5 c 128,-1,10
 902 -145 902 -145 923.5 -98 c 128,-1,11
 945 -51 945 -51 958 0 c 1,12,-1
 641 0 l 1,13,-1
 255 890 l 1,14,-1
 0 1107 l 1,15,-1
 889 1107 l 1,16,-1
 772 941 l 1,17,-1
 1012 213 l 1,18,-1
 1211 934 l 1,19,-1
 1090 1107 l 1,20,-1
 1819 1107 l 1,21,-1
 1584 914 l 1,22,-1
 1250 0 l 2,23,24
 1197 -146 1197 -146 1132 -238.5 c 128,-1,25
 1067 -331 1067 -331 988.5 -383.5 c 128,-1,26
 910 -436 910 -436 817.5 -455.5 c 128,-1,27
 725 -475 725 -475 616 -475 c 0,28,29
 486 -475 486 -475 384.5 -446.5 c 128,-1,30
 283 -418 283 -418 213 -365.5 c 128,-1,31
 143 -313 143 -313 106.5 -238.5 c 128,-1,32
 70 -164 70 -164 70 -71 c 0,33,34
 70 -48 70 -48 73.5 -21 c 128,-1,35
 77 6 77 6 81 27 c 1,36,-1
 471 67 l 1,0,1
EndSplineSet
EndChar

StartChar: z
Encoding: 122 122 93
Width: 1688
Flags: W
LayerCount: 2
Fore
SplineSet
811 893 m 1,0,-1
 423 893 l 1,1,-1
 179 575 l 1,2,-1
 179 1107 l 1,3,-1
 1578 1107 l 1,4,-1
 852 214 l 1,5,-1
 1322 214 l 1,6,-1
 1569 552 l 1,7,-1
 1569 0 l 1,8,-1
 70 0 l 1,9,-1
 811 893 l 1,0,-1
EndSplineSet
EndChar

StartChar: braceleft
Encoding: 123 123 94
Width: 967
Flags: W
LayerCount: 2
Fore
SplineSet
224 180 m 0,0,1
 224 226 224 226 230.5 271 c 128,-1,2
 237 316 237 316 247 359 c 0,3,4
 260 415 260 415 270 465 c 128,-1,5
 280 515 280 515 280 553 c 0,6,7
 280 597 280 597 259 622.5 c 128,-1,8
 238 648 238 648 180 648 c 1,9,-1
 180 786 l 1,10,11
 238 786 238 786 259 811.5 c 128,-1,12
 280 837 280 837 280 881 c 0,13,14
 280 919 280 919 270 969 c 128,-1,15
 260 1019 260 1019 247 1075 c 0,16,17
 237 1118 237 1118 230.5 1163 c 128,-1,18
 224 1208 224 1208 224 1254 c 0,19,20
 224 1302 224 1302 234.5 1349.5 c 128,-1,21
 245 1397 245 1397 272 1440 c 128,-1,22
 299 1483 299 1483 344.5 1520 c 128,-1,23
 390 1557 390 1557 460.5 1586 c 128,-1,24
 531 1615 531 1615 629 1634 c 128,-1,25
 727 1653 727 1653 858 1660 c 1,26,-1
 907 1527 l 1,27,28
 817 1513 817 1513 759.5 1488.5 c 128,-1,29
 702 1464 702 1464 668.5 1431 c 128,-1,30
 635 1398 635 1398 622.5 1358.5 c 128,-1,31
 610 1319 610 1319 610 1276 c 0,32,33
 610 1240 610 1240 616.5 1201.5 c 128,-1,34
 623 1163 623 1163 631 1125 c 0,35,36
 641 1079 641 1079 649 1034 c 128,-1,37
 657 989 657 989 657 947 c 0,38,39
 657 907 657 907 646 871 c 128,-1,40
 635 835 635 835 606.5 805 c 128,-1,41
 578 775 578 775 528.5 752.5 c 128,-1,42
 479 730 479 730 402 717 c 1,43,44
 479 704 479 704 528.5 681.5 c 128,-1,45
 578 659 578 659 606.5 629 c 128,-1,46
 635 599 635 599 646 563 c 128,-1,47
 657 527 657 527 657 487 c 0,48,49
 657 445 657 445 649 400 c 128,-1,50
 641 355 641 355 631 309 c 0,51,52
 623 271 623 271 616.5 232.5 c 128,-1,53
 610 194 610 194 610 158 c 0,54,55
 610 114 610 114 622.5 75 c 128,-1,56
 635 36 635 36 668.5 3 c 128,-1,57
 702 -30 702 -30 759.5 -54.5 c 128,-1,58
 817 -79 817 -79 907 -93 c 1,59,-1
 858 -226 l 1,60,61
 727 -219 727 -219 629 -200 c 128,-1,62
 531 -181 531 -181 460.5 -152 c 128,-1,63
 390 -123 390 -123 344.5 -86 c 128,-1,64
 299 -49 299 -49 272 -6 c 128,-1,65
 245 37 245 37 234.5 84 c 128,-1,66
 224 131 224 131 224 180 c 0,0,1
EndSplineSet
EndChar

StartChar: bar
Encoding: 124 124 95
Width: 658
Flags: W
LayerCount: 2
Fore
SplineSet
230 1758 m 1,0,-1
 428 1758 l 1,1,-1
 428 -525 l 1,2,-1
 230 -525 l 1,3,-1
 230 1758 l 1,0,-1
EndSplineSet
EndChar

StartChar: braceright
Encoding: 125 125 96
Width: 967
Flags: W
LayerCount: 2
Fore
SplineSet
60 -93 m 1,0,1
 150 -79 150 -79 207.5 -54.5 c 128,-1,2
 265 -30 265 -30 298.5 3 c 128,-1,3
 332 36 332 36 344.5 75 c 128,-1,4
 357 114 357 114 357 158 c 0,5,6
 357 194 357 194 350.5 232.5 c 128,-1,7
 344 271 344 271 336 309 c 0,8,9
 326 355 326 355 318 400 c 128,-1,10
 310 445 310 445 310 487 c 0,11,12
 310 527 310 527 321 563 c 128,-1,13
 332 599 332 599 360.5 629 c 128,-1,14
 389 659 389 659 438.5 681.5 c 128,-1,15
 488 704 488 704 565 717 c 1,16,17
 488 730 488 730 438.5 752.5 c 128,-1,18
 389 775 389 775 360.5 805 c 128,-1,19
 332 835 332 835 321 871 c 128,-1,20
 310 907 310 907 310 947 c 0,21,22
 310 989 310 989 318 1034 c 128,-1,23
 326 1079 326 1079 336 1125 c 0,24,25
 344 1163 344 1163 350.5 1201.5 c 128,-1,26
 357 1240 357 1240 357 1276 c 0,27,28
 357 1319 357 1319 344.5 1358.5 c 128,-1,29
 332 1398 332 1398 298.5 1431 c 128,-1,30
 265 1464 265 1464 207.5 1488.5 c 128,-1,31
 150 1513 150 1513 60 1527 c 1,32,-1
 109 1660 l 1,33,34
 240 1653 240 1653 338 1634 c 128,-1,35
 436 1615 436 1615 506.5 1586 c 128,-1,36
 577 1557 577 1557 622.5 1520 c 128,-1,37
 668 1483 668 1483 695 1440 c 128,-1,38
 722 1397 722 1397 732.5 1349.5 c 128,-1,39
 743 1302 743 1302 743 1254 c 0,40,41
 743 1208 743 1208 736.5 1163 c 128,-1,42
 730 1118 730 1118 720 1075 c 0,43,44
 707 1019 707 1019 697 969 c 128,-1,45
 687 919 687 919 687 881 c 0,46,47
 687 837 687 837 708 811.5 c 128,-1,48
 729 786 729 786 787 786 c 1,49,-1
 787 648 l 1,50,51
 729 648 729 648 708 622.5 c 128,-1,52
 687 597 687 597 687 553 c 0,53,54
 687 515 687 515 697 465 c 128,-1,55
 707 415 707 415 720 359 c 0,56,57
 730 316 730 316 736.5 271 c 128,-1,58
 743 226 743 226 743 180 c 0,59,60
 743 132 743 132 732.5 84.5 c 128,-1,61
 722 37 722 37 695 -6 c 128,-1,62
 668 -49 668 -49 622.5 -86 c 128,-1,63
 577 -123 577 -123 506.5 -152 c 128,-1,64
 436 -181 436 -181 338 -200.5 c 128,-1,65
 240 -220 240 -220 109 -226 c 1,66,-1
 60 -93 l 1,0,1
EndSplineSet
EndChar

StartChar: asciitilde
Encoding: 126 126 97
Width: 1547
Flags: W
LayerCount: 2
Fore
SplineSet
94 620 m 1,0,1
 120 660 120 660 164.5 702.5 c 128,-1,2
 209 745 209 745 262.5 780 c 128,-1,3
 316 815 316 815 373.5 837.5 c 128,-1,4
 431 860 431 860 484 860 c 0,5,6
 572 860 572 860 658.5 842 c 128,-1,7
 745 824 745 824 832 803 c 0,8,9
 913 783 913 783 992 767.5 c 128,-1,10
 1071 752 1071 752 1150 752 c 0,11,12
 1170 752 1170 752 1198.5 755.5 c 128,-1,13
 1227 759 1227 759 1258 766 c 128,-1,14
 1289 773 1289 773 1318 784 c 128,-1,15
 1347 795 1347 795 1367 809 c 1,16,-1
 1453 734 l 1,17,18
 1426 694 1426 694 1381.5 651.5 c 128,-1,19
 1337 609 1337 609 1284 574.5 c 128,-1,20
 1231 540 1231 540 1173 518 c 128,-1,21
 1115 496 1115 496 1063 496 c 0,22,23
 966 496 966 496 875 515 c 128,-1,24
 784 534 784 534 693 557 c 0,25,26
 616 576 616 576 542 590 c 128,-1,27
 468 604 468 604 396 604 c 0,28,29
 376 604 376 604 347 600 c 128,-1,30
 318 596 318 596 288 588.5 c 128,-1,31
 258 581 258 581 229 570 c 128,-1,32
 200 559 200 559 180 545 c 1,33,-1
 94 620 l 1,0,1
EndSplineSet
EndChar

StartChar: exclamdown
Encoding: 161 161 98
Width: 739
Flags: W
LayerCount: 2
Fore
SplineSet
370 538 m 256,0,1
 318 538 318 538 272.5 557.5 c 128,-1,2
 227 577 227 577 193 611 c 128,-1,3
 159 645 159 645 139.5 690.5 c 128,-1,4
 120 736 120 736 120 788 c 256,5,6
 120 840 120 840 139.5 885 c 128,-1,7
 159 930 159 930 193 964 c 128,-1,8
 227 998 227 998 272.5 1017.5 c 128,-1,9
 318 1037 318 1037 370 1037 c 256,10,11
 422 1037 422 1037 467 1017.5 c 128,-1,12
 512 998 512 998 546 964 c 128,-1,13
 580 930 580 930 599.5 885 c 128,-1,14
 619 840 619 840 619 788 c 256,15,16
 619 736 619 736 599.5 690.5 c 128,-1,17
 580 645 580 645 546 611 c 128,-1,18
 512 577 512 577 467 557.5 c 128,-1,19
 422 538 422 538 370 538 c 256,0,1
508 400 m 1,20,21
 515 358 515 358 524 295.5 c 128,-1,22
 533 233 533 233 542.5 158 c 128,-1,23
 552 83 552 83 561.5 -2.5 c 128,-1,24
 571 -88 571 -88 579.5 -176.5 c 128,-1,25
 588 -265 588 -265 595.5 -353.5 c 128,-1,26
 603 -442 603 -442 608 -524 c 1,27,-1
 131 -524 l 1,28,29
 136 -442 136 -442 143.5 -353 c 128,-1,30
 151 -264 151 -264 159.5 -176 c 128,-1,31
 168 -88 168 -88 177.5 -2.5 c 128,-1,32
 187 83 187 83 196.5 158 c 128,-1,33
 206 233 206 233 214.5 295 c 128,-1,34
 223 357 223 357 231 400 c 1,35,-1
 508 400 l 1,20,21
EndSplineSet
EndChar

StartChar: cent
Encoding: 162 162 99
Width: 1754
Flags: W
LayerCount: 2
Fore
SplineSet
100 660 m 256,0,1
 100 788 100 788 157.5 892 c 128,-1,2
 215 996 215 996 314.5 1071.5 c 128,-1,3
 414 1147 414 1147 549 1190.5 c 128,-1,4
 684 1234 684 1234 840 1242 c 1,5,-1
 861 1528 l 1,6,-1
 1081 1528 l 1,7,-1
 1060 1235 l 1,8,9
 1166 1222 1166 1222 1247.5 1194.5 c 128,-1,10
 1329 1167 1329 1167 1388 1131 c 1,11,-1
 1597 1252 l 1,12,-1
 1597 768 l 1,13,-1
 1347 738 l 1,14,15
 1328 802 1328 802 1295 857 c 128,-1,16
 1262 912 1262 912 1215.5 952 c 128,-1,17
 1169 992 1169 992 1110 1014.5 c 128,-1,18
 1051 1037 1051 1037 981 1037 c 0,19,20
 917 1037 917 1037 853.5 1019 c 128,-1,21
 790 1001 790 1001 739.5 957.5 c 128,-1,22
 689 914 689 914 657.5 841.5 c 128,-1,23
 626 769 626 769 626 660 c 0,24,25
 626 568 626 568 658.5 499 c 128,-1,26
 691 430 691 430 744.5 383.5 c 128,-1,27
 798 337 798 337 867 314 c 128,-1,28
 936 291 936 291 1010 291 c 0,29,30
 1073 291 1073 291 1143.5 298.5 c 128,-1,31
 1214 306 1214 306 1282.5 327 c 128,-1,32
 1351 348 1351 348 1413 385 c 128,-1,33
 1475 422 1475 422 1521 481 c 1,34,-1
 1623 401 l 1,35,36
 1594 327 1594 327 1534.5 266 c 128,-1,37
 1475 205 1475 205 1391 160 c 128,-1,38
 1307 115 1307 115 1201.5 88.5 c 128,-1,39
 1096 62 1096 62 975 59 c 1,40,-1
 954 -235 l 1,41,-1
 728 -235 l 1,42,-1
 754 69 l 1,43,44
 598 86 598 86 476 132.5 c 128,-1,45
 354 179 354 179 270.5 253.5 c 128,-1,46
 187 328 187 328 143.5 430 c 128,-1,47
 100 532 100 532 100 660 c 256,0,1
EndSplineSet
EndChar

StartChar: sterling
Encoding: 163 163 100
Width: 1955
Flags: W
LayerCount: 2
Fore
SplineSet
62 232 m 0,0,1
 62 282 62 282 84.5 330 c 128,-1,2
 107 378 107 378 147.5 415 c 128,-1,3
 188 452 188 452 245.5 474.5 c 128,-1,4
 303 497 303 497 372 497 c 0,5,6
 420 497 420 497 470 494 c 1,7,8
 457 523 457 523 443.5 552 c 128,-1,9
 430 581 430 581 416 610 c 1,10,-1
 140 610 l 1,11,-1
 140 830 l 1,12,-1
 323 830 l 1,13,14
 306 878 306 878 296.5 923.5 c 128,-1,15
 287 969 287 969 287 1013 c 0,16,17
 287 1134 287 1134 330.5 1221 c 128,-1,18
 374 1308 374 1308 468.5 1363.5 c 128,-1,19
 563 1419 563 1419 712 1445.5 c 128,-1,20
 861 1472 861 1472 1073 1472 c 0,21,22
 1159 1472 1159 1472 1245.5 1464.5 c 128,-1,23
 1332 1457 1332 1457 1411 1441 c 128,-1,24
 1490 1425 1490 1425 1558.5 1400 c 128,-1,25
 1627 1375 1627 1375 1677 1339.5 c 128,-1,26
 1727 1304 1727 1304 1756 1257.5 c 128,-1,27
 1785 1211 1785 1211 1785 1152 c 0,28,29
 1785 1085 1785 1085 1747 1008 c 1,30,-1
 1325 957 l 1,31,32
 1330 978 1330 978 1332 999 c 128,-1,33
 1334 1020 1334 1020 1334 1045 c 0,34,35
 1334 1097 1334 1097 1315.5 1139 c 128,-1,36
 1297 1181 1297 1181 1262.5 1210.5 c 128,-1,37
 1228 1240 1228 1240 1179 1256 c 128,-1,38
 1130 1272 1130 1272 1069 1272 c 0,39,40
 1003 1272 1003 1272 955 1252.5 c 128,-1,41
 907 1233 907 1233 876 1200 c 128,-1,42
 845 1167 845 1167 830 1122.5 c 128,-1,43
 815 1078 815 1078 815 1027 c 0,44,45
 815 980 815 980 824 930.5 c 128,-1,46
 833 881 833 881 847 830 c 1,47,-1
 1406 830 l 1,48,-1
 1406 610 l 1,49,-1
 901 610 l 1,50,51
 906 581 906 581 909 552.5 c 128,-1,52
 912 524 912 524 912 495 c 0,53,54
 912 457 912 457 905 423 c 1,55,-1
 1030 394 l 2,56,57
 1051 389 1051 389 1081.5 383.5 c 128,-1,58
 1112 378 1112 378 1147 373 c 128,-1,59
 1182 368 1182 368 1219 363.5 c 128,-1,60
 1256 359 1256 359 1289 355.5 c 128,-1,61
 1322 352 1322 352 1348.5 350 c 128,-1,62
 1375 348 1375 348 1389 348 c 0,63,64
 1517 348 1517 348 1586.5 395.5 c 128,-1,65
 1656 443 1656 443 1677 531 c 1,66,-1
 1811 509 l 1,67,68
 1829 451 1829 451 1837.5 395.5 c 128,-1,69
 1846 340 1846 340 1846 294 c 0,70,71
 1846 227 1846 227 1825.5 166.5 c 128,-1,72
 1805 106 1805 106 1758 60.5 c 128,-1,73
 1711 15 1711 15 1635 -12 c 128,-1,74
 1559 -39 1559 -39 1448 -39 c 0,75,76
 1373 -39 1373 -39 1288.5 -23 c 128,-1,77
 1204 -7 1204 -7 1117.5 19 c 128,-1,78
 1031 45 1031 45 944.5 78 c 128,-1,79
 858 111 858 111 778 145 c 1,80,81
 729 63 729 63 632 12 c 128,-1,82
 535 -39 535 -39 392 -39 c 0,83,84
 330 -39 330 -39 271 -22.5 c 128,-1,85
 212 -6 212 -6 165.5 27.5 c 128,-1,86
 119 61 119 61 90.5 112 c 128,-1,87
 62 163 62 163 62 232 c 0,0,1
249 193 m 0,88,89
 249 145 249 145 285 113.5 c 128,-1,90
 321 82 321 82 382 82 c 0,91,92
 419 82 419 82 450 93 c 128,-1,93
 481 104 481 104 502.5 122.5 c 128,-1,94
 524 141 524 141 536 165.5 c 128,-1,95
 548 190 548 190 548 217 c 0,96,97
 548 224 548 224 547.5 230.5 c 128,-1,98
 547 237 547 237 546 244 c 1,99,100
 486 270 486 270 442.5 286 c 128,-1,101
 399 302 399 302 378 302 c 0,102,103
 321 302 321 302 285 273 c 128,-1,104
 249 244 249 244 249 193 c 0,88,89
EndSplineSet
EndChar

StartChar: currency
Encoding: 164 164 101
Width: 1573
Flags: W
LayerCount: 2
Fore
SplineSet
271 390 m 1,0,1
 226 460 226 460 202 541.5 c 128,-1,2
 178 623 178 623 178 714 c 256,3,4
 178 805 178 805 202.5 886.5 c 128,-1,5
 227 968 227 968 272 1039 c 1,6,-1
 65 1245 l 1,7,-1
 255 1433 l 1,8,-1
 462 1228 l 1,9,10
 532 1272 532 1272 613 1296 c 128,-1,11
 694 1320 694 1320 784 1320 c 256,12,13
 874 1320 874 1320 955.5 1295 c 128,-1,14
 1037 1270 1037 1270 1108 1225 c 1,15,-1
 1318 1433 l 1,16,-1
 1508 1245 l 1,17,-1
 1297 1036 l 1,18,19
 1342 966 1342 966 1366 884.5 c 128,-1,20
 1390 803 1390 803 1390 714 c 256,21,22
 1390 625 1390 625 1366 544 c 128,-1,23
 1342 463 1342 463 1298 393 c 1,24,-1
 1508 186 l 1,25,-1
 1318 -2 l 1,26,-1
 1110 203 l 1,27,28
 1039 158 1039 158 957 133 c 128,-1,29
 875 108 875 108 784 108 c 256,30,31
 693 108 693 108 611.5 132 c 128,-1,32
 530 156 530 156 460 201 c 1,33,-1
 255 -2 l 1,34,-1
 65 186 l 1,35,-1
 271 390 l 1,0,1
406 714 m 256,36,37
 406 636 406 636 435.5 567 c 128,-1,38
 465 498 465 498 516 447 c 128,-1,39
 567 396 567 396 636 366.5 c 128,-1,40
 705 337 705 337 784 337 c 0,41,42
 862 337 862 337 931 366.5 c 128,-1,43
 1000 396 1000 396 1051 447 c 128,-1,44
 1102 498 1102 498 1131.5 567 c 128,-1,45
 1161 636 1161 636 1161 714 c 256,46,47
 1161 792 1161 792 1131.5 861 c 128,-1,48
 1102 930 1102 930 1051 981 c 128,-1,49
 1000 1032 1000 1032 931 1061.5 c 128,-1,50
 862 1091 862 1091 784 1091 c 0,51,52
 705 1091 705 1091 636 1061.5 c 128,-1,53
 567 1032 567 1032 516 981 c 128,-1,54
 465 930 465 930 435.5 861 c 128,-1,55
 406 792 406 792 406 714 c 256,36,37
EndSplineSet
EndChar

StartChar: yen
Encoding: 165 165 102
Width: 1939
Flags: W
LayerCount: 2
Fore
SplineSet
264 422 m 1,0,-1
 731 422 l 1,1,-1
 731 440 l 1,2,-1
 667 542 l 1,3,-1
 264 542 l 1,4,-1
 264 742 l 1,5,-1
 542 742 l 1,6,-1
 262 1191 l 1,7,-1
 -40 1434 l 1,8,-1
 949 1434 l 1,9,-1
 814 1242 l 1,10,-1
 1092 743 l 1,11,-1
 1324 1233 l 1,12,-1
 1160 1434 l 1,13,-1
 1999 1434 l 1,14,-1
 1640 1184 l 1,15,-1
 1402 742 l 1,16,-1
 1730 742 l 1,17,-1
 1730 542 l 1,18,-1
 1295 542 l 1,19,-1
 1238 440 l 1,20,-1
 1238 422 l 1,21,-1
 1730 422 l 1,22,-1
 1730 222 l 1,23,-1
 1240 222 l 1,24,-1
 1488 0 l 1,25,-1
 499 0 l 1,26,-1
 729 222 l 1,27,-1
 264 222 l 1,28,-1
 264 422 l 1,0,-1
EndSplineSet
EndChar

StartChar: brokenbar
Encoding: 166 166 103
Width: 658
Flags: W
LayerCount: 2
Fore
SplineSet
230 1758 m 1,0,-1
 428 1758 l 1,1,-1
 428 775 l 1,2,-1
 230 775 l 1,3,-1
 230 1758 l 1,0,-1
428 458 m 1,4,-1
 428 -525 l 1,5,-1
 230 -525 l 1,6,-1
 230 458 l 1,7,-1
 428 458 l 1,4,-1
EndSplineSet
EndChar

StartChar: section
Encoding: 167 167 104
Width: 1741
Flags: W
LayerCount: 2
Fore
SplineSet
218 191 m 1,0,1
 294 141 294 141 381.5 95.5 c 128,-1,2
 469 50 469 50 563 15.5 c 128,-1,3
 657 -19 657 -19 755 -39.5 c 128,-1,4
 853 -60 853 -60 951 -60 c 0,5,6
 988 -60 988 -60 1024.5 -55 c 128,-1,7
 1061 -50 1061 -50 1089.5 -39.5 c 128,-1,8
 1118 -29 1118 -29 1135.5 -11.5 c 128,-1,9
 1153 6 1153 6 1153 31 c 0,10,11
 1153 52 1153 52 1139 66.5 c 128,-1,12
 1125 81 1125 81 1086.5 93 c 128,-1,13
 1048 105 1048 105 980 116 c 128,-1,14
 912 127 912 127 803 141 c 0,15,16
 729 150 729 150 654.5 162 c 128,-1,17
 580 174 580 174 510.5 192 c 128,-1,18
 441 210 441 210 380.5 236.5 c 128,-1,19
 320 263 320 263 275 302 c 128,-1,20
 230 341 230 341 204 394.5 c 128,-1,21
 178 448 178 448 178 520 c 0,22,23
 178 623 178 623 232 697 c 128,-1,24
 286 771 286 771 376 818 c 1,25,26
 334 836 334 836 300 859.5 c 128,-1,27
 266 883 266 883 241.5 915 c 128,-1,28
 217 947 217 947 203.5 988 c 128,-1,29
 190 1029 190 1029 190 1080 c 0,30,31
 190 1176 190 1176 236 1249 c 128,-1,32
 282 1322 282 1322 360.5 1371.5 c 128,-1,33
 439 1421 439 1421 543 1446.5 c 128,-1,34
 647 1472 647 1472 763 1472 c 0,35,36
 888 1472 888 1472 1010.5 1435.5 c 128,-1,37
 1133 1399 1133 1399 1253 1344 c 1,38,-1
 1515 1452 l 1,39,-1
 1515 1046 l 1,40,41
 1432 1095 1432 1095 1343.5 1136 c 128,-1,42
 1255 1177 1255 1177 1167.5 1206.5 c 128,-1,43
 1080 1236 1080 1236 996.5 1252.5 c 128,-1,44
 913 1269 913 1269 841 1269 c 0,45,46
 793 1269 793 1269 754 1262 c 128,-1,47
 715 1255 715 1255 686.5 1243 c 128,-1,48
 658 1231 658 1231 642.5 1215 c 128,-1,49
 627 1199 627 1199 627 1181 c 256,50,51
 627 1163 627 1163 641 1150.5 c 128,-1,52
 655 1138 655 1138 696 1127 c 128,-1,53
 737 1116 737 1116 811 1104.5 c 128,-1,54
 885 1093 885 1093 1005 1077 c 0,55,56
 1085 1066 1085 1066 1160.5 1052 c 128,-1,57
 1236 1038 1236 1038 1303.5 1017.5 c 128,-1,58
 1371 997 1371 997 1427.5 968.5 c 128,-1,59
 1484 940 1484 940 1524.5 900.5 c 128,-1,60
 1565 861 1565 861 1588 809 c 128,-1,61
 1611 757 1611 757 1611 690 c 0,62,63
 1611 635 1611 635 1595.5 590.5 c 128,-1,64
 1580 546 1580 546 1552.5 510 c 128,-1,65
 1525 474 1525 474 1486.5 446.5 c 128,-1,66
 1448 419 1448 419 1403 398 c 1,67,68
 1448 379 1448 379 1484 354.5 c 128,-1,69
 1520 330 1520 330 1545.5 297 c 128,-1,70
 1571 264 1571 264 1585 223 c 128,-1,71
 1599 182 1599 182 1599 130 c 0,72,73
 1599 58 1599 58 1572.5 0 c 128,-1,74
 1546 -58 1546 -58 1501 -103 c 128,-1,75
 1456 -148 1456 -148 1395.5 -180 c 128,-1,76
 1335 -212 1335 -212 1268 -232.5 c 128,-1,77
 1201 -253 1201 -253 1130 -263 c 128,-1,78
 1059 -273 1059 -273 992 -273 c 0,79,80
 860 -273 860 -273 731 -236.5 c 128,-1,81
 602 -200 602 -200 480 -136 c 1,82,-1
 218 -253 l 1,83,-1
 218 191 l 1,0,1
615 631 m 0,84,85
 615 610 615 610 629 590.5 c 128,-1,86
 643 571 643 571 684 553.5 c 128,-1,87
 725 536 725 536 799 519.5 c 128,-1,88
 873 503 873 503 993 487 c 2,89,-1
 1072 476 l 1,90,91
 1118 487 1118 487 1141.5 514.5 c 128,-1,92
 1165 542 1165 542 1165 581 c 0,93,94
 1165 605 1165 605 1151 626.5 c 128,-1,95
 1137 648 1137 648 1098.5 666.5 c 128,-1,96
 1060 685 1060 685 992 701 c 128,-1,97
 924 717 924 717 815 731 c 2,98,-1
 706 744 l 1,99,100
 678 737 678 737 660.5 724 c 128,-1,101
 643 711 643 711 633 695 c 128,-1,102
 623 679 623 679 619 662.5 c 128,-1,103
 615 646 615 646 615 631 c 0,84,85
EndSplineSet
EndChar

StartChar: dieresis
Encoding: 168 168 105
Width: 1299
Flags: W
LayerCount: 2
Fore
SplineSet
968 1224 m 256,0,1
 926 1224 926 1224 889 1239 c 128,-1,2
 852 1254 852 1254 825 1280.5 c 128,-1,3
 798 1307 798 1307 782 1343 c 128,-1,4
 766 1379 766 1379 766 1421 c 256,5,6
 766 1463 766 1463 782 1499.5 c 128,-1,7
 798 1536 798 1536 825 1562.5 c 128,-1,8
 852 1589 852 1589 889 1604 c 128,-1,9
 926 1619 926 1619 968 1619 c 256,10,11
 1010 1619 1010 1619 1047.5 1604 c 128,-1,12
 1085 1589 1085 1589 1112.5 1562.5 c 128,-1,13
 1140 1536 1140 1536 1156 1499.5 c 128,-1,14
 1172 1463 1172 1463 1172 1421 c 256,15,16
 1172 1379 1172 1379 1156 1343 c 128,-1,17
 1140 1307 1140 1307 1112.5 1280.5 c 128,-1,18
 1085 1254 1085 1254 1047.5 1239 c 128,-1,19
 1010 1224 1010 1224 968 1224 c 256,0,1
362 1224 m 256,20,21
 320 1224 320 1224 283 1239 c 128,-1,22
 246 1254 246 1254 219 1280.5 c 128,-1,23
 192 1307 192 1307 176 1343 c 128,-1,24
 160 1379 160 1379 160 1421 c 256,25,26
 160 1463 160 1463 176 1499.5 c 128,-1,27
 192 1536 192 1536 219 1562.5 c 128,-1,28
 246 1589 246 1589 283 1604 c 128,-1,29
 320 1619 320 1619 362 1619 c 256,30,31
 404 1619 404 1619 441.5 1604 c 128,-1,32
 479 1589 479 1589 506.5 1562.5 c 128,-1,33
 534 1536 534 1536 550 1499.5 c 128,-1,34
 566 1463 566 1463 566 1421 c 256,35,36
 566 1379 566 1379 550 1343 c 128,-1,37
 534 1307 534 1307 506.5 1280.5 c 128,-1,38
 479 1254 479 1254 441.5 1239 c 128,-1,39
 404 1224 404 1224 362 1224 c 256,20,21
EndSplineSet
EndChar

StartChar: copyright
Encoding: 169 169 106
Width: 1754
Flags: W
LayerCount: 2
Fore
SplineSet
56 717 m 0,0,1
 56 821 56 821 85.5 918 c 128,-1,2
 115 1015 115 1015 168 1099 c 128,-1,3
 221 1183 221 1183 296 1252 c 128,-1,4
 371 1321 371 1321 462 1370.5 c 128,-1,5
 553 1420 553 1420 658 1447 c 128,-1,6
 763 1474 763 1474 876 1474 c 256,7,8
 989 1474 989 1474 1094 1447 c 128,-1,9
 1199 1420 1199 1420 1290 1370.5 c 128,-1,10
 1381 1321 1381 1321 1456 1252 c 128,-1,11
 1531 1183 1531 1183 1584.5 1099 c 128,-1,12
 1638 1015 1638 1015 1667.5 918 c 128,-1,13
 1697 821 1697 821 1697 717 c 256,14,15
 1697 613 1697 613 1667.5 516 c 128,-1,16
 1638 419 1638 419 1584.5 335 c 128,-1,17
 1531 251 1531 251 1456 182 c 128,-1,18
 1381 113 1381 113 1290 63.5 c 128,-1,19
 1199 14 1199 14 1094 -13 c 128,-1,20
 989 -40 989 -40 876 -40 c 256,21,22
 763 -40 763 -40 658 -13 c 128,-1,23
 553 14 553 14 462 63.5 c 128,-1,24
 371 113 371 113 296 182 c 128,-1,25
 221 251 221 251 168 335 c 128,-1,26
 115 419 115 419 85.5 515.5 c 128,-1,27
 56 612 56 612 56 717 c 0,0,1
228 713 m 0,28,29
 228 579 228 579 279 461 c 128,-1,30
 330 343 330 343 418 255 c 128,-1,31
 506 167 506 167 624 116 c 128,-1,32
 742 65 742 65 876 65 c 256,33,34
 1010 65 1010 65 1128 116 c 128,-1,35
 1246 167 1246 167 1334 255 c 128,-1,36
 1422 343 1422 343 1473 461 c 128,-1,37
 1524 579 1524 579 1524 713 c 0,38,39
 1524 802 1524 802 1501 885 c 128,-1,40
 1478 968 1478 968 1435.5 1040 c 128,-1,41
 1393 1112 1393 1112 1334 1171 c 128,-1,42
 1275 1230 1275 1230 1203 1272.5 c 128,-1,43
 1131 1315 1131 1315 1048 1338 c 128,-1,44
 965 1361 965 1361 876 1361 c 256,45,46
 787 1361 787 1361 704 1338 c 128,-1,47
 621 1315 621 1315 549 1272.5 c 128,-1,48
 477 1230 477 1230 418 1171 c 128,-1,49
 359 1112 359 1112 316.5 1040 c 128,-1,50
 274 968 274 968 251 885 c 128,-1,51
 228 802 228 802 228 713 c 0,28,29
374 699 m 0,52,53
 374 783 374 783 396.5 848.5 c 128,-1,54
 419 914 419 914 457.5 963.5 c 128,-1,55
 496 1013 496 1013 548 1047 c 128,-1,56
 600 1081 600 1081 658.5 1102.5 c 128,-1,57
 717 1124 717 1124 779.5 1133.5 c 128,-1,58
 842 1143 842 1143 903 1143 c 0,59,60
 1001 1143 1001 1143 1076.5 1119 c 128,-1,61
 1152 1095 1152 1095 1202 1065 c 1,62,-1
 1231 1103 l 1,63,-1
 1342 1103 l 1,64,-1
 1342 831 l 1,65,-1
 1172 802 l 1,66,67
 1160 848 1160 848 1140 888.5 c 128,-1,68
 1120 929 1120 929 1091 959 c 128,-1,69
 1062 989 1062 989 1022 1006 c 128,-1,70
 982 1023 982 1023 931 1023 c 0,71,72
 865 1023 865 1023 817.5 1001.5 c 128,-1,73
 770 980 770 980 739.5 940 c 128,-1,74
 709 900 709 900 694.5 842 c 128,-1,75
 680 784 680 784 680 712 c 0,76,77
 680 637 680 637 699.5 581.5 c 128,-1,78
 719 526 719 526 752 490 c 128,-1,79
 785 454 785 454 827 436 c 128,-1,80
 869 418 869 418 914 418 c 256,81,82
 959 418 959 418 1002 428.5 c 128,-1,83
 1045 439 1045 439 1078.5 463 c 128,-1,84
 1112 487 1112 487 1134.5 525 c 128,-1,85
 1157 563 1157 563 1162 619 c 1,86,-1
 1342 619 l 1,87,88
 1340 537 1340 537 1302 475 c 128,-1,89
 1264 413 1264 413 1200 371 c 128,-1,90
 1136 329 1136 329 1051.5 307.5 c 128,-1,91
 967 286 967 286 872 286 c 0,92,93
 813 286 813 286 753.5 296 c 128,-1,94
 694 306 694 306 638.5 327.5 c 128,-1,95
 583 349 583 349 535 381.5 c 128,-1,96
 487 414 487 414 451 460 c 128,-1,97
 415 506 415 506 394.5 565.5 c 128,-1,98
 374 625 374 625 374 699 c 0,52,53
EndSplineSet
EndChar

StartChar: ordfeminine
Encoding: 170 170 107
Width: 1350
Flags: W
LayerCount: 2
Fore
SplineSet
444 884 m 256,0,1
 398 884 398 884 346.5 896 c 128,-1,2
 295 908 295 908 251.5 936 c 128,-1,3
 208 964 208 964 179 1010.5 c 128,-1,4
 150 1057 150 1057 150 1126 c 0,5,6
 150 1185 150 1185 172 1228.5 c 128,-1,7
 194 1272 194 1272 231 1303 c 128,-1,8
 268 1334 268 1334 317.5 1353 c 128,-1,9
 367 1372 367 1372 422 1383 c 128,-1,10
 477 1394 477 1394 534.5 1398 c 128,-1,11
 592 1402 592 1402 645 1402 c 0,12,13
 674 1402 674 1402 707.5 1401 c 128,-1,14
 741 1400 741 1400 774 1398 c 1,15,16
 772 1447 772 1447 764.5 1485.5 c 128,-1,17
 757 1524 757 1524 741 1550.5 c 128,-1,18
 725 1577 725 1577 698.5 1590.5 c 128,-1,19
 672 1604 672 1604 631 1604 c 0,20,21
 603 1604 603 1604 576 1596.5 c 128,-1,22
 549 1589 549 1589 526.5 1572 c 128,-1,23
 504 1555 504 1555 488 1527.5 c 128,-1,24
 472 1500 472 1500 467 1460 c 1,25,-1
 180 1507 l 1,26,27
 180 1557 180 1557 201.5 1596 c 128,-1,28
 223 1635 223 1635 259.5 1663.5 c 128,-1,29
 296 1692 296 1692 344 1711.5 c 128,-1,30
 392 1731 392 1731 445 1743.5 c 128,-1,31
 498 1756 498 1756 552.5 1761 c 128,-1,32
 607 1766 607 1766 657 1766 c 0,33,34
 750 1766 750 1766 831.5 1750 c 128,-1,35
 913 1734 913 1734 974 1691.5 c 128,-1,36
 1035 1649 1035 1649 1070 1575 c 128,-1,37
 1105 1501 1105 1501 1105 1385 c 2,38,-1
 1105 1123 l 2,39,40
 1105 1063 1105 1063 1129.5 1040 c 128,-1,41
 1154 1017 1154 1017 1199 1017 c 1,42,-1
 1199 929 l 1,43,44
 1186 915 1186 915 1136.5 899.5 c 128,-1,45
 1087 884 1087 884 1009 884 c 0,46,47
 962 884 962 884 925 889 c 128,-1,48
 888 894 888 894 860 907.5 c 128,-1,49
 832 921 832 921 813.5 944.5 c 128,-1,50
 795 968 795 968 785 1004 c 1,51,52
 754 972 754 972 714 949.5 c 128,-1,53
 674 927 674 927 629.5 912.5 c 128,-1,54
 585 898 585 898 537.5 891 c 128,-1,55
 490 884 490 884 444 884 c 256,0,1
604 1051 m 256,56,57
 627 1051 627 1051 656 1057.5 c 128,-1,58
 685 1064 685 1064 710.5 1078.5 c 128,-1,59
 736 1093 736 1093 754 1117 c 128,-1,60
 772 1141 772 1141 775 1176 c 1,61,-1
 775 1273 l 1,62,-1
 743 1273 l 2,63,64
 609 1273 609 1273 551 1242 c 128,-1,65
 493 1211 493 1211 493 1156 c 0,66,67
 493 1136 493 1136 502 1117 c 128,-1,68
 511 1098 511 1098 526 1083.5 c 128,-1,69
 541 1069 541 1069 561 1060 c 128,-1,70
 581 1051 581 1051 604 1051 c 256,56,57
EndSplineSet
EndChar

StartChar: guillemotleft
Encoding: 171 171 108
Width: 1653
Flags: W
LayerCount: 2
Fore
SplineSet
1437 1121 m 1,0,-1
 1563 1045 l 1,1,-1
 1258 581 l 1,2,-1
 1563 123 l 1,3,-1
 1437 47 l 1,4,-1
 790 584 l 1,5,-1
 1437 1121 l 1,0,-1
737 1121 m 1,6,-1
 863 1045 l 1,7,-1
 558 581 l 1,8,-1
 863 123 l 1,9,-1
 737 47 l 1,10,-1
 90 584 l 1,11,-1
 737 1121 l 1,6,-1
EndSplineSet
EndChar

StartChar: logicalnot
Encoding: 172 172 109
Width: 1404
Flags: W
LayerCount: 2
Fore
SplineSet
143 1234 m 1,0,-1
 1254 1234 l 1,1,-1
 1254 667 l 1,2,-1
 1012 667 l 1,3,-1
 1012 992 l 1,4,-1
 143 992 l 1,5,-1
 143 1234 l 1,0,-1
EndSplineSet
EndChar

StartChar: uni00AD
Encoding: 173 173 110
Width: 1368
Flags: W
LayerCount: 2
Fore
SplineSet
180 851 m 1,0,-1
 1188 851 l 1,1,-1
 1188 609 l 1,2,-1
 180 609 l 1,3,-1
 180 851 l 1,0,-1
EndSplineSet
EndChar

StartChar: registered
Encoding: 174 174 111
Width: 1754
Flags: W
LayerCount: 2
Fore
SplineSet
56 717 m 0,0,1
 56 821 56 821 85.5 918 c 128,-1,2
 115 1015 115 1015 168 1099 c 128,-1,3
 221 1183 221 1183 296 1252 c 128,-1,4
 371 1321 371 1321 462 1370.5 c 128,-1,5
 553 1420 553 1420 658 1447 c 128,-1,6
 763 1474 763 1474 876 1474 c 256,7,8
 989 1474 989 1474 1094 1447 c 128,-1,9
 1199 1420 1199 1420 1290 1370.5 c 128,-1,10
 1381 1321 1381 1321 1456 1252 c 128,-1,11
 1531 1183 1531 1183 1584.5 1099 c 128,-1,12
 1638 1015 1638 1015 1667.5 918 c 128,-1,13
 1697 821 1697 821 1697 717 c 256,14,15
 1697 613 1697 613 1667.5 516 c 128,-1,16
 1638 419 1638 419 1584.5 335 c 128,-1,17
 1531 251 1531 251 1456 182 c 128,-1,18
 1381 113 1381 113 1290 63.5 c 128,-1,19
 1199 14 1199 14 1094 -13 c 128,-1,20
 989 -40 989 -40 876 -40 c 256,21,22
 763 -40 763 -40 658 -13 c 128,-1,23
 553 14 553 14 462 63.5 c 128,-1,24
 371 113 371 113 296 182 c 128,-1,25
 221 251 221 251 168 335 c 128,-1,26
 115 419 115 419 85.5 515.5 c 128,-1,27
 56 612 56 612 56 717 c 0,0,1
228 713 m 0,28,29
 228 579 228 579 279 461 c 128,-1,30
 330 343 330 343 418 255 c 128,-1,31
 506 167 506 167 624 116 c 128,-1,32
 742 65 742 65 876 65 c 256,33,34
 1010 65 1010 65 1128 116 c 128,-1,35
 1246 167 1246 167 1334 255 c 128,-1,36
 1422 343 1422 343 1473 461 c 128,-1,37
 1524 579 1524 579 1524 713 c 0,38,39
 1524 802 1524 802 1501 885 c 128,-1,40
 1478 968 1478 968 1435.5 1040 c 128,-1,41
 1393 1112 1393 1112 1334 1171 c 128,-1,42
 1275 1230 1275 1230 1203 1272.5 c 128,-1,43
 1131 1315 1131 1315 1048 1338 c 128,-1,44
 965 1361 965 1361 876 1361 c 256,45,46
 787 1361 787 1361 704 1338 c 128,-1,47
 621 1315 621 1315 549 1272.5 c 128,-1,48
 477 1230 477 1230 418 1171 c 128,-1,49
 359 1112 359 1112 316.5 1040 c 128,-1,50
 274 968 274 968 251 885 c 128,-1,51
 228 802 228 802 228 713 c 0,28,29
493 474 m 1,52,-1
 493 972 l 1,53,-1
 404 1110 l 1,54,55
 455 1111 455 1111 520.5 1111.5 c 128,-1,56
 586 1112 586 1112 651 1112.5 c 128,-1,57
 716 1113 716 1113 773 1113.5 c 128,-1,58
 830 1114 830 1114 865 1114 c 0,59,60
 914 1114 914 1114 967.5 1112 c 128,-1,61
 1021 1110 1021 1110 1072.5 1102.5 c 128,-1,62
 1124 1095 1124 1095 1170.5 1080.5 c 128,-1,63
 1217 1066 1217 1066 1252 1042 c 128,-1,64
 1287 1018 1287 1018 1308 983 c 128,-1,65
 1329 948 1329 948 1329 898 c 0,66,67
 1329 822 1329 822 1279 775.5 c 128,-1,68
 1229 729 1229 729 1144 703 c 1,69,70
 1177 698 1177 698 1206 680.5 c 128,-1,71
 1235 663 1235 663 1256 635.5 c 128,-1,72
 1277 608 1277 608 1289.5 572.5 c 128,-1,73
 1302 537 1302 537 1302 495 c 2,74,-1
 1302 463 l 1,75,-1
 1376 337 l 1,76,-1
 941 337 l 1,77,-1
 1018 450 l 1,78,-1
 1018 518 l 2,79,80
 1018 546 1018 546 1010.5 569.5 c 128,-1,81
 1003 593 1003 593 989.5 610 c 128,-1,82
 976 627 976 627 958.5 636.5 c 128,-1,83
 941 646 941 646 921 646 c 2,84,-1
 763 646 l 1,85,-1
 763 474 l 1,86,-1
 856 337 l 1,87,-1
 382 337 l 1,88,-1
 493 474 l 1,52,-1
838 752 m 2,89,90
 892 752 892 752 932 757 c 128,-1,91
 972 762 972 762 998.5 775 c 128,-1,92
 1025 788 1025 788 1038 811.5 c 128,-1,93
 1051 835 1051 835 1051 872 c 0,94,95
 1051 915 1051 915 1031 940 c 128,-1,96
 1011 965 1011 965 979.5 978 c 128,-1,97
 948 991 948 991 910.5 994 c 128,-1,98
 873 997 873 997 838 997 c 2,99,-1
 763 997 l 1,100,-1
 763 752 l 1,101,-1
 838 752 l 2,89,90
EndSplineSet
EndChar

StartChar: macron
Encoding: 175 175 112
Width: 1707
Flags: W
LayerCount: 2
Fore
SplineSet
212 1851 m 1,0,-1
 1220 1851 l 1,1,-1
 1220 1609 l 1,2,-1
 212 1609 l 1,3,-1
 212 1851 l 1,0,-1
EndSplineSet
EndChar

StartChar: degree
Encoding: 176 176 113
Width: 940
Flags: W
LayerCount: 2
Fore
SplineSet
469 981 m 256,0,1
 385 981 385 981 311 1013 c 128,-1,2
 237 1045 237 1045 182 1100 c 128,-1,3
 127 1155 127 1155 95 1229 c 128,-1,4
 63 1303 63 1303 63 1387 c 256,5,6
 63 1471 63 1471 95 1545.5 c 128,-1,7
 127 1620 127 1620 182 1675.5 c 128,-1,8
 237 1731 237 1731 311 1763 c 128,-1,9
 385 1795 385 1795 469 1795 c 256,10,11
 553 1795 553 1795 627.5 1763 c 128,-1,12
 702 1731 702 1731 757.5 1675.5 c 128,-1,13
 813 1620 813 1620 845 1545.5 c 128,-1,14
 877 1471 877 1471 877 1387 c 256,15,16
 877 1303 877 1303 845 1229 c 128,-1,17
 813 1155 813 1155 757.5 1100 c 128,-1,18
 702 1045 702 1045 627.5 1013 c 128,-1,19
 553 981 553 981 469 981 c 256,0,1
469 1172 m 0,20,21
 514 1172 514 1172 553.5 1189 c 128,-1,22
 593 1206 593 1206 622.5 1235 c 128,-1,23
 652 1264 652 1264 669 1303.5 c 128,-1,24
 686 1343 686 1343 686 1387 c 0,25,26
 686 1432 686 1432 669 1471.5 c 128,-1,27
 652 1511 652 1511 622.5 1540.5 c 128,-1,28
 593 1570 593 1570 553.5 1587 c 128,-1,29
 514 1604 514 1604 469 1604 c 0,30,31
 425 1604 425 1604 385.5 1587 c 128,-1,32
 346 1570 346 1570 317 1540.5 c 128,-1,33
 288 1511 288 1511 271 1471.5 c 128,-1,34
 254 1432 254 1432 254 1387 c 0,35,36
 254 1343 254 1343 271 1303.5 c 128,-1,37
 288 1264 288 1264 317 1235 c 128,-1,38
 346 1206 346 1206 385.5 1189 c 128,-1,39
 425 1172 425 1172 469 1172 c 0,20,21
EndSplineSet
EndChar

StartChar: plusminus
Encoding: 177 177 114
Width: 1294
Flags: W
LayerCount: 2
Fore
SplineSet
526 719 m 1,0,-1
 143 719 l 1,1,-1
 143 961 l 1,2,-1
 526 961 l 1,3,-1
 526 1344 l 1,4,-1
 768 1344 l 1,5,-1
 768 961 l 1,6,-1
 1151 961 l 1,7,-1
 1151 719 l 1,8,-1
 768 719 l 1,9,-1
 768 337 l 1,10,-1
 526 337 l 1,11,-1
 526 719 l 1,0,-1
143 242 m 1,12,-1
 1151 242 l 1,13,-1
 1151 0 l 1,14,-1
 143 0 l 1,15,-1
 143 242 l 1,12,-1
EndSplineSet
EndChar

StartChar: twosuperior
Encoding: 178 178 115
Width: 1375
Flags: W
LayerCount: 2
Fore
SplineSet
220 1026 m 1,0,1
 205 1058 205 1058 196 1093 c 128,-1,2
 187 1128 187 1128 187 1170 c 0,3,4
 187 1241 187 1241 215.5 1289.5 c 128,-1,5
 244 1338 244 1338 290.5 1371 c 128,-1,6
 337 1404 337 1404 396.5 1424.5 c 128,-1,7
 456 1445 456 1445 518 1460 c 128,-1,8
 580 1475 580 1475 639.5 1488.5 c 128,-1,9
 699 1502 699 1502 745.5 1521 c 128,-1,10
 792 1540 792 1540 820.5 1567 c 128,-1,11
 849 1594 849 1594 849 1637 c 0,12,13
 849 1673 849 1673 835 1700 c 128,-1,14
 821 1727 821 1727 798 1745 c 128,-1,15
 775 1763 775 1763 745 1772 c 128,-1,16
 715 1781 715 1781 683 1781 c 0,17,18
 590 1781 590 1781 543 1738.5 c 128,-1,19
 496 1696 496 1696 496 1598 c 0,20,21
 496 1576 496 1576 504 1546 c 1,22,-1
 209 1592 l 1,23,24
 206 1607 206 1607 205 1620.5 c 128,-1,25
 204 1634 204 1634 204 1648 c 0,26,27
 204 1701 204 1701 225.5 1741 c 128,-1,28
 247 1781 247 1781 284 1810 c 128,-1,29
 321 1839 321 1839 371 1858 c 128,-1,30
 421 1877 421 1877 478.5 1888.5 c 128,-1,31
 536 1900 536 1900 597 1904.5 c 128,-1,32
 658 1909 658 1909 718 1909 c 0,33,34
 963 1909 963 1909 1088 1836.5 c 128,-1,35
 1213 1764 1213 1764 1213 1632 c 0,36,37
 1213 1562 1213 1562 1181 1514.5 c 128,-1,38
 1149 1467 1149 1467 1096.5 1434.5 c 128,-1,39
 1044 1402 1044 1402 976.5 1381.5 c 128,-1,40
 909 1361 909 1361 839 1346.5 c 128,-1,41
 769 1332 769 1332 701.5 1320 c 128,-1,42
 634 1308 634 1308 581.5 1292.5 c 128,-1,43
 529 1277 529 1277 497 1254.5 c 128,-1,44
 465 1232 465 1232 465 1196 c 0,45,46
 465 1194 465 1194 465.5 1190.5 c 128,-1,47
 466 1187 466 1187 466 1184 c 1,48,-1
 986 1184 l 1,49,-1
 1193 1387 l 1,50,-1
 1193 1026 l 1,51,-1
 220 1026 l 1,0,1
EndSplineSet
EndChar

StartChar: threesuperior
Encoding: 179 179 116
Width: 1415
Flags: W
LayerCount: 2
Fore
SplineSet
690 1003 m 0,0,1
 631 1003 631 1003 570 1009.5 c 128,-1,2
 509 1016 509 1016 452 1030 c 128,-1,3
 395 1044 395 1044 345.5 1065 c 128,-1,4
 296 1086 296 1086 258.5 1115 c 128,-1,5
 221 1144 221 1144 199.5 1181.5 c 128,-1,6
 178 1219 178 1219 178 1265 c 0,7,8
 178 1278 178 1278 179 1292 c 128,-1,9
 180 1306 180 1306 182 1320 c 1,10,-1
 506 1320 l 1,11,12
 506 1225 506 1225 560 1177.5 c 128,-1,13
 614 1130 614 1130 711 1130 c 0,14,15
 796 1130 796 1130 840 1165.5 c 128,-1,16
 884 1201 884 1201 884 1261 c 0,17,18
 884 1303 884 1303 864.5 1330.5 c 128,-1,19
 845 1358 845 1358 808.5 1374.5 c 128,-1,20
 772 1391 772 1391 720.5 1397.5 c 128,-1,21
 669 1404 669 1404 605 1404 c 1,22,-1
 620 1500 l 1,23,24
 729 1500 729 1500 779.5 1538.5 c 128,-1,25
 830 1577 830 1577 830 1652 c 0,26,27
 830 1709 830 1709 797 1748 c 128,-1,28
 764 1787 764 1787 699 1787 c 0,29,30
 622 1787 622 1787 582.5 1743 c 128,-1,31
 543 1699 543 1699 543 1598 c 1,32,-1
 222 1598 l 1,33,34
 219 1605 219 1605 217.5 1620 c 128,-1,35
 216 1635 216 1635 216 1648 c 0,36,37
 216 1698 216 1698 238 1737 c 128,-1,38
 260 1776 260 1776 296.5 1805 c 128,-1,39
 333 1834 333 1834 381.5 1854 c 128,-1,40
 430 1874 430 1874 482.5 1886 c 128,-1,41
 535 1898 535 1898 588.5 1903.5 c 128,-1,42
 642 1909 642 1909 690 1909 c 0,43,44
 944 1909 944 1909 1078 1840.5 c 128,-1,45
 1212 1772 1212 1772 1212 1643 c 0,46,47
 1212 1613 1212 1613 1197 1588.5 c 128,-1,48
 1182 1564 1182 1564 1157.5 1545 c 128,-1,49
 1133 1526 1133 1526 1101 1512 c 128,-1,50
 1069 1498 1069 1498 1034.5 1488.5 c 128,-1,51
 1000 1479 1000 1479 966 1473 c 128,-1,52
 932 1467 932 1467 903 1464 c 1,53,54
 935 1464 935 1464 974 1461 c 128,-1,55
 1013 1458 1013 1458 1053.5 1450.5 c 128,-1,56
 1094 1443 1094 1443 1132 1429.5 c 128,-1,57
 1170 1416 1170 1416 1200 1394.5 c 128,-1,58
 1230 1373 1230 1373 1248 1342 c 128,-1,59
 1266 1311 1266 1311 1266 1270 c 0,60,61
 1266 1207 1266 1207 1223.5 1157.5 c 128,-1,62
 1181 1108 1181 1108 1104.5 1073.5 c 128,-1,63
 1028 1039 1028 1039 922 1021 c 128,-1,64
 816 1003 816 1003 690 1003 c 0,0,1
EndSplineSet
EndChar

StartChar: acute
Encoding: 180 180 117
Width: 906
Flags: W
LayerCount: 2
Fore
SplineSet
601 1624 m 1,0,-1
 1102 1624 l 1,1,-1
 502 1208 l 1,2,-1
 291 1208 l 1,3,-1
 601 1624 l 1,0,-1
EndSplineSet
EndChar

StartChar: mu
Encoding: 181 181 118
AltUni2: 0003bc.ffffffff.0
Width: 1932
Flags: W
LayerCount: 2
Fore
SplineSet
220 990 m 1,0,-1
 687 1033 l 1,1,-1
 687 576 l 2,2,3
 687 492 687 492 700 424.5 c 128,-1,4
 713 357 713 357 741.5 309.5 c 128,-1,5
 770 262 770 262 815 237 c 128,-1,6
 860 212 860 212 925 212 c 0,7,8
 988 212 988 212 1031.5 235 c 128,-1,9
 1075 258 1075 258 1102 298.5 c 128,-1,10
 1129 339 1129 339 1141 394 c 128,-1,11
 1153 449 1153 449 1153 513 c 2,12,-1
 1153 990 l 1,13,-1
 1630 1033 l 1,14,-1
 1630 237 l 1,15,-1
 1892 83 l 1,16,-1
 1253 -17 l 1,17,-1
 1173 156 l 1,18,19
 1148 114 1148 114 1117.5 84.5 c 128,-1,20
 1087 55 1087 55 1052.5 36.5 c 128,-1,21
 1018 18 1018 18 980.5 9 c 128,-1,22
 943 0 943 0 905 0 c 0,23,24
 832 0 832 0 776 19.5 c 128,-1,25
 720 39 720 39 687 92 c 1,26,-1
 687 -436 l 1,27,-1
 220 -436 l 1,28,-1
 220 990 l 1,0,-1
EndSplineSet
EndChar

StartChar: paragraph
Encoding: 182 182 119
Width: 1975
Flags: W
LayerCount: 2
Fore
SplineSet
772 486 m 0,0,1
 597 486 597 486 466.5 508.5 c 128,-1,2
 336 531 336 531 250 584.5 c 128,-1,3
 164 638 164 638 121 727.5 c 128,-1,4
 78 817 78 817 78 951 c 0,5,6
 78 1065 78 1065 115.5 1155.5 c 128,-1,7
 153 1246 153 1246 234 1309.5 c 128,-1,8
 315 1373 315 1373 441.5 1407 c 128,-1,9
 568 1441 568 1441 746 1441 c 0,10,11
 776 1441 776 1441 820 1440.5 c 128,-1,12
 864 1440 864 1440 910 1439 c 128,-1,13
 956 1438 956 1438 999 1436.5 c 128,-1,14
 1042 1435 1042 1435 1070 1434 c 1,15,-1
 1070 500 l 1,16,17
 1038 497 1038 497 1000.5 494.5 c 128,-1,18
 963 492 963 492 923.5 490 c 128,-1,19
 884 488 884 488 845 487 c 128,-1,20
 806 486 806 486 772 486 c 0,0,1
1277 -46 m 1,21,-1
 1277 1434 l 1,22,-1
 1944 1434 l 1,23,-1
 1634 1180 l 1,24,-1
 1634 -46 l 1,25,-1
 1945 -300 l 1,26,-1
 896 -300 l 1,27,-1
 1277 -46 l 1,21,-1
EndSplineSet
EndChar

StartChar: periodcentered
Encoding: 183 183 120
Width: 739
Flags: W
LayerCount: 2
Fore
SplineSet
369 361 m 256,0,1
 317 361 317 361 271.5 380.5 c 128,-1,2
 226 400 226 400 192.5 433.5 c 128,-1,3
 159 467 159 467 139.5 512.5 c 128,-1,4
 120 558 120 558 120 610 c 256,5,6
 120 662 120 662 139.5 707.5 c 128,-1,7
 159 753 159 753 192.5 787 c 128,-1,8
 226 821 226 821 271.5 840.5 c 128,-1,9
 317 860 317 860 369 860 c 256,10,11
 421 860 421 860 466.5 840.5 c 128,-1,12
 512 821 512 821 546 787 c 128,-1,13
 580 753 580 753 599.5 707.5 c 128,-1,14
 619 662 619 662 619 610 c 256,15,16
 619 558 619 558 599.5 512.5 c 128,-1,17
 580 467 580 467 546 433.5 c 128,-1,18
 512 400 512 400 466.5 380.5 c 128,-1,19
 421 361 421 361 369 361 c 256,0,1
EndSplineSet
EndChar

StartChar: cedilla
Encoding: 184 184 121
Width: 809
Flags: W
LayerCount: 2
Fore
SplineSet
146 -182 m 1,0,1
 182 -244 182 -244 238 -276.5 c 128,-1,2
 294 -309 294 -309 379 -309 c 0,3,4
 400 -309 400 -309 418.5 -306 c 128,-1,5
 437 -303 437 -303 451.5 -295.5 c 128,-1,6
 466 -288 466 -288 474 -276 c 128,-1,7
 482 -264 482 -264 482 -247 c 0,8,9
 482 -223 482 -223 468 -209.5 c 128,-1,10
 454 -196 454 -196 431 -188.5 c 128,-1,11
 408 -181 408 -181 378.5 -179 c 128,-1,12
 349 -177 349 -177 318 -177 c 1,13,-1
 351 91 l 1,14,-1
 575 43 l 1,15,-1
 575 -91 l 1,16,17
 636 -91 636 -91 687.5 -103.5 c 128,-1,18
 739 -116 739 -116 776 -141 c 128,-1,19
 813 -166 813 -166 834 -203 c 128,-1,20
 855 -240 855 -240 855 -289 c 0,21,22
 855 -343 855 -343 819.5 -382.5 c 128,-1,23
 784 -422 784 -422 728.5 -447.5 c 128,-1,24
 673 -473 673 -473 603.5 -485 c 128,-1,25
 534 -497 534 -497 467 -497 c 0,26,27
 391 -497 391 -497 319 -485.5 c 128,-1,28
 247 -474 247 -474 185 -447 c 128,-1,29
 123 -420 123 -420 73.5 -375.5 c 128,-1,30
 24 -331 24 -331 -7 -264 c 1,31,-1
 146 -182 l 1,0,1
EndSplineSet
EndChar

StartChar: onesuperior
Encoding: 185 185 122
Width: 973
Flags: W
LayerCount: 2
Fore
SplineSet
343 1172 m 1,0,-1
 343 1674 l 1,1,-1
 174 1748 l 1,2,-1
 497 1886 l 1,3,-1
 671 1886 l 1,4,-1
 671 1172 l 1,5,-1
 834 1026 l 1,6,-1
 180 1026 l 1,7,-1
 343 1172 l 1,0,-1
EndSplineSet
EndChar

StartChar: ordmasculine
Encoding: 186 186 123
Width: 1350
Flags: W
LayerCount: 2
Fore
SplineSet
676 884 m 0,0,1
 559 884 559 884 460 909.5 c 128,-1,2
 361 935 361 935 289 989 c 128,-1,3
 217 1043 217 1043 176 1126 c 128,-1,4
 135 1209 135 1209 135 1324 c 0,5,6
 135 1438 135 1438 176 1521.5 c 128,-1,7
 217 1605 217 1605 289 1659.5 c 128,-1,8
 361 1714 361 1714 460 1740 c 128,-1,9
 559 1766 559 1766 676 1766 c 0,10,11
 792 1766 792 1766 890.5 1740 c 128,-1,12
 989 1714 989 1714 1061 1659.5 c 128,-1,13
 1133 1605 1133 1605 1173.5 1521.5 c 128,-1,14
 1214 1438 1214 1438 1214 1324 c 0,15,16
 1214 1209 1214 1209 1173.5 1126 c 128,-1,17
 1133 1043 1133 1043 1061 989 c 128,-1,18
 989 935 989 935 890.5 909.5 c 128,-1,19
 792 884 792 884 676 884 c 0,0,1
676 1034 m 0,20,21
 715 1034 715 1034 750 1053.5 c 128,-1,22
 785 1073 785 1073 811 1110.5 c 128,-1,23
 837 1148 837 1148 852.5 1202 c 128,-1,24
 868 1256 868 1256 868 1324 c 0,25,26
 868 1393 868 1393 852.5 1447.5 c 128,-1,27
 837 1502 837 1502 811 1540 c 128,-1,28
 785 1578 785 1578 750 1598 c 128,-1,29
 715 1618 715 1618 676 1618 c 0,30,31
 635 1618 635 1618 599.5 1598 c 128,-1,32
 564 1578 564 1578 538 1540 c 128,-1,33
 512 1502 512 1502 496.5 1447.5 c 128,-1,34
 481 1393 481 1393 481 1324 c 0,35,36
 481 1256 481 1256 496.5 1202 c 128,-1,37
 512 1148 512 1148 538 1110.5 c 128,-1,38
 564 1073 564 1073 599.5 1053.5 c 128,-1,39
 635 1034 635 1034 676 1034 c 0,20,21
EndSplineSet
EndChar

StartChar: guillemotright
Encoding: 187 187 124
Width: 1633
Flags: W
LayerCount: 2
Fore
SplineSet
1074 581 m 1,0,-1
 770 1045 l 1,1,-1
 896 1121 l 1,2,-1
 1543 584 l 1,3,-1
 896 47 l 1,4,-1
 770 123 l 1,5,-1
 1074 581 l 1,0,-1
394 581 m 1,6,-1
 90 1045 l 1,7,-1
 216 1121 l 1,8,-1
 863 584 l 1,9,-1
 216 47 l 1,10,-1
 90 123 l 1,11,-1
 394 581 l 1,6,-1
EndSplineSet
EndChar

StartChar: onequarter
Encoding: 188 188 125
Width: 2400
Flags: W
LayerCount: 2
Fore
SplineSet
363 695 m 1,0,-1
 363 1257 l 1,1,-1
 164 1331 l 1,2,-1
 577 1469 l 1,3,-1
 691 1469 l 1,4,-1
 691 695 l 1,5,-1
 854 549 l 1,6,-1
 200 549 l 1,7,-1
 363 695 l 1,0,-1
1490 1434 m 1,8,-1
 1721 1434 l 1,9,-1
 826 0 l 1,10,-1
 597 0 l 1,11,-1
 1490 1434 l 1,8,-1
1186 312 m 1,12,-1
 1682 936 l 1,13,-1
 2084 936 l 1,14,-1
 2084 370 l 1,15,-1
 2319 370 l 1,16,-1
 2319 219 l 1,17,-1
 2084 219 l 1,18,-1
 2084 146 l 1,19,-1
 2247 0 l 1,20,-1
 1575 0 l 1,21,-1
 1738 146 l 1,22,-1
 1738 219 l 1,23,-1
 1186 219 l 1,24,-1
 1186 312 l 1,12,-1
1738 370 m 1,25,-1
 1738 724 l 1,26,-1
 1464 370 l 1,27,-1
 1738 370 l 1,25,-1
EndSplineSet
EndChar

StartChar: onehalf
Encoding: 189 189 126
Width: 2607
Flags: W
LayerCount: 2
Fore
SplineSet
363 695 m 1,0,-1
 363 1257 l 1,1,-1
 164 1331 l 1,2,-1
 577 1469 l 1,3,-1
 691 1469 l 1,4,-1
 691 695 l 1,5,-1
 854 549 l 1,6,-1
 200 549 l 1,7,-1
 363 695 l 1,0,-1
1490 1434 m 1,8,-1
 1721 1434 l 1,9,-1
 826 0 l 1,10,-1
 597 0 l 1,11,-1
 1490 1434 l 1,8,-1
1419 144 m 0,12,13
 1419 215 1419 215 1447.5 265.5 c 128,-1,14
 1476 316 1476 316 1522.5 352.5 c 128,-1,15
 1569 389 1569 389 1628.5 414 c 128,-1,16
 1688 439 1688 439 1750 459 c 128,-1,17
 1812 479 1812 479 1871.5 497 c 128,-1,18
 1931 515 1931 515 1977.5 537 c 128,-1,19
 2024 559 2024 559 2052.5 588.5 c 128,-1,20
 2081 618 2081 618 2081 661 c 0,21,22
 2081 697 2081 697 2067 724 c 128,-1,23
 2053 751 2053 751 2030 769 c 128,-1,24
 2007 787 2007 787 1977 796 c 128,-1,25
 1947 805 1947 805 1915 805 c 0,26,27
 1822 805 1822 805 1780 762.5 c 128,-1,28
 1738 720 1738 720 1738 622 c 0,29,30
 1738 600 1738 600 1746 570 c 1,31,-1
 1431 616 l 1,32,33
 1428 631 1428 631 1427 644.5 c 128,-1,34
 1426 658 1426 658 1426 672 c 0,35,36
 1426 725 1426 725 1448 765 c 128,-1,37
 1470 805 1470 805 1508.5 834 c 128,-1,38
 1547 863 1547 863 1598.5 882 c 128,-1,39
 1650 901 1650 901 1708 912.5 c 128,-1,40
 1766 924 1766 924 1828 928.5 c 128,-1,41
 1890 933 1890 933 1950 933 c 0,42,43
 2195 933 2195 933 2320 860.5 c 128,-1,44
 2445 788 2445 788 2445 656 c 0,45,46
 2445 586 2445 586 2415.5 536 c 128,-1,47
 2386 486 2386 486 2338 450 c 128,-1,48
 2290 414 2290 414 2228.5 389.5 c 128,-1,49
 2167 365 2167 365 2103 345.5 c 128,-1,50
 2039 326 2039 326 1977.5 309.5 c 128,-1,51
 1916 293 1916 293 1868 274 c 128,-1,52
 1820 255 1820 255 1790.5 230.5 c 128,-1,53
 1761 206 1761 206 1761 170 c 0,54,55
 1761 168 1761 168 1761.5 164.5 c 128,-1,56
 1762 161 1762 161 1762 158 c 1,57,-1
 2181 158 l 1,58,-1
 2425 361 l 1,59,-1
 2425 0 l 1,60,-1
 1452 0 l 1,61,62
 1437 32 1437 32 1428 67 c 128,-1,63
 1419 102 1419 102 1419 144 c 0,12,13
EndSplineSet
EndChar

StartChar: threequarters
Encoding: 190 190 127
Width: 2744
Flags: W
LayerCount: 2
Fore
SplineSet
189 812 m 0,0,1
 189 825 189 825 190 839 c 128,-1,2
 191 853 191 853 193 867 c 1,3,-1
 506 867 l 1,4,5
 506 820 506 820 521.5 782 c 128,-1,6
 537 744 537 744 565.5 717.5 c 128,-1,7
 594 691 594 691 633.5 676.5 c 128,-1,8
 673 662 673 662 721 662 c 0,9,10
 806 662 806 662 850 697.5 c 128,-1,11
 894 733 894 733 894 793 c 0,12,13
 894 835 894 835 874.5 865.5 c 128,-1,14
 855 896 855 896 818.5 916.5 c 128,-1,15
 782 937 782 937 730.5 946.5 c 128,-1,16
 679 956 679 956 615 956 c 1,17,-1
 630 1062 l 1,18,19
 738 1062 738 1062 789 1107.5 c 128,-1,20
 840 1153 840 1153 840 1228 c 0,21,22
 840 1285 840 1285 807 1324 c 128,-1,23
 774 1363 774 1363 709 1363 c 0,24,25
 632 1363 632 1363 587.5 1318.5 c 128,-1,26
 543 1274 543 1274 543 1174 c 1,27,-1
 243 1174 l 1,28,29
 240 1181 240 1181 238.5 1196 c 128,-1,30
 237 1211 237 1211 237 1224 c 0,31,32
 237 1275 237 1275 257.5 1313.5 c 128,-1,33
 278 1352 278 1352 312.5 1381 c 128,-1,34
 347 1410 347 1410 392.5 1430 c 128,-1,35
 438 1450 438 1450 488 1462 c 128,-1,36
 538 1474 538 1474 590 1479.5 c 128,-1,37
 642 1485 642 1485 690 1485 c 0,38,39
 816 1485 816 1485 913 1466.5 c 128,-1,40
 1010 1448 1010 1448 1075.5 1414.5 c 128,-1,41
 1141 1381 1141 1381 1174.5 1332.5 c 128,-1,42
 1208 1284 1208 1284 1208 1224 c 0,43,44
 1208 1179 1208 1179 1176.5 1144 c 128,-1,45
 1145 1109 1145 1109 1099 1084.5 c 128,-1,46
 1053 1060 1053 1060 999.5 1045.5 c 128,-1,47
 946 1031 946 1031 903 1027 c 1,48,49
 935 1027 935 1027 972.5 1022 c 128,-1,50
 1010 1017 1010 1017 1048 1005.5 c 128,-1,51
 1086 994 1086 994 1122 976.5 c 128,-1,52
 1158 959 1158 959 1185.5 934 c 128,-1,53
 1213 909 1213 909 1229.5 876 c 128,-1,54
 1246 843 1246 843 1246 802 c 0,55,56
 1246 739 1246 739 1206.5 689.5 c 128,-1,57
 1167 640 1167 640 1094.5 605.5 c 128,-1,58
 1022 571 1022 571 919 553 c 128,-1,59
 816 535 816 535 690 535 c 0,60,61
 601 535 601 535 512 550 c 128,-1,62
 423 565 423 565 351 598 c 128,-1,63
 279 631 279 631 234 683.5 c 128,-1,64
 189 736 189 736 189 812 c 0,0,1
1770 1434 m 1,65,-1
 2001 1434 l 1,66,-1
 1106 0 l 1,67,-1
 877 0 l 1,68,-1
 1770 1434 l 1,65,-1
1519 312 m 1,69,-1
 2015 936 l 1,70,-1
 2417 936 l 1,71,-1
 2417 370 l 1,72,-1
 2652 370 l 1,73,-1
 2652 219 l 1,74,-1
 2417 219 l 1,75,-1
 2417 146 l 1,76,-1
 2580 0 l 1,77,-1
 1908 0 l 1,78,-1
 2071 146 l 1,79,-1
 2071 219 l 1,80,-1
 1519 219 l 1,81,-1
 1519 312 l 1,69,-1
2071 370 m 1,82,-1
 2071 724 l 1,83,-1
 1797 370 l 1,84,-1
 2071 370 l 1,82,-1
EndSplineSet
EndChar

StartChar: questiondown
Encoding: 191 191 128
Width: 1766
Flags: W
LayerCount: 2
Fore
SplineSet
646 787 m 256,0,1
 646 839 646 839 665.5 884 c 128,-1,2
 685 929 685 929 719 963 c 128,-1,3
 753 997 753 997 798.5 1016.5 c 128,-1,4
 844 1036 844 1036 896 1036 c 256,5,6
 948 1036 948 1036 993 1016.5 c 128,-1,7
 1038 997 1038 997 1072 963 c 128,-1,8
 1106 929 1106 929 1125.5 884 c 128,-1,9
 1145 839 1145 839 1145 787 c 256,10,11
 1145 735 1145 735 1125.5 689.5 c 128,-1,12
 1106 644 1106 644 1072 610 c 128,-1,13
 1038 576 1038 576 993 556.5 c 128,-1,14
 948 537 948 537 896 537 c 256,15,16
 844 537 844 537 798.5 556.5 c 128,-1,17
 753 576 753 576 719 610 c 128,-1,18
 685 644 685 644 665.5 689.5 c 128,-1,19
 646 735 646 735 646 787 c 256,0,1
111 -124 m 0,20,21
 111 -54 111 -54 138 -3.5 c 128,-1,22
 165 47 165 47 209 83.5 c 128,-1,23
 253 120 253 120 309.5 145.5 c 128,-1,24
 366 171 366 171 425 191 c 128,-1,25
 484 211 484 211 540.5 227.5 c 128,-1,26
 597 244 597 244 641 263 c 128,-1,27
 685 282 685 282 712 305.5 c 128,-1,28
 739 329 739 329 739 363 c 0,29,30
 739 382 739 382 732 400 c 1,31,-1
 1076 400 l 1,32,33
 1085 377 1085 377 1089 355.5 c 128,-1,34
 1093 334 1093 334 1093 315 c 0,35,36
 1093 254 1093 254 1055.5 212.5 c 128,-1,37
 1018 171 1018 171 961.5 140.5 c 128,-1,38
 905 110 905 110 839.5 87 c 128,-1,39
 774 64 774 64 717.5 38.5 c 128,-1,40
 661 13 661 13 623.5 -19.5 c 128,-1,41
 586 -52 586 -52 586 -99 c 256,42,43
 586 -146 586 -146 611.5 -181.5 c 128,-1,44
 637 -217 637 -217 679 -241 c 128,-1,45
 721 -265 721 -265 775.5 -277 c 128,-1,46
 830 -289 830 -289 888 -289 c 0,47,48
 958 -289 958 -289 1022.5 -272.5 c 128,-1,49
 1087 -256 1087 -256 1136.5 -220 c 128,-1,50
 1186 -184 1186 -184 1215.5 -126 c 128,-1,51
 1245 -68 1245 -68 1245 15 c 0,52,53
 1245 35 1245 35 1242.5 57 c 128,-1,54
 1240 79 1240 79 1234 102 c 1,55,-1
 1632 25 l 1,56,57
 1636 1 1636 1 1638 -22 c 128,-1,58
 1640 -45 1640 -45 1640 -67 c 0,59,60
 1640 -151 1640 -151 1612 -215.5 c 128,-1,61
 1584 -280 1584 -280 1533.5 -328.5 c 128,-1,62
 1483 -377 1483 -377 1414.5 -410.5 c 128,-1,63
 1346 -444 1346 -444 1264.5 -464.5 c 128,-1,64
 1183 -485 1183 -485 1092.5 -494 c 128,-1,65
 1002 -503 1002 -503 908 -503 c 0,66,67
 733 -503 733 -503 586.5 -481 c 128,-1,68
 440 -459 440 -459 334.5 -413 c 128,-1,69
 229 -367 229 -367 170 -295 c 128,-1,70
 111 -223 111 -223 111 -124 c 0,20,21
EndSplineSet
EndChar

StartChar: Agrave
Encoding: 192 192 129
Width: 2126
Flags: W
LayerCount: 2
Fore
SplineSet
321 1879 m 1,0,-1
 972 1879 l 1,1,-1
 1382 1563 l 1,2,-1
 1031 1563 l 1,3,-1
 321 1879 l 1,0,-1
234 251 m 1,4,-1
 705 1189 l 1,5,-1
 495 1434 l 1,6,-1
 1662 1434 l 1,7,-1
 1481 1180 l 1,8,-1
 1903 253 l 1,9,-1
 2166 0 l 1,10,-1
 1116 0 l 1,11,-1
 1334 251 l 1,12,-1
 1291 356 l 1,13,-1
 631 356 l 1,14,-1
 584 251 l 1,15,-1
 871 0 l 1,16,-1
 -60 0 l 1,17,-1
 234 251 l 1,4,-1
1207 565 m 1,18,-1
 978 1129 l 1,19,-1
 725 565 l 1,20,-1
 1207 565 l 1,18,-1
EndSplineSet
EndChar

StartChar: Aacute
Encoding: 193 193 130
Width: 2126
Flags: W
LayerCount: 2
Fore
SplineSet
1120 1879 m 1,0,-1
 1791 1879 l 1,1,-1
 1081 1563 l 1,2,-1
 710 1563 l 1,3,-1
 1120 1879 l 1,0,-1
234 251 m 1,4,-1
 705 1189 l 1,5,-1
 495 1434 l 1,6,-1
 1662 1434 l 1,7,-1
 1481 1180 l 1,8,-1
 1903 253 l 1,9,-1
 2166 0 l 1,10,-1
 1116 0 l 1,11,-1
 1334 251 l 1,12,-1
 1291 356 l 1,13,-1
 631 356 l 1,14,-1
 584 251 l 1,15,-1
 871 0 l 1,16,-1
 -60 0 l 1,17,-1
 234 251 l 1,4,-1
1207 565 m 1,18,-1
 978 1129 l 1,19,-1
 725 565 l 1,20,-1
 1207 565 l 1,18,-1
EndSplineSet
EndChar

StartChar: Acircumflex
Encoding: 194 194 131
Width: 2126
Flags: W
LayerCount: 2
Fore
SplineSet
833 1879 m 1,0,-1
 1274 1879 l 1,1,-1
 1685 1563 l 1,2,-1
 1384 1563 l 1,3,-1
 1053 1679 l 1,4,-1
 714 1563 l 1,5,-1
 413 1563 l 1,6,-1
 833 1879 l 1,0,-1
234 251 m 1,7,-1
 705 1189 l 1,8,-1
 495 1434 l 1,9,-1
 1662 1434 l 1,10,-1
 1481 1180 l 1,11,-1
 1903 253 l 1,12,-1
 2166 0 l 1,13,-1
 1116 0 l 1,14,-1
 1334 251 l 1,15,-1
 1291 356 l 1,16,-1
 631 356 l 1,17,-1
 584 251 l 1,18,-1
 871 0 l 1,19,-1
 -60 0 l 1,20,-1
 234 251 l 1,7,-1
1207 565 m 1,21,-1
 978 1129 l 1,22,-1
 725 565 l 1,23,-1
 1207 565 l 1,21,-1
EndSplineSet
EndChar

StartChar: Atilde
Encoding: 195 195 132
Width: 2126
Flags: W
LayerCount: 2
Fore
SplineSet
440 1681 m 1,0,1
 466 1715 466 1715 505.5 1753.5 c 128,-1,2
 545 1792 545 1792 596.5 1824.5 c 128,-1,3
 648 1857 648 1857 711.5 1878.5 c 128,-1,4
 775 1900 775 1900 850 1900 c 0,5,6
 916 1900 916 1900 976.5 1886 c 128,-1,7
 1037 1872 1037 1872 1097 1852 c 0,8,9
 1167 1829 1167 1829 1238.5 1810.5 c 128,-1,10
 1310 1792 1310 1792 1388 1792 c 0,11,12
 1444 1792 1444 1792 1492.5 1808 c 128,-1,13
 1541 1824 1541 1824 1593 1850 c 1,14,-1
 1679 1775 l 1,15,16
 1652 1741 1652 1741 1613 1702.5 c 128,-1,17
 1574 1664 1574 1664 1522.5 1631.5 c 128,-1,18
 1471 1599 1471 1599 1407.5 1577.5 c 128,-1,19
 1344 1556 1344 1556 1269 1556 c 0,20,21
 1195 1556 1195 1556 1127.5 1573.5 c 128,-1,22
 1060 1591 1060 1591 992 1613 c 0,23,24
 929 1633 929 1633 864.5 1648.5 c 128,-1,25
 800 1664 800 1664 730 1664 c 0,26,27
 674 1664 674 1664 625.5 1648 c 128,-1,28
 577 1632 577 1632 526 1606 c 1,29,-1
 440 1681 l 1,0,1
234 251 m 1,30,-1
 705 1189 l 1,31,-1
 495 1434 l 1,32,-1
 1662 1434 l 1,33,-1
 1481 1180 l 1,34,-1
 1903 253 l 1,35,-1
 2166 0 l 1,36,-1
 1116 0 l 1,37,-1
 1334 251 l 1,38,-1
 1291 356 l 1,39,-1
 631 356 l 1,40,-1
 584 251 l 1,41,-1
 871 0 l 1,42,-1
 -60 0 l 1,43,-1
 234 251 l 1,30,-1
1207 565 m 1,44,-1
 978 1129 l 1,45,-1
 725 565 l 1,46,-1
 1207 565 l 1,44,-1
EndSplineSet
EndChar

StartChar: Adieresis
Encoding: 196 196 133
Width: 2126
Flags: W
LayerCount: 2
Fore
SplineSet
1355 1542 m 256,0,1
 1313 1542 1313 1542 1276 1555.5 c 128,-1,2
 1239 1569 1239 1569 1212 1593.5 c 128,-1,3
 1185 1618 1185 1618 1169 1652.5 c 128,-1,4
 1153 1687 1153 1687 1153 1729 c 256,5,6
 1153 1771 1153 1771 1169 1806 c 128,-1,7
 1185 1841 1185 1841 1212 1865.5 c 128,-1,8
 1239 1890 1239 1890 1276 1903.5 c 128,-1,9
 1313 1917 1313 1917 1355 1917 c 256,10,11
 1397 1917 1397 1917 1434.5 1903.5 c 128,-1,12
 1472 1890 1472 1890 1499.5 1865.5 c 128,-1,13
 1527 1841 1527 1841 1543 1806 c 128,-1,14
 1559 1771 1559 1771 1559 1729 c 256,15,16
 1559 1687 1559 1687 1543 1652.5 c 128,-1,17
 1527 1618 1527 1618 1499.5 1593.5 c 128,-1,18
 1472 1569 1472 1569 1434.5 1555.5 c 128,-1,19
 1397 1542 1397 1542 1355 1542 c 256,0,1
749 1542 m 256,20,21
 707 1542 707 1542 670 1555.5 c 128,-1,22
 633 1569 633 1569 606 1593.5 c 128,-1,23
 579 1618 579 1618 563 1652.5 c 128,-1,24
 547 1687 547 1687 547 1729 c 256,25,26
 547 1771 547 1771 563 1806 c 128,-1,27
 579 1841 579 1841 606 1865.5 c 128,-1,28
 633 1890 633 1890 670 1903.5 c 128,-1,29
 707 1917 707 1917 749 1917 c 256,30,31
 791 1917 791 1917 828.5 1903.5 c 128,-1,32
 866 1890 866 1890 893.5 1865.5 c 128,-1,33
 921 1841 921 1841 937 1806 c 128,-1,34
 953 1771 953 1771 953 1729 c 256,35,36
 953 1687 953 1687 937 1652.5 c 128,-1,37
 921 1618 921 1618 893.5 1593.5 c 128,-1,38
 866 1569 866 1569 828.5 1555.5 c 128,-1,39
 791 1542 791 1542 749 1542 c 256,20,21
234 251 m 1,40,-1
 705 1189 l 1,41,-1
 495 1434 l 1,42,-1
 1662 1434 l 1,43,-1
 1481 1180 l 1,44,-1
 1903 253 l 1,45,-1
 2166 0 l 1,46,-1
 1116 0 l 1,47,-1
 1334 251 l 1,48,-1
 1291 356 l 1,49,-1
 631 356 l 1,50,-1
 584 251 l 1,51,-1
 871 0 l 1,52,-1
 -60 0 l 1,53,-1
 234 251 l 1,40,-1
1207 565 m 1,54,-1
 978 1129 l 1,55,-1
 725 565 l 1,56,-1
 1207 565 l 1,54,-1
EndSplineSet
EndChar

StartChar: Aring
Encoding: 197 197 134
Width: 2126
Flags: W
LayerCount: 2
Fore
SplineSet
234 251 m 1,0,-1
 705 1189 l 1,1,-1
 495 1434 l 1,2,-1
 906 1434 l 1,3,4
 859 1472 859 1472 831.5 1526.5 c 128,-1,5
 804 1581 804 1581 804 1645 c 0,6,7
 804 1701 804 1701 825.5 1750.5 c 128,-1,8
 847 1800 847 1800 883.5 1837 c 128,-1,9
 920 1874 920 1874 969.5 1895.5 c 128,-1,10
 1019 1917 1019 1917 1075 1917 c 256,11,12
 1131 1917 1131 1917 1180.5 1895.5 c 128,-1,13
 1230 1874 1230 1874 1267 1837 c 128,-1,14
 1304 1800 1304 1800 1325.5 1750.5 c 128,-1,15
 1347 1701 1347 1701 1347 1645 c 0,16,17
 1347 1581 1347 1581 1319.5 1526.5 c 128,-1,18
 1292 1472 1292 1472 1245 1434 c 1,19,-1
 1662 1434 l 1,20,-1
 1481 1180 l 1,21,-1
 1903 253 l 1,22,-1
 2166 0 l 1,23,-1
 1116 0 l 1,24,-1
 1334 251 l 1,25,-1
 1291 356 l 1,26,-1
 631 356 l 1,27,-1
 584 251 l 1,28,-1
 871 0 l 1,29,-1
 -60 0 l 1,30,-1
 234 251 l 1,0,-1
1075 1517 m 256,31,32
 1102 1517 1102 1517 1125.5 1527 c 128,-1,33
 1149 1537 1149 1537 1166.5 1554.5 c 128,-1,34
 1184 1572 1184 1572 1194 1595 c 128,-1,35
 1204 1618 1204 1618 1204 1645 c 256,36,37
 1204 1672 1204 1672 1194 1695.5 c 128,-1,38
 1184 1719 1184 1719 1166.5 1736.5 c 128,-1,39
 1149 1754 1149 1754 1125.5 1764 c 128,-1,40
 1102 1774 1102 1774 1075 1774 c 256,41,42
 1048 1774 1048 1774 1025 1764 c 128,-1,43
 1002 1754 1002 1754 984.5 1736.5 c 128,-1,44
 967 1719 967 1719 957 1695.5 c 128,-1,45
 947 1672 947 1672 947 1645 c 256,46,47
 947 1618 947 1618 957 1595 c 128,-1,48
 967 1572 967 1572 984.5 1554.5 c 128,-1,49
 1002 1537 1002 1537 1025 1527 c 128,-1,50
 1048 1517 1048 1517 1075 1517 c 256,31,32
1207 565 m 1,51,-1
 978 1129 l 1,52,-1
 725 565 l 1,53,-1
 1207 565 l 1,51,-1
EndSplineSet
EndChar

StartChar: AE
Encoding: 198 198 135
Width: 2640
Flags: W
LayerCount: 2
Fore
SplineSet
823 1307 m 1,0,-1
 683 1434 l 1,1,-1
 2500 1434 l 1,2,-1
 2480 938 l 1,3,-1
 2081 1205 l 1,4,-1
 1491 1205 l 1,5,-1
 1491 874 l 1,6,-1
 2093 874 l 1,7,-1
 2093 654 l 1,8,-1
 1491 654 l 1,9,-1
 1491 229 l 1,10,-1
 2081 229 l 1,11,-1
 2490 473 l 1,12,-1
 2490 0 l 1,13,-1
 683 0 l 1,14,-1
 964 254 l 1,15,-1
 964 356 l 1,16,-1
 448 356 l 1,17,-1
 343 206 l 1,18,-1
 498 0 l 1,19,-1
 -313 0 l 1,20,-1
 3 222 l 1,21,-1
 823 1307 l 1,0,-1
964 565 m 1,22,-1
 964 1088 l 1,23,-1
 595 565 l 1,24,-1
 964 565 l 1,22,-1
EndSplineSet
EndChar

StartChar: Ccedilla
Encoding: 199 199 136
Width: 2057
Flags: W
LayerCount: 2
Fore
SplineSet
721 -202 m 1,0,1
 757 -264 757 -264 813 -296.5 c 128,-1,2
 869 -329 869 -329 954 -329 c 0,3,4
 975 -329 975 -329 993.5 -326 c 128,-1,5
 1012 -323 1012 -323 1026.5 -315.5 c 128,-1,6
 1041 -308 1041 -308 1049 -296 c 128,-1,7
 1057 -284 1057 -284 1057 -267 c 0,8,9
 1057 -243 1057 -243 1043 -229.5 c 128,-1,10
 1029 -216 1029 -216 1006 -208.5 c 128,-1,11
 983 -201 983 -201 953.5 -199 c 128,-1,12
 924 -197 924 -197 893 -197 c 1,13,-1
 913 -30 l 1,14,15
 811 -20 811 -20 710 3.5 c 128,-1,16
 609 27 609 27 517.5 67 c 128,-1,17
 426 107 426 107 348 165.5 c 128,-1,18
 270 224 270 224 212.5 304 c 128,-1,19
 155 384 155 384 122.5 486.5 c 128,-1,20
 90 589 90 589 90 717 c 0,21,22
 90 850 90 850 129 958 c 128,-1,23
 168 1066 168 1066 237 1150 c 128,-1,24
 306 1234 306 1234 400 1294.5 c 128,-1,25
 494 1355 494 1355 604.5 1394.5 c 128,-1,26
 715 1434 715 1434 837 1453 c 128,-1,27
 959 1472 959 1472 1084 1472 c 0,28,29
 1176 1472 1176 1472 1258 1461 c 128,-1,30
 1340 1450 1340 1450 1411.5 1431.5 c 128,-1,31
 1483 1413 1483 1413 1543 1389 c 128,-1,32
 1603 1365 1603 1365 1651 1339 c 1,33,-1
 1724 1434 l 1,34,-1
 1933 1434 l 1,35,-1
 1933 926 l 1,36,-1
 1668 876 l 1,37,38
 1644 957 1644 957 1597 1027 c 128,-1,39
 1550 1097 1550 1097 1484 1148 c 128,-1,40
 1418 1199 1418 1199 1334.5 1228.5 c 128,-1,41
 1251 1258 1251 1258 1153 1258 c 0,42,43
 1027 1258 1027 1258 937 1213.5 c 128,-1,44
 847 1169 847 1169 789.5 1094.5 c 128,-1,45
 732 1020 732 1020 705 922 c 128,-1,46
 678 824 678 824 678 717 c 0,47,48
 678 586 678 586 716.5 485 c 128,-1,49
 755 384 755 384 824 315.5 c 128,-1,50
 893 247 893 247 987.5 212 c 128,-1,51
 1082 177 1082 177 1195 177 c 0,52,53
 1283 177 1283 177 1361 199.5 c 128,-1,54
 1439 222 1439 222 1498.5 268.5 c 128,-1,55
 1558 315 1558 315 1595.5 386 c 128,-1,56
 1633 457 1633 457 1641 554 c 1,57,-1
 1947 554 l 1,58,59
 1947 417 1947 417 1886 310.5 c 128,-1,60
 1825 204 1825 204 1717.5 129 c 128,-1,61
 1610 54 1610 54 1464.5 12 c 128,-1,62
 1319 -30 1319 -30 1150 -37 c 1,63,-1
 1150 -111 l 1,64,65
 1211 -111 1211 -111 1262.5 -123.5 c 128,-1,66
 1314 -136 1314 -136 1351 -161 c 128,-1,67
 1388 -186 1388 -186 1409 -223 c 128,-1,68
 1430 -260 1430 -260 1430 -309 c 0,69,70
 1430 -363 1430 -363 1394.5 -402.5 c 128,-1,71
 1359 -442 1359 -442 1303.5 -467.5 c 128,-1,72
 1248 -493 1248 -493 1178.5 -505 c 128,-1,73
 1109 -517 1109 -517 1042 -517 c 0,74,75
 966 -517 966 -517 894 -505.5 c 128,-1,76
 822 -494 822 -494 760 -467 c 128,-1,77
 698 -440 698 -440 648.5 -395.5 c 128,-1,78
 599 -351 599 -351 568 -284 c 1,79,-1
 721 -202 l 1,0,1
EndSplineSet
EndChar

StartChar: Egrave
Encoding: 200 200 137
Width: 1987
Flags: W
LayerCount: 2
Fore
SplineSet
338 1879 m 1,0,-1
 989 1879 l 1,1,-1
 1399 1563 l 1,2,-1
 1048 1563 l 1,3,-1
 338 1879 l 1,0,-1
311 254 m 1,4,-1
 311 1180 l 1,5,-1
 30 1434 l 1,6,-1
 1847 1434 l 1,7,-1
 1827 938 l 1,8,-1
 1428 1205 l 1,9,-1
 838 1205 l 1,10,-1
 838 874 l 1,11,-1
 1440 874 l 1,12,-1
 1440 654 l 1,13,-1
 838 654 l 1,14,-1
 838 229 l 1,15,-1
 1428 229 l 1,16,-1
 1837 473 l 1,17,-1
 1837 0 l 1,18,-1
 30 0 l 1,19,-1
 311 254 l 1,4,-1
EndSplineSet
EndChar

StartChar: Eacute
Encoding: 201 201 138
Width: 1987
Flags: W
LayerCount: 2
Fore
SplineSet
1137 1879 m 1,0,-1
 1808 1879 l 1,1,-1
 1098 1563 l 1,2,-1
 727 1563 l 1,3,-1
 1137 1879 l 1,0,-1
311 254 m 1,4,-1
 311 1180 l 1,5,-1
 30 1434 l 1,6,-1
 1847 1434 l 1,7,-1
 1827 938 l 1,8,-1
 1428 1205 l 1,9,-1
 838 1205 l 1,10,-1
 838 874 l 1,11,-1
 1440 874 l 1,12,-1
 1440 654 l 1,13,-1
 838 654 l 1,14,-1
 838 229 l 1,15,-1
 1428 229 l 1,16,-1
 1837 473 l 1,17,-1
 1837 0 l 1,18,-1
 30 0 l 1,19,-1
 311 254 l 1,4,-1
EndSplineSet
EndChar

StartChar: Ecircumflex
Encoding: 202 202 139
Width: 1987
Flags: W
LayerCount: 2
Fore
SplineSet
850 1879 m 1,0,-1
 1291 1879 l 1,1,-1
 1702 1563 l 1,2,-1
 1401 1563 l 1,3,-1
 1070 1679 l 1,4,-1
 731 1563 l 1,5,-1
 430 1563 l 1,6,-1
 850 1879 l 1,0,-1
311 254 m 1,7,-1
 311 1180 l 1,8,-1
 30 1434 l 1,9,-1
 1847 1434 l 1,10,-1
 1827 938 l 1,11,-1
 1428 1205 l 1,12,-1
 838 1205 l 1,13,-1
 838 874 l 1,14,-1
 1440 874 l 1,15,-1
 1440 654 l 1,16,-1
 838 654 l 1,17,-1
 838 229 l 1,18,-1
 1428 229 l 1,19,-1
 1837 473 l 1,20,-1
 1837 0 l 1,21,-1
 30 0 l 1,22,-1
 311 254 l 1,7,-1
EndSplineSet
EndChar

StartChar: Edieresis
Encoding: 203 203 140
Width: 1987
Flags: W
LayerCount: 2
Fore
SplineSet
1372 1542 m 256,0,1
 1330 1542 1330 1542 1293 1555.5 c 128,-1,2
 1256 1569 1256 1569 1229 1593.5 c 128,-1,3
 1202 1618 1202 1618 1186 1652.5 c 128,-1,4
 1170 1687 1170 1687 1170 1729 c 256,5,6
 1170 1771 1170 1771 1186 1806 c 128,-1,7
 1202 1841 1202 1841 1229 1865.5 c 128,-1,8
 1256 1890 1256 1890 1293 1903.5 c 128,-1,9
 1330 1917 1330 1917 1372 1917 c 256,10,11
 1414 1917 1414 1917 1451.5 1903.5 c 128,-1,12
 1489 1890 1489 1890 1516.5 1865.5 c 128,-1,13
 1544 1841 1544 1841 1560 1806 c 128,-1,14
 1576 1771 1576 1771 1576 1729 c 256,15,16
 1576 1687 1576 1687 1560 1652.5 c 128,-1,17
 1544 1618 1544 1618 1516.5 1593.5 c 128,-1,18
 1489 1569 1489 1569 1451.5 1555.5 c 128,-1,19
 1414 1542 1414 1542 1372 1542 c 256,0,1
766 1542 m 256,20,21
 724 1542 724 1542 687 1555.5 c 128,-1,22
 650 1569 650 1569 623 1593.5 c 128,-1,23
 596 1618 596 1618 580 1652.5 c 128,-1,24
 564 1687 564 1687 564 1729 c 256,25,26
 564 1771 564 1771 580 1806 c 128,-1,27
 596 1841 596 1841 623 1865.5 c 128,-1,28
 650 1890 650 1890 687 1903.5 c 128,-1,29
 724 1917 724 1917 766 1917 c 256,30,31
 808 1917 808 1917 845.5 1903.5 c 128,-1,32
 883 1890 883 1890 910.5 1865.5 c 128,-1,33
 938 1841 938 1841 954 1806 c 128,-1,34
 970 1771 970 1771 970 1729 c 256,35,36
 970 1687 970 1687 954 1652.5 c 128,-1,37
 938 1618 938 1618 910.5 1593.5 c 128,-1,38
 883 1569 883 1569 845.5 1555.5 c 128,-1,39
 808 1542 808 1542 766 1542 c 256,20,21
311 254 m 1,40,-1
 311 1180 l 1,41,-1
 30 1434 l 1,42,-1
 1847 1434 l 1,43,-1
 1827 938 l 1,44,-1
 1428 1205 l 1,45,-1
 838 1205 l 1,46,-1
 838 874 l 1,47,-1
 1440 874 l 1,48,-1
 1440 654 l 1,49,-1
 838 654 l 1,50,-1
 838 229 l 1,51,-1
 1428 229 l 1,52,-1
 1837 473 l 1,53,-1
 1837 0 l 1,54,-1
 30 0 l 1,55,-1
 311 254 l 1,40,-1
EndSplineSet
EndChar

StartChar: Igrave
Encoding: 204 204 141
Width: 1101
Flags: W
LayerCount: 2
Fore
SplineSet
-220 1879 m 1,0,-1
 431 1879 l 1,1,-1
 841 1563 l 1,2,-1
 490 1563 l 1,3,-1
 -220 1879 l 1,0,-1
292 1180 m 1,4,-1
 60 1434 l 1,5,-1
 809 1434 l 1,6,-1
 809 254 l 1,7,-1
 1041 0 l 1,8,-1
 292 0 l 1,9,-1
 292 1180 l 1,4,-1
EndSplineSet
EndChar

StartChar: Iacute
Encoding: 205 205 142
Width: 1101
Flags: W
LayerCount: 2
Fore
SplineSet
579 1879 m 1,0,-1
 1250 1879 l 1,1,-1
 540 1563 l 1,2,-1
 169 1563 l 1,3,-1
 579 1879 l 1,0,-1
292 1180 m 1,4,-1
 60 1434 l 1,5,-1
 809 1434 l 1,6,-1
 809 254 l 1,7,-1
 1041 0 l 1,8,-1
 292 0 l 1,9,-1
 292 1180 l 1,4,-1
EndSplineSet
EndChar

StartChar: Icircumflex
Encoding: 206 206 143
Width: 1101
Flags: W
LayerCount: 2
Fore
SplineSet
292 1879 m 1,0,-1
 733 1879 l 1,1,-1
 1144 1563 l 1,2,-1
 843 1563 l 1,3,-1
 512 1679 l 1,4,-1
 173 1563 l 1,5,-1
 -128 1563 l 1,6,-1
 292 1879 l 1,0,-1
292 1180 m 1,7,-1
 60 1434 l 1,8,-1
 809 1434 l 1,9,-1
 809 254 l 1,10,-1
 1041 0 l 1,11,-1
 292 0 l 1,12,-1
 292 1180 l 1,7,-1
EndSplineSet
EndChar

StartChar: Idieresis
Encoding: 207 207 144
Width: 1101
Flags: W
LayerCount: 2
Fore
SplineSet
814 1542 m 256,0,1
 772 1542 772 1542 735 1555.5 c 128,-1,2
 698 1569 698 1569 671 1593.5 c 128,-1,3
 644 1618 644 1618 628 1652.5 c 128,-1,4
 612 1687 612 1687 612 1729 c 256,5,6
 612 1771 612 1771 628 1806 c 128,-1,7
 644 1841 644 1841 671 1865.5 c 128,-1,8
 698 1890 698 1890 735 1903.5 c 128,-1,9
 772 1917 772 1917 814 1917 c 256,10,11
 856 1917 856 1917 893.5 1903.5 c 128,-1,12
 931 1890 931 1890 958.5 1865.5 c 128,-1,13
 986 1841 986 1841 1002 1806 c 128,-1,14
 1018 1771 1018 1771 1018 1729 c 256,15,16
 1018 1687 1018 1687 1002 1652.5 c 128,-1,17
 986 1618 986 1618 958.5 1593.5 c 128,-1,18
 931 1569 931 1569 893.5 1555.5 c 128,-1,19
 856 1542 856 1542 814 1542 c 256,0,1
208 1542 m 256,20,21
 166 1542 166 1542 129 1555.5 c 128,-1,22
 92 1569 92 1569 65 1593.5 c 128,-1,23
 38 1618 38 1618 22 1652.5 c 128,-1,24
 6 1687 6 1687 6 1729 c 256,25,26
 6 1771 6 1771 22 1806 c 128,-1,27
 38 1841 38 1841 65 1865.5 c 128,-1,28
 92 1890 92 1890 129 1903.5 c 128,-1,29
 166 1917 166 1917 208 1917 c 256,30,31
 250 1917 250 1917 287.5 1903.5 c 128,-1,32
 325 1890 325 1890 352.5 1865.5 c 128,-1,33
 380 1841 380 1841 396 1806 c 128,-1,34
 412 1771 412 1771 412 1729 c 256,35,36
 412 1687 412 1687 396 1652.5 c 128,-1,37
 380 1618 380 1618 352.5 1593.5 c 128,-1,38
 325 1569 325 1569 287.5 1555.5 c 128,-1,39
 250 1542 250 1542 208 1542 c 256,20,21
292 1180 m 1,40,-1
 60 1434 l 1,41,-1
 809 1434 l 1,42,-1
 809 254 l 1,43,-1
 1041 0 l 1,44,-1
 292 0 l 1,45,-1
 292 1180 l 1,40,-1
EndSplineSet
EndChar

StartChar: Eth
Encoding: 208 208 145
Width: 2154
Flags: W
LayerCount: 2
Fore
SplineSet
341 254 m 1,0,-1
 341 582 l 1,1,-1
 145 582 l 1,2,-1
 145 802 l 1,3,-1
 341 802 l 1,4,-1
 341 1180 l 1,5,-1
 31 1434 l 1,6,7
 108 1435 108 1435 207 1435.5 c 128,-1,8
 306 1436 306 1436 413.5 1437 c 128,-1,9
 521 1438 521 1438 630.5 1438.5 c 128,-1,10
 740 1439 740 1439 837 1439.5 c 128,-1,11
 934 1440 934 1440 1012 1440.5 c 128,-1,12
 1090 1441 1090 1441 1135 1441 c 0,13,14
 1311 1441 1311 1441 1452 1423 c 128,-1,15
 1593 1405 1593 1405 1700 1362 c 0,16,17
 1795 1324 1795 1324 1864 1263.5 c 128,-1,18
 1933 1203 1933 1203 1977.5 1126 c 128,-1,19
 2022 1049 2022 1049 2043 958 c 128,-1,20
 2064 867 2064 867 2064 767 c 0,21,22
 2064 582 2064 582 1994.5 438 c 128,-1,23
 1925 294 1925 294 1797.5 195 c 128,-1,24
 1670 96 1670 96 1491.5 44.5 c 128,-1,25
 1313 -7 1313 -7 1095 -7 c 0,26,27
 1066 -7 1066 -7 1000.5 -7 c 128,-1,28
 935 -7 935 -7 846.5 -6.5 c 128,-1,29
 758 -6 758 -6 653 -5 c 128,-1,30
 548 -4 548 -4 439 -3.5 c 128,-1,31
 330 -3 330 -3 224.5 -2 c 128,-1,32
 119 -1 119 -1 30 0 c 1,33,-1
 341 254 l 1,0,-1
1064 209 m 2,34,35
 1188 209 1188 209 1271 249 c 128,-1,36
 1354 289 1354 289 1404 361.5 c 128,-1,37
 1454 434 1454 434 1475 534.5 c 128,-1,38
 1496 635 1496 635 1496 757 c 0,39,40
 1496 869 1496 869 1468 956 c 128,-1,41
 1440 1043 1440 1043 1387 1103 c 128,-1,42
 1334 1163 1334 1163 1257.5 1194 c 128,-1,43
 1181 1225 1181 1225 1084 1225 c 2,44,-1
 868 1225 l 1,45,-1
 868 802 l 1,46,-1
 1131 802 l 1,47,-1
 1131 582 l 1,48,-1
 868 582 l 1,49,-1
 868 209 l 1,50,-1
 1064 209 l 2,34,35
EndSplineSet
EndChar

StartChar: Ntilde
Encoding: 209 209 146
Width: 2113
Flags: W
LayerCount: 2
Fore
SplineSet
438 1681 m 1,0,1
 464 1715 464 1715 503.5 1753.5 c 128,-1,2
 543 1792 543 1792 594.5 1824.5 c 128,-1,3
 646 1857 646 1857 709.5 1878.5 c 128,-1,4
 773 1900 773 1900 848 1900 c 0,5,6
 914 1900 914 1900 974.5 1886 c 128,-1,7
 1035 1872 1035 1872 1095 1852 c 0,8,9
 1165 1829 1165 1829 1236.5 1810.5 c 128,-1,10
 1308 1792 1308 1792 1386 1792 c 0,11,12
 1442 1792 1442 1792 1490.5 1808 c 128,-1,13
 1539 1824 1539 1824 1591 1850 c 1,14,-1
 1677 1775 l 1,15,16
 1650 1741 1650 1741 1611 1702.5 c 128,-1,17
 1572 1664 1572 1664 1520.5 1631.5 c 128,-1,18
 1469 1599 1469 1599 1405.5 1577.5 c 128,-1,19
 1342 1556 1342 1556 1267 1556 c 0,20,21
 1193 1556 1193 1556 1125.5 1573.5 c 128,-1,22
 1058 1591 1058 1591 990 1613 c 0,23,24
 927 1633 927 1633 862.5 1648.5 c 128,-1,25
 798 1664 798 1664 728 1664 c 0,26,27
 672 1664 672 1664 623.5 1648 c 128,-1,28
 575 1632 575 1632 524 1606 c 1,29,-1
 438 1681 l 1,0,1
313 253 m 1,30,-1
 313 1152 l 1,31,-1
 5 1434 l 1,32,-1
 769 1434 l 1,33,-1
 1575 714 l 1,34,-1
 1575 1180 l 1,35,-1
 1295 1434 l 1,36,-1
 2098 1434 l 1,37,-1
 1847 1180 l 1,38,-1
 1847 0 l 1,39,-1
 1575 0 l 1,40,-1
 585 904 l 1,41,-1
 585 253 l 1,42,-1
 886 0 l 1,43,-1
 42 0 l 1,44,-1
 313 253 l 1,30,-1
EndSplineSet
EndChar

StartChar: Ograve
Encoding: 210 210 147
Width: 2066
Flags: W
LayerCount: 2
Fore
SplineSet
301 1879 m 1,0,-1
 952 1879 l 1,1,-1
 1362 1563 l 1,2,-1
 1011 1563 l 1,3,-1
 301 1879 l 1,0,-1
90 717 m 0,4,5
 90 855 90 855 130.5 965 c 128,-1,6
 171 1075 171 1075 240 1159 c 128,-1,7
 309 1243 309 1243 402 1302.5 c 128,-1,8
 495 1362 495 1362 599.5 1399.5 c 128,-1,9
 704 1437 704 1437 815 1454.5 c 128,-1,10
 926 1472 926 1472 1032 1472 c 0,11,12
 1148 1472 1148 1472 1263.5 1454.5 c 128,-1,13
 1379 1437 1379 1437 1483.5 1399.5 c 128,-1,14
 1588 1362 1588 1362 1678 1302.5 c 128,-1,15
 1768 1243 1768 1243 1834.5 1159 c 128,-1,16
 1901 1075 1901 1075 1938.5 965 c 128,-1,17
 1976 855 1976 855 1976 717 c 0,18,19
 1976 581 1976 581 1937 472 c 128,-1,20
 1898 363 1898 363 1830 279 c 128,-1,21
 1762 195 1762 195 1670.5 135 c 128,-1,22
 1579 75 1579 75 1474.5 36 c 128,-1,23
 1370 -3 1370 -3 1256.5 -21 c 128,-1,24
 1143 -39 1143 -39 1032 -39 c 256,25,26
 921 -39 921 -39 808 -22 c 128,-1,27
 695 -5 695 -5 590.5 32 c 128,-1,28
 486 69 486 69 394.5 128 c 128,-1,29
 303 187 303 187 235.5 271 c 128,-1,30
 168 355 168 355 129 465.5 c 128,-1,31
 90 576 90 576 90 717 c 0,4,5
678 717 m 0,32,33
 678 599 678 599 704 498.5 c 128,-1,34
 730 398 730 398 777 324 c 128,-1,35
 824 250 824 250 889 208 c 128,-1,36
 954 166 954 166 1032 166 c 256,37,38
 1110 166 1110 166 1175 209 c 128,-1,39
 1240 252 1240 252 1287.5 326 c 128,-1,40
 1335 400 1335 400 1361.5 500.5 c 128,-1,41
 1388 601 1388 601 1388 717 c 0,42,43
 1388 834 1388 834 1363 936.5 c 128,-1,44
 1338 1039 1338 1039 1291.5 1114.5 c 128,-1,45
 1245 1190 1245 1190 1179 1233.5 c 128,-1,46
 1113 1277 1113 1277 1032 1277 c 0,47,48
 954 1277 954 1277 889 1233.5 c 128,-1,49
 824 1190 824 1190 777 1114.5 c 128,-1,50
 730 1039 730 1039 704 936.5 c 128,-1,51
 678 834 678 834 678 717 c 0,32,33
EndSplineSet
EndChar

StartChar: Oacute
Encoding: 211 211 148
Width: 2066
Flags: W
LayerCount: 2
Fore
SplineSet
1100 1879 m 1,0,-1
 1771 1879 l 1,1,-1
 1061 1563 l 1,2,-1
 690 1563 l 1,3,-1
 1100 1879 l 1,0,-1
90 717 m 0,4,5
 90 855 90 855 130.5 965 c 128,-1,6
 171 1075 171 1075 240 1159 c 128,-1,7
 309 1243 309 1243 402 1302.5 c 128,-1,8
 495 1362 495 1362 599.5 1399.5 c 128,-1,9
 704 1437 704 1437 815 1454.5 c 128,-1,10
 926 1472 926 1472 1032 1472 c 0,11,12
 1148 1472 1148 1472 1263.5 1454.5 c 128,-1,13
 1379 1437 1379 1437 1483.5 1399.5 c 128,-1,14
 1588 1362 1588 1362 1678 1302.5 c 128,-1,15
 1768 1243 1768 1243 1834.5 1159 c 128,-1,16
 1901 1075 1901 1075 1938.5 965 c 128,-1,17
 1976 855 1976 855 1976 717 c 0,18,19
 1976 581 1976 581 1937 472 c 128,-1,20
 1898 363 1898 363 1830 279 c 128,-1,21
 1762 195 1762 195 1670.5 135 c 128,-1,22
 1579 75 1579 75 1474.5 36 c 128,-1,23
 1370 -3 1370 -3 1256.5 -21 c 128,-1,24
 1143 -39 1143 -39 1032 -39 c 256,25,26
 921 -39 921 -39 808 -22 c 128,-1,27
 695 -5 695 -5 590.5 32 c 128,-1,28
 486 69 486 69 394.5 128 c 128,-1,29
 303 187 303 187 235.5 271 c 128,-1,30
 168 355 168 355 129 465.5 c 128,-1,31
 90 576 90 576 90 717 c 0,4,5
678 717 m 0,32,33
 678 599 678 599 704 498.5 c 128,-1,34
 730 398 730 398 777 324 c 128,-1,35
 824 250 824 250 889 208 c 128,-1,36
 954 166 954 166 1032 166 c 256,37,38
 1110 166 1110 166 1175 209 c 128,-1,39
 1240 252 1240 252 1287.5 326 c 128,-1,40
 1335 400 1335 400 1361.5 500.5 c 128,-1,41
 1388 601 1388 601 1388 717 c 0,42,43
 1388 834 1388 834 1363 936.5 c 128,-1,44
 1338 1039 1338 1039 1291.5 1114.5 c 128,-1,45
 1245 1190 1245 1190 1179 1233.5 c 128,-1,46
 1113 1277 1113 1277 1032 1277 c 0,47,48
 954 1277 954 1277 889 1233.5 c 128,-1,49
 824 1190 824 1190 777 1114.5 c 128,-1,50
 730 1039 730 1039 704 936.5 c 128,-1,51
 678 834 678 834 678 717 c 0,32,33
EndSplineSet
EndChar

StartChar: Ocircumflex
Encoding: 212 212 149
Width: 2066
Flags: W
LayerCount: 2
Fore
SplineSet
813 1879 m 1,0,-1
 1254 1879 l 1,1,-1
 1665 1563 l 1,2,-1
 1364 1563 l 1,3,-1
 1033 1679 l 1,4,-1
 694 1563 l 1,5,-1
 393 1563 l 1,6,-1
 813 1879 l 1,0,-1
90 717 m 0,7,8
 90 855 90 855 130.5 965 c 128,-1,9
 171 1075 171 1075 240 1159 c 128,-1,10
 309 1243 309 1243 402 1302.5 c 128,-1,11
 495 1362 495 1362 599.5 1399.5 c 128,-1,12
 704 1437 704 1437 815 1454.5 c 128,-1,13
 926 1472 926 1472 1032 1472 c 0,14,15
 1148 1472 1148 1472 1263.5 1454.5 c 128,-1,16
 1379 1437 1379 1437 1483.5 1399.5 c 128,-1,17
 1588 1362 1588 1362 1678 1302.5 c 128,-1,18
 1768 1243 1768 1243 1834.5 1159 c 128,-1,19
 1901 1075 1901 1075 1938.5 965 c 128,-1,20
 1976 855 1976 855 1976 717 c 0,21,22
 1976 581 1976 581 1937 472 c 128,-1,23
 1898 363 1898 363 1830 279 c 128,-1,24
 1762 195 1762 195 1670.5 135 c 128,-1,25
 1579 75 1579 75 1474.5 36 c 128,-1,26
 1370 -3 1370 -3 1256.5 -21 c 128,-1,27
 1143 -39 1143 -39 1032 -39 c 256,28,29
 921 -39 921 -39 808 -22 c 128,-1,30
 695 -5 695 -5 590.5 32 c 128,-1,31
 486 69 486 69 394.5 128 c 128,-1,32
 303 187 303 187 235.5 271 c 128,-1,33
 168 355 168 355 129 465.5 c 128,-1,34
 90 576 90 576 90 717 c 0,7,8
678 717 m 0,35,36
 678 599 678 599 704 498.5 c 128,-1,37
 730 398 730 398 777 324 c 128,-1,38
 824 250 824 250 889 208 c 128,-1,39
 954 166 954 166 1032 166 c 256,40,41
 1110 166 1110 166 1175 209 c 128,-1,42
 1240 252 1240 252 1287.5 326 c 128,-1,43
 1335 400 1335 400 1361.5 500.5 c 128,-1,44
 1388 601 1388 601 1388 717 c 0,45,46
 1388 834 1388 834 1363 936.5 c 128,-1,47
 1338 1039 1338 1039 1291.5 1114.5 c 128,-1,48
 1245 1190 1245 1190 1179 1233.5 c 128,-1,49
 1113 1277 1113 1277 1032 1277 c 0,50,51
 954 1277 954 1277 889 1233.5 c 128,-1,52
 824 1190 824 1190 777 1114.5 c 128,-1,53
 730 1039 730 1039 704 936.5 c 128,-1,54
 678 834 678 834 678 717 c 0,35,36
EndSplineSet
EndChar

StartChar: Otilde
Encoding: 213 213 150
Width: 2066
Flags: W
LayerCount: 2
Fore
SplineSet
420 1681 m 1,0,1
 446 1715 446 1715 485.5 1753.5 c 128,-1,2
 525 1792 525 1792 576.5 1824.5 c 128,-1,3
 628 1857 628 1857 691.5 1878.5 c 128,-1,4
 755 1900 755 1900 830 1900 c 0,5,6
 896 1900 896 1900 956.5 1886 c 128,-1,7
 1017 1872 1017 1872 1077 1852 c 0,8,9
 1147 1829 1147 1829 1218.5 1810.5 c 128,-1,10
 1290 1792 1290 1792 1368 1792 c 0,11,12
 1424 1792 1424 1792 1472.5 1808 c 128,-1,13
 1521 1824 1521 1824 1573 1850 c 1,14,-1
 1659 1775 l 1,15,16
 1632 1741 1632 1741 1593 1702.5 c 128,-1,17
 1554 1664 1554 1664 1502.5 1631.5 c 128,-1,18
 1451 1599 1451 1599 1387.5 1577.5 c 128,-1,19
 1324 1556 1324 1556 1249 1556 c 0,20,21
 1175 1556 1175 1556 1107.5 1573.5 c 128,-1,22
 1040 1591 1040 1591 972 1613 c 0,23,24
 909 1633 909 1633 844.5 1648.5 c 128,-1,25
 780 1664 780 1664 710 1664 c 0,26,27
 654 1664 654 1664 605.5 1648 c 128,-1,28
 557 1632 557 1632 506 1606 c 1,29,-1
 420 1681 l 1,0,1
90 717 m 0,30,31
 90 855 90 855 130.5 965 c 128,-1,32
 171 1075 171 1075 240 1159 c 128,-1,33
 309 1243 309 1243 402 1302.5 c 128,-1,34
 495 1362 495 1362 599.5 1399.5 c 128,-1,35
 704 1437 704 1437 815 1454.5 c 128,-1,36
 926 1472 926 1472 1032 1472 c 0,37,38
 1148 1472 1148 1472 1263.5 1454.5 c 128,-1,39
 1379 1437 1379 1437 1483.5 1399.5 c 128,-1,40
 1588 1362 1588 1362 1678 1302.5 c 128,-1,41
 1768 1243 1768 1243 1834.5 1159 c 128,-1,42
 1901 1075 1901 1075 1938.5 965 c 128,-1,43
 1976 855 1976 855 1976 717 c 0,44,45
 1976 581 1976 581 1937 472 c 128,-1,46
 1898 363 1898 363 1830 279 c 128,-1,47
 1762 195 1762 195 1670.5 135 c 128,-1,48
 1579 75 1579 75 1474.5 36 c 128,-1,49
 1370 -3 1370 -3 1256.5 -21 c 128,-1,50
 1143 -39 1143 -39 1032 -39 c 256,51,52
 921 -39 921 -39 808 -22 c 128,-1,53
 695 -5 695 -5 590.5 32 c 128,-1,54
 486 69 486 69 394.5 128 c 128,-1,55
 303 187 303 187 235.5 271 c 128,-1,56
 168 355 168 355 129 465.5 c 128,-1,57
 90 576 90 576 90 717 c 0,30,31
678 717 m 0,58,59
 678 599 678 599 704 498.5 c 128,-1,60
 730 398 730 398 777 324 c 128,-1,61
 824 250 824 250 889 208 c 128,-1,62
 954 166 954 166 1032 166 c 256,63,64
 1110 166 1110 166 1175 209 c 128,-1,65
 1240 252 1240 252 1287.5 326 c 128,-1,66
 1335 400 1335 400 1361.5 500.5 c 128,-1,67
 1388 601 1388 601 1388 717 c 0,68,69
 1388 834 1388 834 1363 936.5 c 128,-1,70
 1338 1039 1338 1039 1291.5 1114.5 c 128,-1,71
 1245 1190 1245 1190 1179 1233.5 c 128,-1,72
 1113 1277 1113 1277 1032 1277 c 0,73,74
 954 1277 954 1277 889 1233.5 c 128,-1,75
 824 1190 824 1190 777 1114.5 c 128,-1,76
 730 1039 730 1039 704 936.5 c 128,-1,77
 678 834 678 834 678 717 c 0,58,59
EndSplineSet
EndChar

StartChar: Odieresis
Encoding: 214 214 151
Width: 2066
Flags: W
LayerCount: 2
Fore
SplineSet
1335 1542 m 256,0,1
 1293 1542 1293 1542 1256 1555.5 c 128,-1,2
 1219 1569 1219 1569 1192 1593.5 c 128,-1,3
 1165 1618 1165 1618 1149 1652.5 c 128,-1,4
 1133 1687 1133 1687 1133 1729 c 256,5,6
 1133 1771 1133 1771 1149 1806 c 128,-1,7
 1165 1841 1165 1841 1192 1865.5 c 128,-1,8
 1219 1890 1219 1890 1256 1903.5 c 128,-1,9
 1293 1917 1293 1917 1335 1917 c 256,10,11
 1377 1917 1377 1917 1414.5 1903.5 c 128,-1,12
 1452 1890 1452 1890 1479.5 1865.5 c 128,-1,13
 1507 1841 1507 1841 1523 1806 c 128,-1,14
 1539 1771 1539 1771 1539 1729 c 256,15,16
 1539 1687 1539 1687 1523 1652.5 c 128,-1,17
 1507 1618 1507 1618 1479.5 1593.5 c 128,-1,18
 1452 1569 1452 1569 1414.5 1555.5 c 128,-1,19
 1377 1542 1377 1542 1335 1542 c 256,0,1
729 1542 m 256,20,21
 687 1542 687 1542 650 1555.5 c 128,-1,22
 613 1569 613 1569 586 1593.5 c 128,-1,23
 559 1618 559 1618 543 1652.5 c 128,-1,24
 527 1687 527 1687 527 1729 c 256,25,26
 527 1771 527 1771 543 1806 c 128,-1,27
 559 1841 559 1841 586 1865.5 c 128,-1,28
 613 1890 613 1890 650 1903.5 c 128,-1,29
 687 1917 687 1917 729 1917 c 256,30,31
 771 1917 771 1917 808.5 1903.5 c 128,-1,32
 846 1890 846 1890 873.5 1865.5 c 128,-1,33
 901 1841 901 1841 917 1806 c 128,-1,34
 933 1771 933 1771 933 1729 c 256,35,36
 933 1687 933 1687 917 1652.5 c 128,-1,37
 901 1618 901 1618 873.5 1593.5 c 128,-1,38
 846 1569 846 1569 808.5 1555.5 c 128,-1,39
 771 1542 771 1542 729 1542 c 256,20,21
90 717 m 0,40,41
 90 855 90 855 130.5 965 c 128,-1,42
 171 1075 171 1075 240 1159 c 128,-1,43
 309 1243 309 1243 402 1302.5 c 128,-1,44
 495 1362 495 1362 599.5 1399.5 c 128,-1,45
 704 1437 704 1437 815 1454.5 c 128,-1,46
 926 1472 926 1472 1032 1472 c 0,47,48
 1148 1472 1148 1472 1263.5 1454.5 c 128,-1,49
 1379 1437 1379 1437 1483.5 1399.5 c 128,-1,50
 1588 1362 1588 1362 1678 1302.5 c 128,-1,51
 1768 1243 1768 1243 1834.5 1159 c 128,-1,52
 1901 1075 1901 1075 1938.5 965 c 128,-1,53
 1976 855 1976 855 1976 717 c 0,54,55
 1976 581 1976 581 1937 472 c 128,-1,56
 1898 363 1898 363 1830 279 c 128,-1,57
 1762 195 1762 195 1670.5 135 c 128,-1,58
 1579 75 1579 75 1474.5 36 c 128,-1,59
 1370 -3 1370 -3 1256.5 -21 c 128,-1,60
 1143 -39 1143 -39 1032 -39 c 256,61,62
 921 -39 921 -39 808 -22 c 128,-1,63
 695 -5 695 -5 590.5 32 c 128,-1,64
 486 69 486 69 394.5 128 c 128,-1,65
 303 187 303 187 235.5 271 c 128,-1,66
 168 355 168 355 129 465.5 c 128,-1,67
 90 576 90 576 90 717 c 0,40,41
678 717 m 0,68,69
 678 599 678 599 704 498.5 c 128,-1,70
 730 398 730 398 777 324 c 128,-1,71
 824 250 824 250 889 208 c 128,-1,72
 954 166 954 166 1032 166 c 256,73,74
 1110 166 1110 166 1175 209 c 128,-1,75
 1240 252 1240 252 1287.5 326 c 128,-1,76
 1335 400 1335 400 1361.5 500.5 c 128,-1,77
 1388 601 1388 601 1388 717 c 0,78,79
 1388 834 1388 834 1363 936.5 c 128,-1,80
 1338 1039 1338 1039 1291.5 1114.5 c 128,-1,81
 1245 1190 1245 1190 1179 1233.5 c 128,-1,82
 1113 1277 1113 1277 1032 1277 c 0,83,84
 954 1277 954 1277 889 1233.5 c 128,-1,85
 824 1190 824 1190 777 1114.5 c 128,-1,86
 730 1039 730 1039 704 936.5 c 128,-1,87
 678 834 678 834 678 717 c 0,68,69
EndSplineSet
EndChar

StartChar: multiply
Encoding: 215 215 152
Width: 1247
Flags: W
LayerCount: 2
Fore
SplineSet
143 366 m 1,0,-1
 452 675 l 1,1,-1
 143 985 l 1,2,-1
 315 1156 l 1,3,-1
 624 847 l 1,4,-1
 933 1156 l 1,5,-1
 1104 985 l 1,6,-1
 795 675 l 1,7,-1
 1104 366 l 1,8,-1
 933 195 l 1,9,-1
 624 504 l 1,10,-1
 315 195 l 1,11,-1
 143 366 l 1,0,-1
EndSplineSet
EndChar

StartChar: Oslash
Encoding: 216 216 153
Width: 2066
Flags: W
LayerCount: 2
Fore
SplineSet
90 717 m 0,0,1
 90 855 90 855 130.5 965 c 128,-1,2
 171 1075 171 1075 240 1159 c 128,-1,3
 309 1243 309 1243 402 1302.5 c 128,-1,4
 495 1362 495 1362 599.5 1399.5 c 128,-1,5
 704 1437 704 1437 815 1454.5 c 128,-1,6
 926 1472 926 1472 1032 1472 c 0,7,8
 1099 1472 1099 1472 1165 1466 c 1,9,-1
 1223 1679 l 1,10,-1
 1374 1679 l 1,11,-1
 1310 1446 l 1,12,13
 1445 1420 1445 1420 1566 1365 c 128,-1,14
 1687 1310 1687 1310 1778 1221 c 128,-1,15
 1869 1132 1869 1132 1922.5 1007.5 c 128,-1,16
 1976 883 1976 883 1976 717 c 0,17,18
 1976 581 1976 581 1937 472 c 128,-1,19
 1898 363 1898 363 1830 279 c 128,-1,20
 1762 195 1762 195 1670.5 135 c 128,-1,21
 1579 75 1579 75 1474.5 36 c 128,-1,22
 1370 -3 1370 -3 1256.5 -21 c 128,-1,23
 1143 -39 1143 -39 1032 -39 c 0,24,25
 1001 -39 1001 -39 970 -37.5 c 128,-1,26
 939 -36 939 -36 908 -34 c 1,27,-1
 857 -221 l 1,28,-1
 708 -221 l 1,29,-1
 764 -14 l 1,30,31
 631 11 631 11 509 65 c 128,-1,32
 387 119 387 119 294 207.5 c 128,-1,33
 201 296 201 296 145.5 422 c 128,-1,34
 90 548 90 548 90 717 c 0,0,1
1111 1265 m 1,35,36
 1073 1277 1073 1277 1032 1277 c 0,37,38
 954 1277 954 1277 889 1233.5 c 128,-1,39
 824 1190 824 1190 777 1114.5 c 128,-1,40
 730 1039 730 1039 704 936.5 c 128,-1,41
 678 834 678 834 678 717 c 0,42,43
 678 642 678 642 689 573 c 128,-1,44
 700 504 700 504 720.5 444 c 128,-1,45
 741 384 741 384 770 335 c 128,-1,46
 799 286 799 286 836 250 c 1,47,-1
 1111 1265 l 1,35,36
965 175 m 1,48,49
 996 166 996 166 1032 166 c 0,50,51
 1110 166 1110 166 1175 209 c 128,-1,52
 1240 252 1240 252 1287.5 326 c 128,-1,53
 1335 400 1335 400 1361.5 500.5 c 128,-1,54
 1388 601 1388 601 1388 717 c 0,55,56
 1388 865 1388 865 1349 986.5 c 128,-1,57
 1310 1108 1310 1108 1239 1183 c 1,58,-1
 965 175 l 1,48,49
EndSplineSet
EndChar

StartChar: Ugrave
Encoding: 217 217 154
Width: 2037
Flags: W
LayerCount: 2
Fore
SplineSet
409 1879 m 1,0,-1
 1060 1879 l 1,1,-1
 1470 1563 l 1,2,-1
 1119 1563 l 1,3,-1
 409 1879 l 1,0,-1
291 1181 m 1,4,-1
 10 1434 l 1,5,-1
 1062 1434 l 1,6,-1
 808 1181 l 1,7,-1
 808 727 l 2,8,9
 808 583 808 583 829.5 483.5 c 128,-1,10
 851 384 851 384 894 321.5 c 128,-1,11
 937 259 937 259 1002 231.5 c 128,-1,12
 1067 204 1067 204 1154 204 c 0,13,14
 1207 204 1207 204 1253 212.5 c 128,-1,15
 1299 221 1299 221 1337.5 243 c 128,-1,16
 1376 265 1376 265 1405.5 303 c 128,-1,17
 1435 341 1435 341 1455.5 399 c 128,-1,18
 1476 457 1476 457 1487 538 c 128,-1,19
 1498 619 1498 619 1498 727 c 2,20,-1
 1498 1180 l 1,21,-1
 1280 1434 l 1,22,-1
 2037 1434 l 1,23,-1
 1781 1180 l 1,24,-1
 1781 667 l 2,25,26
 1781 526 1781 526 1758 418.5 c 128,-1,27
 1735 311 1735 311 1692 232.5 c 128,-1,28
 1649 154 1649 154 1587 102 c 128,-1,29
 1525 50 1525 50 1447 18.5 c 128,-1,30
 1369 -13 1369 -13 1277 -26 c 128,-1,31
 1185 -39 1185 -39 1081 -39 c 0,32,33
 863 -39 863 -39 712 5 c 128,-1,34
 561 49 561 49 467.5 137.5 c 128,-1,35
 374 226 374 226 332.5 358.5 c 128,-1,36
 291 491 291 491 291 667 c 2,37,-1
 291 1181 l 1,4,-1
EndSplineSet
EndChar

StartChar: Uacute
Encoding: 218 218 155
Width: 2037
Flags: W
LayerCount: 2
Fore
SplineSet
1208 1879 m 1,0,-1
 1879 1879 l 1,1,-1
 1169 1563 l 1,2,-1
 798 1563 l 1,3,-1
 1208 1879 l 1,0,-1
291 1181 m 1,4,-1
 10 1434 l 1,5,-1
 1062 1434 l 1,6,-1
 808 1181 l 1,7,-1
 808 727 l 2,8,9
 808 583 808 583 829.5 483.5 c 128,-1,10
 851 384 851 384 894 321.5 c 128,-1,11
 937 259 937 259 1002 231.5 c 128,-1,12
 1067 204 1067 204 1154 204 c 0,13,14
 1207 204 1207 204 1253 212.5 c 128,-1,15
 1299 221 1299 221 1337.5 243 c 128,-1,16
 1376 265 1376 265 1405.5 303 c 128,-1,17
 1435 341 1435 341 1455.5 399 c 128,-1,18
 1476 457 1476 457 1487 538 c 128,-1,19
 1498 619 1498 619 1498 727 c 2,20,-1
 1498 1180 l 1,21,-1
 1280 1434 l 1,22,-1
 2037 1434 l 1,23,-1
 1781 1180 l 1,24,-1
 1781 667 l 2,25,26
 1781 526 1781 526 1758 418.5 c 128,-1,27
 1735 311 1735 311 1692 232.5 c 128,-1,28
 1649 154 1649 154 1587 102 c 128,-1,29
 1525 50 1525 50 1447 18.5 c 128,-1,30
 1369 -13 1369 -13 1277 -26 c 128,-1,31
 1185 -39 1185 -39 1081 -39 c 0,32,33
 863 -39 863 -39 712 5 c 128,-1,34
 561 49 561 49 467.5 137.5 c 128,-1,35
 374 226 374 226 332.5 358.5 c 128,-1,36
 291 491 291 491 291 667 c 2,37,-1
 291 1181 l 1,4,-1
EndSplineSet
EndChar

StartChar: Ucircumflex
Encoding: 219 219 156
Width: 2037
Flags: W
LayerCount: 2
Fore
SplineSet
921 1879 m 1,0,-1
 1362 1879 l 1,1,-1
 1773 1563 l 1,2,-1
 1472 1563 l 1,3,-1
 1141 1679 l 1,4,-1
 802 1563 l 1,5,-1
 501 1563 l 1,6,-1
 921 1879 l 1,0,-1
291 1181 m 1,7,-1
 10 1434 l 1,8,-1
 1062 1434 l 1,9,-1
 808 1181 l 1,10,-1
 808 727 l 2,11,12
 808 583 808 583 829.5 483.5 c 128,-1,13
 851 384 851 384 894 321.5 c 128,-1,14
 937 259 937 259 1002 231.5 c 128,-1,15
 1067 204 1067 204 1154 204 c 0,16,17
 1207 204 1207 204 1253 212.5 c 128,-1,18
 1299 221 1299 221 1337.5 243 c 128,-1,19
 1376 265 1376 265 1405.5 303 c 128,-1,20
 1435 341 1435 341 1455.5 399 c 128,-1,21
 1476 457 1476 457 1487 538 c 128,-1,22
 1498 619 1498 619 1498 727 c 2,23,-1
 1498 1180 l 1,24,-1
 1280 1434 l 1,25,-1
 2037 1434 l 1,26,-1
 1781 1180 l 1,27,-1
 1781 667 l 2,28,29
 1781 526 1781 526 1758 418.5 c 128,-1,30
 1735 311 1735 311 1692 232.5 c 128,-1,31
 1649 154 1649 154 1587 102 c 128,-1,32
 1525 50 1525 50 1447 18.5 c 128,-1,33
 1369 -13 1369 -13 1277 -26 c 128,-1,34
 1185 -39 1185 -39 1081 -39 c 0,35,36
 863 -39 863 -39 712 5 c 128,-1,37
 561 49 561 49 467.5 137.5 c 128,-1,38
 374 226 374 226 332.5 358.5 c 128,-1,39
 291 491 291 491 291 667 c 2,40,-1
 291 1181 l 1,7,-1
EndSplineSet
EndChar

StartChar: Udieresis
Encoding: 220 220 157
Width: 2037
Flags: W
LayerCount: 2
Fore
SplineSet
1443 1542 m 256,0,1
 1401 1542 1401 1542 1364 1555.5 c 128,-1,2
 1327 1569 1327 1569 1300 1593.5 c 128,-1,3
 1273 1618 1273 1618 1257 1652.5 c 128,-1,4
 1241 1687 1241 1687 1241 1729 c 256,5,6
 1241 1771 1241 1771 1257 1806 c 128,-1,7
 1273 1841 1273 1841 1300 1865.5 c 128,-1,8
 1327 1890 1327 1890 1364 1903.5 c 128,-1,9
 1401 1917 1401 1917 1443 1917 c 256,10,11
 1485 1917 1485 1917 1522.5 1903.5 c 128,-1,12
 1560 1890 1560 1890 1587.5 1865.5 c 128,-1,13
 1615 1841 1615 1841 1631 1806 c 128,-1,14
 1647 1771 1647 1771 1647 1729 c 256,15,16
 1647 1687 1647 1687 1631 1652.5 c 128,-1,17
 1615 1618 1615 1618 1587.5 1593.5 c 128,-1,18
 1560 1569 1560 1569 1522.5 1555.5 c 128,-1,19
 1485 1542 1485 1542 1443 1542 c 256,0,1
837 1542 m 256,20,21
 795 1542 795 1542 758 1555.5 c 128,-1,22
 721 1569 721 1569 694 1593.5 c 128,-1,23
 667 1618 667 1618 651 1652.5 c 128,-1,24
 635 1687 635 1687 635 1729 c 256,25,26
 635 1771 635 1771 651 1806 c 128,-1,27
 667 1841 667 1841 694 1865.5 c 128,-1,28
 721 1890 721 1890 758 1903.5 c 128,-1,29
 795 1917 795 1917 837 1917 c 256,30,31
 879 1917 879 1917 916.5 1903.5 c 128,-1,32
 954 1890 954 1890 981.5 1865.5 c 128,-1,33
 1009 1841 1009 1841 1025 1806 c 128,-1,34
 1041 1771 1041 1771 1041 1729 c 256,35,36
 1041 1687 1041 1687 1025 1652.5 c 128,-1,37
 1009 1618 1009 1618 981.5 1593.5 c 128,-1,38
 954 1569 954 1569 916.5 1555.5 c 128,-1,39
 879 1542 879 1542 837 1542 c 256,20,21
291 1181 m 1,40,-1
 10 1434 l 1,41,-1
 1062 1434 l 1,42,-1
 808 1181 l 1,43,-1
 808 727 l 2,44,45
 808 583 808 583 829.5 483.5 c 128,-1,46
 851 384 851 384 894 321.5 c 128,-1,47
 937 259 937 259 1002 231.5 c 128,-1,48
 1067 204 1067 204 1154 204 c 0,49,50
 1207 204 1207 204 1253 212.5 c 128,-1,51
 1299 221 1299 221 1337.5 243 c 128,-1,52
 1376 265 1376 265 1405.5 303 c 128,-1,53
 1435 341 1435 341 1455.5 399 c 128,-1,54
 1476 457 1476 457 1487 538 c 128,-1,55
 1498 619 1498 619 1498 727 c 2,56,-1
 1498 1180 l 1,57,-1
 1280 1434 l 1,58,-1
 2037 1434 l 1,59,-1
 1781 1180 l 1,60,-1
 1781 667 l 2,61,62
 1781 526 1781 526 1758 418.5 c 128,-1,63
 1735 311 1735 311 1692 232.5 c 128,-1,64
 1649 154 1649 154 1587 102 c 128,-1,65
 1525 50 1525 50 1447 18.5 c 128,-1,66
 1369 -13 1369 -13 1277 -26 c 128,-1,67
 1185 -39 1185 -39 1081 -39 c 0,68,69
 863 -39 863 -39 712 5 c 128,-1,70
 561 49 561 49 467.5 137.5 c 128,-1,71
 374 226 374 226 332.5 358.5 c 128,-1,72
 291 491 291 491 291 667 c 2,73,-1
 291 1181 l 1,40,-1
EndSplineSet
EndChar

StartChar: Yacute
Encoding: 221 221 158
Width: 1939
Flags: W
LayerCount: 2
Fore
SplineSet
1161 1879 m 1,0,-1
 1832 1879 l 1,1,-1
 1122 1563 l 1,2,-1
 751 1563 l 1,3,-1
 1161 1879 l 1,0,-1
731 224 m 1,4,-1
 731 440 l 1,5,-1
 262 1191 l 1,6,-1
 -40 1434 l 1,7,-1
 949 1434 l 1,8,-1
 814 1242 l 1,9,-1
 1092 743 l 1,10,-1
 1324 1233 l 1,11,-1
 1160 1434 l 1,12,-1
 1999 1434 l 1,13,-1
 1641 1184 l 1,14,-1
 1238 440 l 1,15,-1
 1238 224 l 1,16,-1
 1488 0 l 1,17,-1
 499 0 l 1,18,-1
 731 224 l 1,4,-1
EndSplineSet
EndChar

StartChar: Thorn
Encoding: 222 222 159
Width: 1935
Flags: W
LayerCount: 2
Fore
SplineSet
262 254 m 1,0,-1
 262 1180 l 1,1,-1
 30 1434 l 1,2,-1
 1011 1434 l 1,3,-1
 788 1190 l 1,4,5
 826 1192 826 1192 877 1193.5 c 128,-1,6
 928 1195 928 1195 1009 1195 c 0,7,8
 1110 1195 1110 1195 1213 1188.5 c 128,-1,9
 1316 1182 1316 1182 1411 1164 c 128,-1,10
 1506 1146 1506 1146 1589 1114.5 c 128,-1,11
 1672 1083 1672 1083 1733 1032 c 128,-1,12
 1794 981 1794 981 1829.5 909 c 128,-1,13
 1865 837 1865 837 1865 739 c 0,14,15
 1865 633 1865 633 1834.5 554.5 c 128,-1,16
 1804 476 1804 476 1746 420.5 c 128,-1,17
 1688 365 1688 365 1605.5 330 c 128,-1,18
 1523 295 1523 295 1418 275 c 128,-1,19
 1313 255 1313 255 1188.5 247.5 c 128,-1,20
 1064 240 1064 240 923 240 c 0,21,22
 896 240 896 240 876.5 240.5 c 128,-1,23
 857 241 857 241 841 242 c 128,-1,24
 825 243 825 243 812 244 c 128,-1,25
 799 245 799 245 785 247 c 1,26,-1
 1011 0 l 1,27,-1
 30 0 l 1,28,-1
 262 254 l 1,0,-1
864 463 m 2,29,30
 988 463 988 463 1071 474.5 c 128,-1,31
 1154 486 1154 486 1204 516 c 128,-1,32
 1254 546 1254 546 1275 598 c 128,-1,33
 1296 650 1296 650 1296 731 c 256,34,35
 1296 812 1296 812 1268 861 c 128,-1,36
 1240 910 1240 910 1187 936.5 c 128,-1,37
 1134 963 1134 963 1057.5 971 c 128,-1,38
 981 979 981 979 884 979 c 2,39,-1
 779 979 l 1,40,-1
 779 463 l 1,41,-1
 864 463 l 2,29,30
EndSplineSet
EndChar

